SplineFontDB: 3.0
FontName: TeXGyreAdventor-BoldItalic
FullName: TeXGyreAdventor-BoldItalic
FamilyName: TeXGyreAdventor
Weight: Bold
Copyright: Copyright 2007-2018 for TeX Gyre extensions by B. Jackowski, J.M. Nowacki, et al. (on behalf of TeX USERS GROUPS). Vietnamese characters were added by Han The Thanh.
UComments: "2018-5-8: Created with FontForge (http://fontforge.org)"
Version: 2.501
ItalicAngle: -10.5
UnderlinePosition: -100
UnderlineWidth: 90
Ascent: 750
Descent: 250
InvalidEm: 0
sfntRevision: 0x00028042
LayerCount: 2
Layer: 0 0 "Back" 1
Layer: 1 0 "Fore" 0
XUID: [1021 669 -347977078 3822]
StyleMap: 0x0021
FSType: 0
OS2Version: 0
OS2_WeightWidthSlopeOnly: 0
OS2_UseTypoMetrics: 1
CreationTime: 1525768308
ModificationTime: 1525768314
PfmFamily: 16
TTFWeight: 700
TTFWidth: 5
LineGap: 0
VLineGap: 90
Panose: 2 0 7 3 2 2 0 0 0 4
OS2TypoAscent: 739
OS2TypoAOffset: 0
OS2TypoDescent: -185
OS2TypoDOffset: 0
OS2TypoLinegap: 0
OS2WinAscent: 0
OS2WinAOffset: 1
OS2WinDescent: 0
OS2WinDOffset: 1
HheadAscent: 739
HheadAOffset: 0
HheadDescent: -185
HheadDOffset: 0
OS2SubXSize: 650
OS2SubYSize: 699
OS2SubXOff: 0
OS2SubYOff: 140
OS2SupXSize: 650
OS2SupYSize: 699
OS2SupXOff: 0
OS2SupYOff: 479
OS2StrikeYSize: 49
OS2StrikeYPos: 258
Lookup: 3 0 0 "'aalt' Access All Alternates lookup 0" { "'aalt' Access All Alternates lookup 0 subtable"  } ['aalt' ('DFLT' <'dflt' > ) ]
Lookup: 3 0 0 "'aalt' Access All Alternates in Latin lookup 0" { "'aalt' Access All Alternates in Latin lookup 0 subtable"  } ['aalt' ('latn' <'ROM ' 'MOL ' 'dflt' 'AZE ' 'CRT ' 'NLD ' 'PLK ' 'TRK ' > ) ]
Lookup: 2 0 0 "ccmp_decomp_sub" { "ccmp_decomp_sub subtable"  } []
Lookup: 1 0 0 "locl_ROM" { "locl_ROM subtable"  } ['locl' ('latn' <'ROM ' 'MOL ' > ) ]
Lookup: 1 0 0 "'smcp' Lowercase to Small Capitals in Latin lookup 2" { "'smcp' Lowercase to Small Capitals in Latin lookup 2 subtable"  } ['smcp' ('latn' <'dflt' 'AZE ' 'CRT ' 'MOL ' 'NLD ' 'PLK ' 'ROM ' 'TRK ' > 'DFLT' <'dflt' > ) ]

StartChar: acute
Encoding: 256 180 0
Width: 420
VWidth: 0
Flags: W
TeX: 832 0
HStem: 603 215
VStem: 215 283
LayerCount: 2
Fore
SplineSet
215 691 m 1
 451 818 l 1
 498 719 l 1
 255 603 l 1
 215 691 l 1
EndSplineSet
Validated: 1
EndChar

StartChar: acute.cap
Encoding: 257 -1 1
Width: 420
VWidth: 0
Flags: W
TeX: 808 0
HStem: 593 215
VStem: 214 283
LayerCount: 2
Fore
SplineSet
214 681 m 1
 450 808 l 1
 497 709 l 1
 254 593 l 1
 214 681 l 1
EndSplineSet
Validated: 1
EndChar

StartChar: circumflex
Encoding: 258 710 2
Width: 540
VWidth: 0
Flags: W
TeX: 768 0
HStem: 631 138<304 330>
LayerCount: 2
Fore
SplineSet
157 631 m 1
 330 769 l 1
 437 769 l 1
 556 631 l 1
 411 631 l 1
 370 695 l 1
 304 631 l 1
 157 631 l 1
EndSplineSet
Validated: 1
EndChar

StartChar: circumflex.cap
Encoding: 259 -1 3
Width: 540
VWidth: 0
Flags: W
TeX: 759 0
HStem: 621 138<303 329>
LayerCount: 2
Fore
SplineSet
156 621 m 1
 329 759 l 1
 436 759 l 1
 555 621 l 1
 410 621 l 1
 369 685 l 1
 303 621 l 1
 156 621 l 1
EndSplineSet
Validated: 1
EndChar

StartChar: dieresis
Encoding: 260 168 4
Width: 500
VWidth: 0
Flags: W
TeX: 762 0
HStem: 634 132<185 293 395 503>
LayerCount: 2
Fore
SplineSet
160 634 m 1
 185 766 l 1
 318 766 l 1
 293 634 l 1
 160 634 l 1
370 634 m 1
 395 766 l 1
 528 766 l 1
 503 634 l 1
 370 634 l 1
EndSplineSet
Validated: 1
EndChar

StartChar: breve
Encoding: 261 728 5
Width: 480
VWidth: 0
Flags: W
TeX: 766 0
HStem: 632 94<291.495 399.637>
VStem: 184 330
LayerCount: 2
Fore
SplineSet
184 749 m 0
 184 753 184 760 185 768 c 1
 283 768 l 1
 289 740 309 726 344 726 c 0
 376 726 399 740 415 768 c 1
 514 768 l 1
 495 687 418 632 327 632 c 0
 238 632 184 676 184 749 c 0
EndSplineSet
Validated: 1
EndChar

StartChar: breve.cap
Encoding: 262 -1 6
Width: 480
VWidth: 0
Flags: W
TeX: 758 0
HStem: 622 94<292.495 400.637>
VStem: 185 330
LayerCount: 2
Fore
SplineSet
185 739 m 0
 185 743 185 750 186 758 c 1
 284 758 l 1
 290 730 310 716 345 716 c 0
 377 716 400 730 416 758 c 1
 515 758 l 1
 496 677 419 622 328 622 c 0
 239 622 185 666 185 739 c 0
EndSplineSet
Validated: 1
EndChar

StartChar: dotaccent
Encoding: 263 729 7
Width: 280
VWidth: 0
Flags: W
TeX: 762 0
HStem: 634 132<186 294>
VStem: 161 158
LayerCount: 2
Fore
SplineSet
161 634 m 1
 186 766 l 1
 319 766 l 1
 294 634 l 1
 161 634 l 1
EndSplineSet
Validated: 1
EndChar

StartChar: macron
Encoding: 264 175 8
Width: 420
VWidth: 0
Flags: W
TeX: 749 0
HStem: 650 100<179 441>
VStem: 162 297
LayerCount: 2
Fore
SplineSet
162 650 m 1
 179 750 l 1
 459 750 l 1
 441 650 l 1
 162 650 l 1
EndSplineSet
Validated: 1
AlternateSubs2: "'aalt' Access All Alternates lookup 0 subtable" macron.alt
AlternateSubs2: "'aalt' Access All Alternates in Latin lookup 0 subtable" macron.alt
Substitution2: "'ss04' Style Set 4 in Latin lookup 18 subtable" macron.alt
Substitution2: "'ss01' Style Set 1 in Latin lookup 15 subtable" macron.alt
Substitution2: "'salt' Stylistic Alternatives in Latin lookup 14 subtable" macron.alt
EndChar

StartChar: ring
Encoding: 265 730 9
Width: 360
VWidth: 0
Flags: W
TeX: 823 0
HStem: 597 73<242.791 312.619> 750 73<250.959 318.996>
VStem: 166 75<672.9 740.41> 322 75<679.537 747.06>
LayerCount: 2
Fore
SplineSet
166 688 m 0
 166 760 231 823 304 823 c 0
 356 823 397 784 397 732 c 0
 397 660 332 597 260 597 c 0
 206 597 166 635 166 688 c 0
241 701 m 0
 241 685 256 670 275 670 c 0
 299 670 322 693 322 717 c 0
 322 734 307 750 289 750 c 0
 264 750 241 727 241 701 c 0
EndSplineSet
Validated: 1
EndChar

StartChar: hungarumlaut
Encoding: 266 733 10
Width: 700
VWidth: 0
Flags: W
TeX: 838 0
HStem: 590 221
LayerCount: 2
Fore
SplineSet
239 669 m 1
 469 811 l 1
 521 722 l 1
 277 590 l 1
 239 669 l 1
521 669 m 1
 752 811 l 1
 803 722 l 1
 560 590 l 1
 521 669 l 1
EndSplineSet
Validated: 1
EndChar

StartChar: caron
Encoding: 267 711 11
Width: 540
VWidth: 0
Flags: W
TeX: 768 0
HStem: 631 138<409 435>
LayerCount: 2
Fore
SplineSet
183 769 m 1
 328 769 l 1
 369 705 l 1
 435 769 l 1
 582 769 l 1
 409 631 l 1
 302 631 l 1
 183 769 l 1
EndSplineSet
Validated: 1
EndChar

StartChar: tilde
Encoding: 268 732 12
Width: 480
VWidth: 0
Flags: W
TeX: 769 0
HStem: 626 97<353.732 432.886> 680 96<243.114 322.268>
LayerCount: 2
Fore
SplineSet
170 718 m 1x40
 194 749 226 776 261 776 c 0x40
 287 776 309 764 329 750 c 0
 348 738 372 723 389 723 c 0
 416 723 438 747 456 771 c 1
 506 685 l 1
 482 654 450 626 415 626 c 0x80
 389 626 367 639 347 652 c 0
 328 664 304 680 287 680 c 0
 260 680 238 655 220 631 c 1
 170 718 l 1x40
EndSplineSet
Validated: 1
EndChar

StartChar: ogonek
Encoding: 269 731 13
Width: 340
VWidth: 0
Flags: W
TeX: 5 -250
HStem: -251 107<129.982 191.662> -20 20G<86.5 236>
VStem: 20 103<-138.514 -73.1005>
LayerCount: 2
Fore
SplineSet
20 -134 m 0
 20 -86 59 -48 114 0 c 1
 236 0 l 1
 145 -23 123 -67 123 -95 c 0
 123 -119 136 -144 161 -144 c 0
 173 -144 189 -144 209 -141 c 1
 191 -244 l 1
 175 -249 159 -251 144 -251 c 0
 74 -251 20 -205 20 -134 c 0
EndSplineSet
Validated: 1
EndChar

StartChar: cedilla
Encoding: 270 184 14
Width: 340
VWidth: 0
Flags: W
TeX: 0 -251
HStem: -256 64<64.3064 151.56> -19 20G<87.2857 162>
VStem: 157 64<-186.62 -114.093>
LayerCount: 2
Fore
SplineSet
10 -170 m 1
 78 -170 l 1
 85 -184 99 -192 115 -192 c 0
 138 -192 157 -174 157 -150 c 0
 157 -127 138 -108 115 -108 c 0
 99 -108 85 -117 78 -130 c 1
 29 -104 l 1
 101 1 l 1
 162 1 l 1
 130 -46 l 1
 181 -53 221 -97 221 -150 c 0
 221 -209 173 -256 115 -256 c 0
 63 -256 20 -219 10 -170 c 1
EndSplineSet
Validated: 1
EndChar

StartChar: space_uni0309
Encoding: 271 -1 15
Width: 263
VWidth: 0
Flags: W
TeX: 347 0
HStem: 744 21G<110 203.5> 788 75<208.183 285.064>
VStem: 161 85<598 647.509> 286 87<732.865 786.272>
LayerCount: 2
Fore
SplineSet
110 744 m 1
 132 816 193 863 267 863 c 0
 330 863 373 827 373 774 c 0
 373 734 358 707 295 668 c 0
 261 647 254 637 246 598 c 1
 161 598 l 1
 177 669 193 690 256 727 c 0
 274 737 286 752 286 765 c 0
 286 778 271 788 251 788 c 0
 226 788 211 779 196 744 c 1
 110 744 l 1
EndSplineSet
Validated: 1
EndChar

StartChar: space_uni0309.cap
Encoding: 272 -1 16
Width: 263
VWidth: 0
Flags: W
TeX: 347 0
HStem: 778 75<206.183 283.064>
VStem: 159 85<588 637.509> 284 87<722.865 776.272>
LayerCount: 2
Fore
SplineSet
108 734 m 1
 130 806 191 853 265 853 c 0
 328 853 371 817 371 764 c 0
 371 724 356 697 293 658 c 0
 259 637 252 627 244 588 c 1
 159 588 l 1
 175 659 191 680 254 717 c 0
 272 727 284 742 284 755 c 0
 284 768 269 778 249 778 c 0
 224 778 209 769 194 734 c 1
 108 734 l 1
EndSplineSet
Validated: 1
EndChar

StartChar: dotlessi
Encoding: 273 305 17
Width: 240
VWidth: 0
GlyphClass: 2
Flags: W
TeX: 554 0
HStem: 0 21G<24 160.718> 534 20G<123.282 260>
VStem: 24 236
AnchorPoint: "bot_acc" 64 -146 basechar 0
AnchorPoint: "dotbelow" 64 -146 basechar 0
AnchorPoint: "ogon_acc" 34 -146 basechar 0
AnchorPoint: "top_accl" 221 700 basechar 0
AnchorPoint: "dotabove" 221 700 basechar 0
LayerCount: 2
Fore
SplineSet
24 0 m 1
 127 554 l 1
 260 554 l 1
 157 0 l 1
 24 0 l 1
EndSplineSet
Validated: 1
AlternateSubs2: "'aalt' Access All Alternates lookup 0 subtable" dotlessi.sc
AlternateSubs2: "'aalt' Access All Alternates in Latin lookup 0 subtable" dotlessi.sc
Substitution2: "'smcp' Lowercase to Small Capitals in Latin lookup 2 subtable" dotlessi.sc
EndChar

StartChar: i
Encoding: 105 105 18
Width: 240
VWidth: 0
GlyphClass: 2
Flags: W
TeX: 766 0
HStem: 0 21G<24 160.718> 534 20G<123.282 260> 634 132<167 275>
VStem: 24 276
AnchorPoint: "bot_acc" 64 -146 basechar 0
AnchorPoint: "dotbelow" 64 -146 basechar 0
AnchorPoint: "ogon_acc" 34 -146 basechar 0
LayerCount: 2
Fore
SplineSet
24 0 m 1
 127 554 l 1
 260 554 l 1
 157 0 l 1
 24 0 l 1
142 634 m 1
 167 766 l 1
 300 766 l 1
 275 634 l 1
 142 634 l 1
EndSplineSet
Validated: 1
AlternateSubs2: "'aalt' Access All Alternates lookup 0 subtable" dotlessi i.sc
AlternateSubs2: "'aalt' Access All Alternates in Latin lookup 0 subtable" dotlessi i.sc
Substitution2: "ccmp_sub_acc subtable" dotlessi
Substitution2: "'smcp' Lowercase to Small Capitals in Latin lookup 2 subtable" i.sc
EndChar

StartChar: Lslash
Encoding: 163 321 19
Width: 480
VWidth: 0
GlyphClass: 2
Flags: W
TeX: 739 0
HStem: 0 128<241 444> 719 20G<213.316 354>
AnchorPoint: "bot_acc" 235 -146 basechar 0
AnchorPoint: "dotbelow" 235 -146 basechar 0
AnchorPoint: "ogon_acc" 321 -146 basechar 0
AnchorPoint: "top_accu" 311 875 basechar 0
AnchorPoint: "dotabove" 311 875 basechar 0
LayerCount: 2
Fore
SplineSet
19 188 m 1
 43 318 l 1
 154 397 l 1
 217 739 l 1
 354 739 l 1
 305 470 l 1
 467 581 l 1
 443 451 l 1
 280 340 l 1
 241 128 l 1
 468 128 l 1
 444 0 l 1
 80 0 l 1
 130 267 l 1
 19 188 l 1
EndSplineSet
Validated: 1
AlternateSubs2: "'aalt' Access All Alternates lookup 0 subtable" lslash.sc
AlternateSubs2: "'aalt' Access All Alternates in Latin lookup 0 subtable" lslash.sc
Substitution2: "'c2sc' Capitals to Small Capitals in Latin lookup 13 subtable" lslash.sc
Position2: "'cpsp' Capital Spacing in Latin lookup 13 subtable" dx=7 dy=0 dh=14 dv=0
EndChar

StartChar: lslash
Encoding: 179 322 20
Width: 320
VWidth: 0
GlyphClass: 2
Flags: W
TeX: 739 0
HStem: 0 21G<68 204.73> 719 20G<201.369 338>
AnchorPoint: "bot_acc" 109 -146 basechar 0
AnchorPoint: "dotbelow" 109 -146 basechar 0
AnchorPoint: "ogon_acc" 78 -146 basechar 0
AnchorPoint: "top_accl" 300 885 basechar 0
AnchorPoint: "dotabove" 300 885 basechar 0
LayerCount: 2
Fore
SplineSet
29 241 m 1
 51 357 l 1
 148 425 l 1
 205 739 l 1
 338 739 l 1
 291 487 l 1
 390 552 l 1
 368 435 l 1
 270 370 l 1
 201 0 l 1
 68 0 l 1
 126 308 l 1
 29 241 l 1
EndSplineSet
Validated: 1
AlternateSubs2: "'aalt' Access All Alternates lookup 0 subtable" lslash.sc
AlternateSubs2: "'aalt' Access All Alternates in Latin lookup 0 subtable" lslash.sc
Substitution2: "'smcp' Lowercase to Small Capitals in Latin lookup 2 subtable" lslash.sc
EndChar

StartChar: exclam
Encoding: 33 33 21
Width: 280
VWidth: 0
Flags: W
TeX: 739 0
HStem: 0 128<66 175> 719 20G<175.298 312>
VStem: 42 270
LayerCount: 2
Fore
SplineSet
42 0 m 1
 66 128 l 1
 199 128 l 1
 175 0 l 1
 42 0 l 1
77 188 m 1
 179 739 l 1
 312 739 l 1
 210 188 l 1
 77 188 l 1
EndSplineSet
Validated: 1
EndChar

StartChar: quotedbl
Encoding: 34 34 22
Width: 360
VWidth: 0
Flags: W
TeX: 739 0
HStem: 513 226<181 215 314 348>
VStem: 139 251
LayerCount: 2
Fore
SplineSet
139 513 m 1
 181 739 l 1
 257 739 l 1
 215 513 l 1
 139 513 l 1
272 513 m 1
 314 739 l 1
 390 739 l 1
 348 513 l 1
 272 513 l 1
EndSplineSet
Validated: 1
EndChar

StartChar: numbersign
Encoding: 35 35 23
Width: 560
VWidth: 0
Flags: W
TeX: 739 0
HStem: 0 21G<71 168.438 245 342.438> 233 100<66 146 268 321 444 513> 422 100<129 206 329 381 503 575> 719 20G<301.548 399 476.548 572>
LayerCount: 2
Fore
SplineSet
47 233 m 1
 66 333 l 1
 177 333 l 1
 206 422 l 1
 111 422 l 1
 129 522 l 1
 238 522 l 1
 308 739 l 1
 399 739 l 1
 329 522 l 1
 413 522 l 1
 483 739 l 1
 572 739 l 1
 503 522 l 1
 593 522 l 1
 575 422 l 1
 472 422 l 1
 444 333 l 1
 532 333 l 1
 513 233 l 1
 411 233 l 1
 336 0 l 1
 245 0 l 1
 321 233 l 1
 237 233 l 1
 162 0 l 1
 71 0 l 1
 146 233 l 1
 47 233 l 1
268 333 m 1
 353 333 l 1
 381 422 l 1
 297 422 l 1
 268 333 l 1
EndSplineSet
Validated: 1
EndChar

StartChar: dollar
Encoding: 36 36 24
Width: 560
VWidth: 0
Flags: W
TeX: 856 -86
HStem: -86 249<224.86 301>
VStem: 70 137<181.348 249> 154 137<487.678 589.451> 378 137<203.755 310.668> 416 129<551 602.409>
LayerCount: 2
Fore
SplineSet
70 207 m 0xd0
 70 221 71 231 75 249 c 1
 209 249 l 1
 208 240 207 233 207 228 c 0
 207 192 238 163 275 163 c 0
 331 163 378 209 378 265 c 0xd0
 378 287 372 299 350 316 c 0
 333 329 333 329 254 361 c 0
 186 388 154 432 154 498 c 0
 154 596 216 699 324 723 c 1
 348 856 l 1
 475 856 l 1
 451 723 l 1
 512 707 545 646 545 589 c 0
 545 580 544 567 542 551 c 1
 416 551 l 1
 416 589 397 613 365 613 c 0
 324 613 291 578 291 535 c 0xa8
 291 516 298 499 309 489 c 0
 326 474 337 469 427 433 c 0
 485 410 515 367 515 308 c 0
 515 181 444 83 325 46 c 1
 301 -86 l 1
 174 -86 l 1
 198 46 l 1
 117 68 70 128 70 207 c 0xd0
EndSplineSet
Validated: 1
AlternateSubs2: "'aalt' Access All Alternates lookup 0 subtable" dollar.oldstyle
AlternateSubs2: "'aalt' Access All Alternates in Latin lookup 0 subtable" dollar.oldstyle
Substitution2: "'onum' Oldstyle Figures in Latin lookup 3 subtable" dollar.oldstyle
EndChar

StartChar: percent
Encoding: 37 37 25
Width: 860
VWidth: 0
Flags: W
TeX: 739 0
HStem: -13 107<592.85 695.536> 0 21G<193 306.989> 242 106<610.786 715.527> 391 107<217.029 319.938> 646 106<234.983 339.689> 719 20G<623.038 738>
VStem: 94 108<512.047 612.032> 354 108<532.62 631.66> 470 108<108.936 209.388> 730 108<128.598 225.726>
LayerCount: 2
Fore
SplineSet
94 540 m 0x3bc0
 94 651 199 752 312 752 c 0
 398 752 462 689 462 605 c 0
 462 493 357 391 242 391 c 0
 157 391 94 454 94 540 c 0x3bc0
193 0 m 1x77c0
 635 739 l 1
 738 739 l 1
 295 0 l 1
 193 0 l 1x77c0
202 562 m 0
 202 523 227 498 265 498 c 0
 310 498 354 541 354 585 c 0
 354 620 327 646 291 646 c 0x3bc0
 247 646 202 604 202 562 c 0
470 133 m 0
 470 247 573 348 688 348 c 0
 774 348 838 285 838 201 c 0
 838 88 733 -13 617 -13 c 0xb3c0
 534 -13 470 51 470 133 c 0
578 154 m 0
 578 120 604 94 639 94 c 0
 686 94 730 137 730 183 c 0
 730 215 702 242 667 242 c 0
 620 242 578 200 578 154 c 0
EndSplineSet
Validated: 1
EndChar

StartChar: ampersand
Encoding: 38 38 26
Width: 680
VWidth: 0
Flags: W
TeX: 739 0
HStem: -13 132<199.891 325.554> 627 125<336.832 429.871>
VStem: 41 134<142.504 259.747> 184 128<499.626 602.32> 438 130<524.59 618.878>
LayerCount: 2
Fore
SplineSet
41 179 m 0
 41 287 99 368 225 433 c 1
 192 478 184 498 184 534 c 0
 184 648 290 752 407 752 c 0
 500 752 568 693 568 611 c 0
 568 524 540 462 415 389 c 1
 469 313 l 1
 562 433 l 1
 711 433 l 1
 542 213 l 1
 648 72 l 1
 537 -13 l 1
 453 98 l 1
 375 14 324 -13 245 -13 c 0
 125 -13 41 66 41 179 c 0
175 198 m 0
 175 150 208 119 260 119 c 0
 305 119 342 144 379 198 c 1
 287 322 l 1
 197 283 175 242 175 198 c 0
312 552 m 0
 312 531 322 512 349 481 c 1
 357 485 l 1
 410 506 438 539 438 584 c 0
 438 608 416 627 387 627 c 0
 347 627 312 592 312 552 c 0
EndSplineSet
Validated: 1
AlternateSubs2: "'aalt' Access All Alternates lookup 0 subtable" ampersand
AlternateSubs2: "'aalt' Access All Alternates in Latin lookup 0 subtable" ampersand
Substitution2: "'lnum' Lining Figures in Latin lookup 4 subtable" ampersand
Substitution2: "'onum' Oldstyle Figures in Latin lookup 3 subtable" ampersand
EndChar

StartChar: quotesingle
Encoding: 39 39 27
Width: 220
VWidth: 0
Flags: W
TeX: 739 0
HStem: 513 226<181 215>
VStem: 139 118
LayerCount: 2
Fore
SplineSet
139 513 m 1
 181 739 l 1
 257 739 l 1
 215 513 l 1
 139 513 l 1
EndSplineSet
Validated: 1
EndChar

StartChar: comma
Encoding: 44 44 28
Width: 280
VWidth: 0
Flags: W
TeX: 128 -140
HStem: -140 268<-66 -36>
VStem: 17 183
LayerCount: 2
Fore
SplineSet
17 -140 m 1
 29 -73 l 1
 76 -67 100 -42 101 0 c 1
 43 0 l 1
 67 128 l 1
 200 128 l 1
 175 -7 l 2
 160 -86 97 -140 28 -140 c 2
 17 -140 l 1
EndSplineSet
Validated: 1
EndChar

StartChar: hyphen
Encoding: 45 45 29
Width: 420
VWidth: 0
Flags: W
TeX: 347 0
HStem: 229 118<114 369>
VStem: 92 299
LayerCount: 2
Fore
SplineSet
92 229 m 1
 114 347 l 1
 391 347 l 1
 369 229 l 1
 92 229 l 1
EndSplineSet
Validated: 1
EndChar

StartChar: period
Encoding: 46 46 30
Width: 280
VWidth: 0
Flags: W
TeX: 128 0
HStem: 0 128<66 176>
VStem: 42 158
LayerCount: 2
Fore
SplineSet
42 0 m 1
 66 128 l 1
 200 128 l 1
 176 0 l 1
 42 0 l 1
EndSplineSet
Validated: 1
EndChar

StartChar: zero
Encoding: 48 48 31
Width: 560
VWidth: 0
Flags: W
TeX: 739 0
HStem: -13 122<203.063 340.683> 630 122<289.797 428.894>
VStem: 38 136<140.891 280.151> 457 136<471.556 602.566>
LayerCount: 2
Fore
SplineSet
38 185 m 0
 38 205 40 226 44 247 c 2
 91 498 l 2
 120 654 233 752 383 752 c 0
 511 752 593 680 593 567 c 0
 593 547 591 526 587 505 c 2
 539 247 l 2
 508 78 393 -13 251 -13 c 0
 117 -13 38 61 38 185 c 0
174 207 m 0
 174 137 214 109 271 109 c 0
 335 109 387 148 406 247 c 2
 453 498 l 2
 456 512 457 526 457 540 c 0
 457 597 422 630 363 630 c 0
 292 630 239 580 224 498 c 2
 178 251 l 2
 175 237 174 222 174 207 c 0
EndSplineSet
Validated: 1
AlternateSubs2: "'aalt' Access All Alternates lookup 0 subtable" zero.slash zero.prop zero.oldstyle
AlternateSubs2: "'aalt' Access All Alternates in Latin lookup 0 subtable" zero.slash zero.prop zero.oldstyle
Substitution2: "'zero' Slashed Zero in Latin lookup 21 subtable" zero.slash
Substitution2: "'pnum' Proportional Numbers in Latin lookup 5 subtable" zero.prop
Substitution2: "'onum' Oldstyle Figures in Latin lookup 3 subtable" zero.oldstyle
EndChar

StartChar: one
Encoding: 49 49 32
Width: 560
VWidth: 0
Flags: W
TeX: 739 0
HStem: 0 21G<216 352.708> 614 125<260 330>
VStem: 216 270
LayerCount: 2
Fore
SplineSet
216 0 m 1
 330 614 l 1
 237 614 l 1
 260 739 l 1
 486 739 l 1
 349 0 l 1
 216 0 l 1
EndSplineSet
Validated: 1
AlternateSubs2: "'aalt' Access All Alternates lookup 0 subtable" one.prop one.oldstyle
AlternateSubs2: "'aalt' Access All Alternates in Latin lookup 0 subtable" one.prop one.oldstyle
Substitution2: "'pnum' Proportional Numbers in Latin lookup 5 subtable" one.prop
Substitution2: "'onum' Oldstyle Figures in Latin lookup 3 subtable" one.oldstyle
EndChar

StartChar: two
Encoding: 50 50 33
Width: 560
VWidth: 0
Flags: W
TeX: 739 0
HStem: 0 125<219 487> 630 122<298.047 422.935>
VStem: 94 131<484 543.868> 452 137<463.915 602.515>
LayerCount: 2
Fore
SplineSet
12 0 m 1
 34 117 l 1
 340 366 l 2
 419 430 452 481 452 538 c 0
 452 593 418 630 368 630 c 0
 298 630 249 580 225 484 c 1
 94 484 l 1
 113 569 127 602 162 644 c 0
 219 713 302 752 389 752 c 0
 508 752 589 675 589 561 c 0
 589 449 546 378 396 262 c 2
 219 125 l 1
 510 125 l 1
 487 0 l 1
 12 0 l 1
EndSplineSet
Validated: 1
AlternateSubs2: "'aalt' Access All Alternates lookup 0 subtable" two.prop two.oldstyle
AlternateSubs2: "'aalt' Access All Alternates in Latin lookup 0 subtable" two.prop two.oldstyle
Substitution2: "'pnum' Proportional Numbers in Latin lookup 5 subtable" two.prop
Substitution2: "'onum' Oldstyle Figures in Latin lookup 3 subtable" two.oldstyle
EndChar

StartChar: three
Encoding: 51 51 34
Width: 560
VWidth: 0
Flags: W
TeX: 739 0
HStem: -13 122<194.29 325.589> 356 128<277 356.295> 563 21G<144 284.5> 630 122<302.819 394.532>
VStem: 23 137<143.739 224> 398 137<182.551 317.675 510.581 623.654>
LayerCount: 2
Fore
SplineSet
23 184 m 0
 23 193 24 207 26 224 c 1
 160 224 l 1
 160 217 l 2
 160 151 197 109 257 109 c 0
 337 109 398 186 398 255 c 0
 398 311 358 356 276 356 c 2
 253 356 l 1
 277 484 l 1
 366 486 404 515 404 575 c 0
 404 609 385 630 354 630 c 0
 317 630 290 606 279 563 c 1
 144 563 l 1
 175 685 270 752 375 752 c 0
 475 752 541 688 541 591 c 0
 541 517 512 463 452 426 c 1
 511 393 535 352 535 286 c 0
 535 122 399 -13 234 -13 c 0
 108 -13 23 72 23 184 c 0
EndSplineSet
Validated: 1
AlternateSubs2: "'aalt' Access All Alternates lookup 0 subtable" three.prop three.oldstyle
AlternateSubs2: "'aalt' Access All Alternates in Latin lookup 0 subtable" three.prop three.oldstyle
Substitution2: "'pnum' Proportional Numbers in Latin lookup 5 subtable" three.prop
Substitution2: "'onum' Oldstyle Figures in Latin lookup 3 subtable" three.oldstyle
EndChar

StartChar: four
Encoding: 52 52 35
Width: 560
VWidth: 0
Flags: W
TeX: 739 0
HStem: 0 21G<289 425.784> 111 118<148 310 465 521> 719 20G<430.225 559>
LayerCount: 2
Fore
SplineSet
-10 111 m 1
 10 218 l 1
 447 739 l 1
 559 739 l 1
 465 229 l 1
 543 229 l 1
 521 111 l 1
 443 111 l 1
 422 0 l 1
 289 0 l 1
 310 111 l 1
 -10 111 l 1
148 229 m 1
 332 229 l 1
 385 515 l 1
 148 229 l 1
EndSplineSet
Validated: 1
AlternateSubs2: "'aalt' Access All Alternates lookup 0 subtable" four.prop four.oldstyle
AlternateSubs2: "'aalt' Access All Alternates in Latin lookup 0 subtable" four.prop four.oldstyle
Substitution2: "'pnum' Proportional Numbers in Latin lookup 5 subtable" four.prop
Substitution2: "'onum' Oldstyle Figures in Latin lookup 3 subtable" four.oldstyle
EndChar

StartChar: five
Encoding: 53 53 36
Width: 560
VWidth: 0
Flags: W
TeX: 739 0
HStem: -13 122<189.953 324.934> 377 122<250.069 367.49> 614 125<299 533>
VStem: 20 136<145.006 221> 403 137<193.412 341.742>
LayerCount: 2
Fore
SplineSet
20 183 m 0
 20 191 21 204 23 221 c 1
 156 221 l 1
 156 150 191 109 256 109 c 0
 337 109 403 189 403 275 c 0
 403 336 363 377 305 377 c 0
 264 377 234 362 193 321 c 1
 81 353 l 1
 222 739 l 1
 556 739 l 1
 533 614 l 1
 299 614 l 1
 249 478 l 1
 295 494 317 499 350 499 c 0
 466 499 540 420 540 298 c 0
 540 137 400 -13 234 -13 c 0
 112 -13 20 80 20 183 c 0
EndSplineSet
Validated: 1
AlternateSubs2: "'aalt' Access All Alternates lookup 0 subtable" five.prop five.oldstyle
AlternateSubs2: "'aalt' Access All Alternates in Latin lookup 0 subtable" five.prop five.oldstyle
Substitution2: "'pnum' Proportional Numbers in Latin lookup 5 subtable" five.prop
Substitution2: "'onum' Oldstyle Figures in Latin lookup 3 subtable" five.oldstyle
EndChar

StartChar: six
Encoding: 54 54 37
Width: 560
VWidth: 0
Flags: W
TeX: 739 0
HStem: -13 122<204.978 340.62> 369 117<275.5 441.5> 719 20G<375.966 552>
VStem: 32 137<143.474 291.839> 417 137<193.091 332.542>
LayerCount: 2
Fore
SplineSet
32 184 m 0
 32 275 67 356 146 449 c 2
 393 739 l 1
 552 739 l 1
 326 476 l 1
 351 484 364 486 389 486 c 0
 494 486 554 409 554 302 c 0
 554 145 418 -13 246 -13 c 0
 122 -13 32 74 32 184 c 0
169 209 m 0
 169 148 208 109 271 109 c 0
 350 109 417 182 417 267 c 0
 417 328 377 369 317 369 c 0
 234 369 169 298 169 209 c 0
EndSplineSet
Validated: 1
AlternateSubs2: "'aalt' Access All Alternates lookup 0 subtable" six.prop six.oldstyle
AlternateSubs2: "'aalt' Access All Alternates in Latin lookup 0 subtable" six.prop six.oldstyle
Substitution2: "'pnum' Proportional Numbers in Latin lookup 5 subtable" six.prop
Substitution2: "'onum' Oldstyle Figures in Latin lookup 3 subtable" six.oldstyle
EndChar

StartChar: seven
Encoding: 55 55 38
Width: 560
VWidth: 0
Flags: W
TeX: 739 0
HStem: 0 21G<55 216.378> 614 125<173 443>
LayerCount: 2
Fore
SplineSet
55 0 m 1
 443 614 l 1
 150 614 l 1
 173 739 l 1
 607 739 l 1
 584 614 l 1
 204 0 l 1
 55 0 l 1
EndSplineSet
Validated: 1
AlternateSubs2: "'aalt' Access All Alternates lookup 0 subtable" seven.prop seven.oldstyle
AlternateSubs2: "'aalt' Access All Alternates in Latin lookup 0 subtable" seven.prop seven.oldstyle
Substitution2: "'pnum' Proportional Numbers in Latin lookup 5 subtable" seven.prop
Substitution2: "'onum' Oldstyle Figures in Latin lookup 3 subtable" seven.oldstyle
EndChar

StartChar: eight
Encoding: 56 56 39
Width: 560
VWidth: 0
Flags: W
TeX: 739 0
HStem: -13 122<208.19 334.831> 341 128<286.616 368.654> 630 122<309.574 410.716>
VStem: 39 137<140.09 273.338> 142 128<484.161 591.578> 400 137<176.405 309.375> 424 128<505.869 616.881>
LayerCount: 2
Fore
SplineSet
39 190 m 0xf4
 39 275 87 367 180 411 c 1
 151 451 142 476 142 513 c 0
 142 637 260 752 388 752 c 0
 484 752 552 687 552 595 c 0xea
 552 528 526 455 462 411 c 1
 515 377 537 342 537 274 c 0
 537 123 398 -13 244 -13 c 0
 120 -13 39 67 39 190 c 0xf4
176 203 m 0xf4
 176 146 213 109 268 109 c 0
 337 109 400 175 400 247 c 0
 400 302 362 341 309 341 c 0
 240 341 176 275 176 203 c 0xf4
270 532 m 0xea
 270 497 297 469 332 469 c 0
 380 469 424 515 424 565 c 0
 424 606 401 630 363 630 c 0
 315 630 270 583 270 532 c 0xea
EndSplineSet
Validated: 1
AlternateSubs2: "'aalt' Access All Alternates lookup 0 subtable" eight.prop eight.oldstyle
AlternateSubs2: "'aalt' Access All Alternates in Latin lookup 0 subtable" eight.prop eight.oldstyle
Substitution2: "'pnum' Proportional Numbers in Latin lookup 5 subtable" eight.prop
Substitution2: "'onum' Oldstyle Figures in Latin lookup 3 subtable" eight.oldstyle
EndChar

StartChar: nine
Encoding: 57 57 40
Width: 560
VWidth: 0
Flags: W
TeX: 739 0
HStem: 0 21G<78 254.034> 251 117<192.5 354.5> 630 122<290.819 424.826>
VStem: 78 137<404.975 545.532> 461 137<446.339 595.558>
LayerCount: 2
Fore
SplineSet
78 0 m 1
 305 263 l 1
 279 254 264 251 242 251 c 0
 143 251 78 325 78 437 c 0
 78 596 216 752 384 752 c 0
 509 752 598 669 598 554 c 0
 598 464 563 383 484 290 c 2
 237 0 l 1
 78 0 l 1
215 469 m 0
 215 410 256 368 313 368 c 0
 396 368 461 439 461 530 c 0
 461 590 420 630 360 630 c 0
 274 630 215 548 215 469 c 0
EndSplineSet
Validated: 1
AlternateSubs2: "'aalt' Access All Alternates lookup 0 subtable" nine.prop nine.oldstyle
AlternateSubs2: "'aalt' Access All Alternates in Latin lookup 0 subtable" nine.prop nine.oldstyle
Substitution2: "'pnum' Proportional Numbers in Latin lookup 5 subtable" nine.prop
Substitution2: "'onum' Oldstyle Figures in Latin lookup 3 subtable" nine.oldstyle
EndChar

StartChar: colon
Encoding: 58 58 41
Width: 280
VWidth: 0
Flags: W
TeX: 502 0
HStem: 0 128<66 176> 374 128<134 244>
VStem: 42 226
LayerCount: 2
Fore
SplineSet
42 0 m 1
 66 128 l 1
 200 128 l 1
 176 0 l 1
 42 0 l 1
110 374 m 1
 134 502 l 1
 268 502 l 1
 244 374 l 1
 110 374 l 1
EndSplineSet
Validated: 1
EndChar

StartChar: semicolon
Encoding: 59 59 42
Width: 280
VWidth: 0
Flags: W
TeX: 502 -140
HStem: 374 128<134 244>
VStem: 17 251
LayerCount: 2
Fore
SplineSet
17 -140 m 1
 29 -73 l 1
 76 -67 100 -42 101 0 c 1
 43 0 l 1
 67 128 l 1
 200 128 l 1
 175 -7 l 2
 160 -86 97 -140 28 -140 c 2
 17 -140 l 1
110 374 m 1
 134 502 l 1
 268 502 l 1
 244 374 l 1
 110 374 l 1
EndSplineSet
Validated: 1
EndChar

StartChar: question
Encoding: 63 63 43
Width: 560
VWidth: 0
Flags: W
TeX: 739 0
HStem: 0 128<179 289> 620 132<278.258 397.265>
VStem: 419 137<482.238 598.613>
LayerCount: 2
Fore
SplineSet
99 520 m 1
 133 661 240 752 371 752 c 0
 481 752 556 677 556 568 c 0
 556 522 541 473 516 437 c 0
 499 413 477 391 416 344 c 0
 352 294 337 269 323 187 c 1
 190 187 l 1
 214 317 243 361 357 442 c 0
 396 470 419 509 419 546 c 0
 419 590 387 620 340 620 c 0
 297 620 255 598 232 520 c 1
 99 520 l 1
156 0 m 1
 179 128 l 1
 312 128 l 1
 289 0 l 1
 156 0 l 1
EndSplineSet
Validated: 1
EndChar

StartChar: at
Encoding: 64 64 44
Width: 740
VWidth: 0
Flags: W
TeX: 739 0
HStem: -13 73<260.459 491.414> 154 106<279 406.513> 154 83<508 633.658> 465 112<375.01 485.628> 693 73<371.453 607.199>
VStem: 34 68<207.985 430.724> 187 124<275.106 400.649> 733 68<366.732 573>
LayerCount: 2
Fore
SplineSet
34 294 m 0xbf
 34 548 249 766 500 766 c 0
 675 766 801 668 801 483 c 0
 801 294 686 154 535 154 c 0xbf
 481 154 450 173 445 208 c 1
 413 171 375 154 320 154 c 0xdf
 238 154 187 207 187 292 c 0
 187 445 303 577 438 577 c 0
 491 577 522 560 544 519 c 1
 561 573 l 1
 658 573 l 1
 569 278 l 2
 568 274 565 256 565 253 c 0
 565 243 574 237 589 237 c 0
 655 237 733 354 733 476 c 0
 733 608 638 693 492 693 c 0
 280 693 102 517 102 307 c 0
 102 162 214 60 380 60 c 0
 440 60 487 74 542 107 c 1
 577 47 l 1
 502 2 451 -13 368 -13 c 0
 162 -13 34 121 34 294 c 0xbf
311 328 m 0
 311 285 335 260 376 260 c 0xdf
 440 260 498 326 498 398 c 0
 498 441 476 465 438 465 c 0
 371 465 311 400 311 328 c 0
EndSplineSet
Validated: 1
AlternateSubs2: "'aalt' Access All Alternates lookup 0 subtable" at.alt
AlternateSubs2: "'aalt' Access All Alternates in Latin lookup 0 subtable" at.alt
Substitution2: "'ss02' Style Set 2 in Latin lookup 16 subtable" at.alt
Substitution2: "'ss01' Style Set 1 in Latin lookup 15 subtable" at.alt
Substitution2: "'salt' Stylistic Alternatives in Latin lookup 14 subtable" at.alt
EndChar

StartChar: A
Encoding: 65 65 45
Width: 740
VWidth: 0
GlyphClass: 2
Flags: W
TeX: 739 0
HStem: 0 21G<-23 140.251 547.393 703> 191 132<320 478> 719 20G<409.957 534.682>
AnchorPoint: "bot_acc" 312 -146 basechar 0
AnchorPoint: "dotbelow" 312 -146 basechar 0
AnchorPoint: "ogon_acc" 580 -146 basechar 0
AnchorPoint: "top_accu" 501 875 basechar 0
AnchorPoint: "dotabove" 501 875 basechar 0
LayerCount: 2
Fore
SplineSet
-23 0 m 1
 422 739 l 1
 530 739 l 1
 703 0 l 1
 552 0 l 1
 508 191 l 1
 245 191 l 1
 128 0 l 1
 -23 0 l 1
320 323 m 1
 478 323 l 1
 440 546 l 1
 320 323 l 1
EndSplineSet
Validated: 1
AlternateSubs2: "'aalt' Access All Alternates lookup 0 subtable" a.sc
AlternateSubs2: "'aalt' Access All Alternates in Latin lookup 0 subtable" a.sc
Substitution2: "'c2sc' Capitals to Small Capitals in Latin lookup 13 subtable" a.sc
Position2: "'cpsp' Capital Spacing in Latin lookup 13 subtable" dx=7 dy=0 dh=14 dv=0
EndChar

StartChar: B
Encoding: 66 66 46
Width: 580
VWidth: 0
GlyphClass: 2
Flags: W
TeX: 739 0
HStem: 0 132<199 368.397> 320 134<259 397.271> 607 132<287 420.861>
VStem: 423 140<177.991 294.816> 437 140<487.427 590.093>
AnchorPoint: "bot_acc" 251 -146 basechar 0
AnchorPoint: "dotbelow" 251 -146 basechar 0
AnchorPoint: "ogon_acc" 112 -146 basechar 0
AnchorPoint: "top_accu" 441 875 basechar 0
AnchorPoint: "dotabove" 441 875 basechar 0
LayerCount: 2
Fore
SplineSet
38 0 m 1xf0
 175 739 l 1
 328 739 l 2
 440 739 480 732 519 704 c 0
 557 676 577 633 577 580 c 0xe8
 577 504 543 438 467 403 c 1
 537 373 563 334 563 264 c 0
 563 117 448 0 235 0 c 2
 38 0 l 1xf0
199 132 m 1
 267 132 l 2
 381 132 423 179 423 241 c 0xf0
 423 297 386 320 299 320 c 2
 234 320 l 1
 199 132 l 1
259 454 m 1
 303 454 l 2
 406 454 437 493 437 549 c 0xe8
 437 587 404 607 343 607 c 2
 287 607 l 1
 259 454 l 1
EndSplineSet
Validated: 1
AlternateSubs2: "'aalt' Access All Alternates lookup 0 subtable" b.sc
AlternateSubs2: "'aalt' Access All Alternates in Latin lookup 0 subtable" b.sc
Substitution2: "'c2sc' Capitals to Small Capitals in Latin lookup 13 subtable" b.sc
Position2: "'cpsp' Capital Spacing in Latin lookup 13 subtable" dx=7 dy=0 dh=14 dv=0
EndChar

StartChar: C
Encoding: 67 67 47
Width: 780
VWidth: 0
GlyphClass: 2
Flags: W
TeX: 739 0
HStem: -13 132<313.849 506.721> 620 132<397.275 603.445>
VStem: 62 140<229.614 428.8>
AnchorPoint: "bot_acc" 352 -146 basechar 0
AnchorPoint: "dotbelow" 352 -146 basechar 0
AnchorPoint: "ogon_acc" 352 -146 basechar 0
AnchorPoint: "top_accu" 541 875 basechar 0
AnchorPoint: "dotabove" 541 875 basechar 0
LayerCount: 2
Fore
SplineSet
62 303 m 0
 62 535 283 752 518 752 c 0
 665 752 787 678 828 527 c 1
 674 527 l 1
 635 594 582 620 498 620 c 0
 349 620 202 487 202 327 c 0
 202 206 288 119 407 119 c 0
 479 119 532 142 607 206 c 1
 768 206 l 1
 688 73 537 -13 385 -13 c 0
 195 -13 62 122 62 303 c 0
EndSplineSet
Validated: 1
AlternateSubs2: "'aalt' Access All Alternates lookup 0 subtable" c.sc
AlternateSubs2: "'aalt' Access All Alternates in Latin lookup 0 subtable" c.sc
Substitution2: "'c2sc' Capitals to Small Capitals in Latin lookup 13 subtable" c.sc
Position2: "'cpsp' Capital Spacing in Latin lookup 13 subtable" dx=7 dy=0 dh=14 dv=0
EndChar

StartChar: D
Encoding: 68 68 48
Width: 700
VWidth: 0
GlyphClass: 2
Flags: W
TeX: 739 0
HStem: 0 131<199 386.551> 608 131<288 462.262>
VStem: 564 140<313.304 519.859>
AnchorPoint: "bot_acc" 302 -146 basechar 0
AnchorPoint: "dotbelow" 302 -146 basechar 0
AnchorPoint: "ogon_acc" 87 -146 basechar 0
AnchorPoint: "top_accu" 491 875 basechar 0
AnchorPoint: "dotabove" 491 875 basechar 0
LayerCount: 2
Fore
SplineSet
38 0 m 1
 175 739 l 1
 344 739 l 2
 607 739 704 635 704 452 c 0
 704 304 628 153 515 74 c 0
 439 21 352 0 210 0 c 2
 38 0 l 1
199 131 m 1
 229 131 l 2
 352 131 423 154 479 212 c 0
 534 269 564 343 564 421 c 0
 564 544 505 608 315 608 c 2
 288 608 l 1
 199 131 l 1
EndSplineSet
Validated: 1
AlternateSubs2: "'aalt' Access All Alternates lookup 0 subtable" d.sc
AlternateSubs2: "'aalt' Access All Alternates in Latin lookup 0 subtable" d.sc
Substitution2: "'c2sc' Capitals to Small Capitals in Latin lookup 13 subtable" d.sc
Position2: "'cpsp' Capital Spacing in Latin lookup 13 subtable" dx=7 dy=0 dh=14 dv=0
EndChar

StartChar: E
Encoding: 69 69 49
Width: 520
VWidth: 0
GlyphClass: 2
Flags: W
TeX: 739 0
HStem: 0 132<199 435> 303 132<255 480> 607 132<288 548>
AnchorPoint: "bot_acc" 209 -146 basechar 0
AnchorPoint: "dotbelow" 209 -146 basechar 0
AnchorPoint: "ogon_acc" 312 -146 basechar 0
AnchorPoint: "top_accu" 399 875 basechar 0
AnchorPoint: "dotabove" 399 875 basechar 0
LayerCount: 2
Fore
SplineSet
38 0 m 1
 175 739 l 1
 572 739 l 1
 548 607 l 1
 288 607 l 1
 255 435 l 1
 504 435 l 1
 480 303 l 1
 231 303 l 1
 199 132 l 1
 459 132 l 1
 435 0 l 1
 38 0 l 1
EndSplineSet
Validated: 1
AlternateSubs2: "'aalt' Access All Alternates lookup 0 subtable" e.sc
AlternateSubs2: "'aalt' Access All Alternates in Latin lookup 0 subtable" e.sc
Substitution2: "'c2sc' Capitals to Small Capitals in Latin lookup 13 subtable" e.sc
Position2: "'cpsp' Capital Spacing in Latin lookup 13 subtable" dx=7 dy=0 dh=14 dv=0
EndChar

StartChar: F
Encoding: 70 70 50
Width: 480
VWidth: 0
GlyphClass: 2
Flags: W
TeX: 739 0
HStem: 0 21G<38 178.696> 303 132<255 459> 607 132<288 527>
AnchorPoint: "bot_acc" 199 -146 basechar 0
AnchorPoint: "dotbelow" 199 -146 basechar 0
AnchorPoint: "ogon_acc" 52 -146 basechar 0
AnchorPoint: "top_accu" 388 875 basechar 0
AnchorPoint: "dotabove" 388 875 basechar 0
LayerCount: 2
Fore
SplineSet
38 0 m 1
 175 739 l 1
 551 739 l 1
 527 607 l 1
 288 607 l 1
 255 435 l 1
 483 435 l 1
 459 303 l 1
 231 303 l 1
 175 0 l 1
 38 0 l 1
EndSplineSet
Validated: 1
AlternateSubs2: "'aalt' Access All Alternates lookup 0 subtable" f.sc
AlternateSubs2: "'aalt' Access All Alternates in Latin lookup 0 subtable" f.sc
Substitution2: "'c2sc' Capitals to Small Capitals in Latin lookup 13 subtable" f.sc
Position2: "'cpsp' Capital Spacing in Latin lookup 13 subtable" dx=7 dy=0 dh=14 dv=0
EndChar

StartChar: G
Encoding: 71 71 51
Width: 840
VWidth: 0
GlyphClass: 2
Flags: W
TeX: 739 0
HStem: -13 132<316.595 524.435> 249 128<376 658> 620 132<394.815 604.503>
VStem: 61 140<231.289 423.952>
AnchorPoint: "bot_acc" 363 -146 basechar 0
AnchorPoint: "dotbelow" 363 -146 basechar 0
AnchorPoint: "ogon_acc" 363 -146 basechar 0
AnchorPoint: "top_accu" 552 875 basechar 0
AnchorPoint: "dotabove" 552 875 basechar 0
LayerCount: 2
Fore
SplineSet
61 300 m 0
 61 537 284 752 529 752 c 0
 691 752 826 648 848 522 c 1
 687 522 l 1
 642 596 577 620 507 620 c 0
 338 620 201 478 201 324 c 0
 201 206 285 119 418 119 c 0
 514 119 604 168 658 249 c 1
 352 249 l 1
 376 377 l 1
 858 377 l 1
 837 173 622 -13 400 -13 c 0
 201 -13 61 117 61 300 c 0
EndSplineSet
Validated: 1
AlternateSubs2: "'aalt' Access All Alternates lookup 0 subtable" g.sc
AlternateSubs2: "'aalt' Access All Alternates in Latin lookup 0 subtable" g.sc
Substitution2: "'c2sc' Capitals to Small Capitals in Latin lookup 13 subtable" g.sc
Position2: "'cpsp' Capital Spacing in Latin lookup 13 subtable" dx=7 dy=0 dh=14 dv=0
EndChar

StartChar: H
Encoding: 72 72 52
Width: 680
VWidth: 0
GlyphClass: 2
Flags: W
TeX: 739 0
HStem: 0 21G<38 178.677 439 579.708> 310 132<257 496> 719 20G<171.292 312 572.296 713>
AnchorPoint: "bot_acc" 280 -146 basechar 0
AnchorPoint: "dotbelow" 280 -146 basechar 0
AnchorPoint: "ogon_acc" 453 -146 basechar 0
AnchorPoint: "top_accu" 469 875 basechar 0
AnchorPoint: "dotabove" 469 875 basechar 0
LayerCount: 2
Fore
SplineSet
38 0 m 1
 175 739 l 1
 312 739 l 1
 257 442 l 1
 521 442 l 1
 576 739 l 1
 713 739 l 1
 576 0 l 1
 439 0 l 1
 496 310 l 1
 232 310 l 1
 175 0 l 1
 38 0 l 1
EndSplineSet
Validated: 1
AlternateSubs2: "'aalt' Access All Alternates lookup 0 subtable" h.sc
AlternateSubs2: "'aalt' Access All Alternates in Latin lookup 0 subtable" h.sc
Substitution2: "'c2sc' Capitals to Small Capitals in Latin lookup 13 subtable" h.sc
Position2: "'cpsp' Capital Spacing in Latin lookup 13 subtable" dx=7 dy=0 dh=14 dv=0
EndChar

StartChar: I
Encoding: 73 73 53
Width: 280
VWidth: 0
GlyphClass: 2
Flags: W
TeX: 739 0
HStem: 0 21G<38 178.708> 719 20G<171.292 312>
VStem: 38 274
AnchorPoint: "bot_acc" 79 -146 basechar 0
AnchorPoint: "dotbelow" 79 -146 basechar 0
AnchorPoint: "ogon_acc" 52 -146 basechar 0
AnchorPoint: "top_accu" 269 875 basechar 0
AnchorPoint: "dotabove" 269 875 basechar 0
LayerCount: 2
Fore
SplineSet
38 0 m 1
 175 739 l 1
 312 739 l 1
 175 0 l 1
 38 0 l 1
EndSplineSet
Validated: 1
AlternateSubs2: "'aalt' Access All Alternates lookup 0 subtable" i.sc
AlternateSubs2: "'aalt' Access All Alternates in Latin lookup 0 subtable" i.sc
Substitution2: "'c2sc' Capitals to Small Capitals in Latin lookup 13 subtable" i.sc
Position2: "'cpsp' Capital Spacing in Latin lookup 13 subtable" dx=7 dy=0 dh=14 dv=0
EndChar

StartChar: J
Encoding: 74 74 54
Width: 480
VWidth: 0
GlyphClass: 2
Flags: W
TeX: 739 -13
HStem: -13 132<157.801 254.143> 719 20G<380.291 521>
AnchorPoint: "bot_acc" 288 -146 basechar 0
AnchorPoint: "dotbelow" 288 -146 basechar 0
AnchorPoint: "ogon_acc" 122 -146 basechar 0
AnchorPoint: "top_accu" 478 875 basechar 0
AnchorPoint: "dotabove" 478 875 basechar 0
AnchorPoint: "ccmped" 627 675 basechar 0
LayerCount: 2
Fore
SplineSet
8 140 m 0
 8 149 9 161 10 175 c 1
 147 175 l 1
 148 168 l 2
 153 134 170 119 203 119 c 0
 248 119 275 150 287 216 c 2
 384 739 l 1
 521 739 l 1
 423 212 l 2
 394 62 295 -13 182 -13 c 0
 80 -13 8 50 8 140 c 0
EndSplineSet
Validated: 1
AlternateSubs2: "'aalt' Access All Alternates lookup 0 subtable" j.sc
AlternateSubs2: "'aalt' Access All Alternates in Latin lookup 0 subtable" j.sc
Substitution2: "'c2sc' Capitals to Small Capitals in Latin lookup 13 subtable" j.sc
Position2: "'cpsp' Capital Spacing in Latin lookup 13 subtable" dx=7 dy=0 dh=14 dv=0
EndChar

StartChar: K
Encoding: 75 75 55
Width: 620
VWidth: 0
GlyphClass: 2
Flags: W
TeX: 739 0
HStem: 0 21G<38 178.692 394.538 569> 719 20G<171.292 312 523.881 706>
AnchorPoint: "bot_acc" 263 -146 basechar 0
AnchorPoint: "dotbelow" 263 -146 basechar 0
AnchorPoint: "ogon_acc" 446 -146 basechar 0
AnchorPoint: "top_accu" 452 875 basechar 0
AnchorPoint: "dotabove" 452 875 basechar 0
LayerCount: 2
Fore
SplineSet
38 0 m 1
 175 739 l 1
 312 739 l 1
 253 420 l 1
 542 739 l 1
 706 739 l 1
 362 376 l 1
 569 0 l 1
 405 0 l 1
 235 325 l 1
 175 0 l 1
 38 0 l 1
EndSplineSet
Validated: 1
AlternateSubs2: "'aalt' Access All Alternates lookup 0 subtable" k.sc
AlternateSubs2: "'aalt' Access All Alternates in Latin lookup 0 subtable" k.sc
Substitution2: "'c2sc' Capitals to Small Capitals in Latin lookup 13 subtable" k.sc
Position2: "'cpsp' Capital Spacing in Latin lookup 13 subtable" dx=7 dy=0 dh=14 dv=0
EndChar

StartChar: L
Encoding: 76 76 56
Width: 440
VWidth: 0
GlyphClass: 2
Flags: W
TeX: 739 0
HStem: 0 132<199 402> 719 20G<171.292 312>
AnchorPoint: "bot_acc" 193 -146 basechar 0
AnchorPoint: "dotbelow" 193 -146 basechar 0
AnchorPoint: "ogon_acc" 279 -146 basechar 0
AnchorPoint: "top_accu" 269 875 basechar 0
AnchorPoint: "dotabove" 269 875 basechar 0
AnchorPoint: "ccmped" 431 675 basechar 0
LayerCount: 2
Fore
SplineSet
38 0 m 1
 175 739 l 1
 312 739 l 1
 199 132 l 1
 426 132 l 1
 402 0 l 1
 38 0 l 1
EndSplineSet
Validated: 1
AlternateSubs2: "'aalt' Access All Alternates lookup 0 subtable" l.sc
AlternateSubs2: "'aalt' Access All Alternates in Latin lookup 0 subtable" l.sc
Substitution2: "'c2sc' Capitals to Small Capitals in Latin lookup 13 subtable" l.sc
Position2: "'cpsp' Capital Spacing in Latin lookup 13 subtable" dx=7 dy=0 dh=14 dv=0
EndChar

StartChar: M
Encoding: 77 77 57
Width: 900
VWidth: 0
GlyphClass: 2
Flags: W
TeX: 739 0
HStem: 0 21G<38 178.718 364.751 490.686 673 813.708> 719 20G<171.292 366.393 748.25 947>
AnchorPoint: "bot_acc" 397 -146 basechar 0
AnchorPoint: "dotbelow" 397 -146 basechar 0
AnchorPoint: "ogon_acc" 687 -146 basechar 0
AnchorPoint: "top_accu" 586 875 basechar 0
AnchorPoint: "dotabove" 586 875 basechar 0
LayerCount: 2
Fore
SplineSet
38 0 m 1
 175 739 l 1
 363 739 l 1
 458 179 l 1
 759 739 l 1
 947 739 l 1
 810 0 l 1
 673 0 l 1
 776 554 l 1
 480 0 l 1
 368 0 l 1
 278 554 l 1
 175 0 l 1
 38 0 l 1
EndSplineSet
Validated: 1
AlternateSubs2: "'aalt' Access All Alternates lookup 0 subtable" m.sc
AlternateSubs2: "'aalt' Access All Alternates in Latin lookup 0 subtable" m.sc
Substitution2: "'c2sc' Capitals to Small Capitals in Latin lookup 13 subtable" m.sc
Position2: "'cpsp' Capital Spacing in Latin lookup 13 subtable" dx=7 dy=0 dh=14 dv=0
EndChar

StartChar: N
Encoding: 78 78 58
Width: 740
VWidth: 0
GlyphClass: 2
Flags: W
TeX: 739 0
HStem: 0 21G<38 178.724 476.216 640.708> 719 20G<171.292 338.658 633.283 774>
AnchorPoint: "bot_acc" 310 -146 basechar 0
AnchorPoint: "dotbelow" 310 -146 basechar 0
AnchorPoint: "ogon_acc" 514 -146 basechar 0
AnchorPoint: "top_accu" 500 875 basechar 0
AnchorPoint: "dotabove" 500 875 basechar 0
LayerCount: 2
Fore
SplineSet
38 0 m 1
 175 739 l 1
 331 739 l 1
 537 201 l 1
 637 739 l 1
 774 739 l 1
 637 0 l 1
 484 0 l 1
 275 537 l 1
 175 0 l 1
 38 0 l 1
EndSplineSet
Validated: 1
AlternateSubs2: "'aalt' Access All Alternates lookup 0 subtable" n.sc
AlternateSubs2: "'aalt' Access All Alternates in Latin lookup 0 subtable" n.sc
Substitution2: "'c2sc' Capitals to Small Capitals in Latin lookup 13 subtable" n.sc
Position2: "'cpsp' Capital Spacing in Latin lookup 13 subtable" dx=7 dy=0 dh=14 dv=0
EndChar

StartChar: O
Encoding: 79 79 59
Width: 840
VWidth: 0
GlyphClass: 2
Flags: W
TeX: 739 0
HStem: -13 132<314.865 511.041> 620 132<396.847 596.207>
VStem: 61 140<230.818 421.649> 705 140<314.945 512.994>
AnchorPoint: "bot_acc" 363 -146 basechar 0
AnchorPoint: "dotbelow" 363 -146 basechar 0
AnchorPoint: "ogon_acc" 363 -146 basechar 0
AnchorPoint: "top_accu" 552 875 basechar 0
AnchorPoint: "dotabove" 552 875 basechar 0
LayerCount: 2
Fore
SplineSet
61 300 m 0
 61 543 291 752 529 752 c 0
 713 752 845 622 845 439 c 0
 845 201 628 -13 386 -13 c 0
 197 -13 61 118 61 300 c 0
201 323 m 0
 201 204 288 119 410 119 c 0
 564 119 705 257 705 419 c 0
 705 536 620 620 502 620 c 0
 347 620 201 479 201 323 c 0
EndSplineSet
Validated: 1
AlternateSubs2: "'aalt' Access All Alternates lookup 0 subtable" o.sc
AlternateSubs2: "'aalt' Access All Alternates in Latin lookup 0 subtable" o.sc
Substitution2: "'c2sc' Capitals to Small Capitals in Latin lookup 13 subtable" o.sc
Position2: "'cpsp' Capital Spacing in Latin lookup 13 subtable" dx=7 dy=0 dh=14 dv=0
EndChar

StartChar: P
Encoding: 80 80 60
Width: 560
VWidth: 0
GlyphClass: 2
Flags: W
TeX: 739 0
HStem: 0 21G<38 178.701> 281 131<251 411.537> 607 132<288 448.545>
VStem: 469 140<460.712 585.603>
AnchorPoint: "bot_acc" 247 -146 basechar 0
AnchorPoint: "dotbelow" 247 -146 basechar 0
AnchorPoint: "ogon_acc" 52 -146 basechar 0
AnchorPoint: "top_accu" 436 875 basechar 0
AnchorPoint: "dotabove" 436 875 basechar 0
LayerCount: 2
Fore
SplineSet
38 0 m 1
 175 739 l 1
 358 739 l 2
 454 739 505 730 540 705 c 0
 585 673 609 624 609 562 c 0
 609 486 574 403 521 352 c 0
 460 294 412 281 271 281 c 2
 227 281 l 1
 175 0 l 1
 38 0 l 1
251 412 m 1
 291 412 l 2
 398 412 469 440 469 529 c 0
 469 585 448 607 334 607 c 2
 288 607 l 1
 251 412 l 1
EndSplineSet
Validated: 1
AlternateSubs2: "'aalt' Access All Alternates lookup 0 subtable" p.sc
AlternateSubs2: "'aalt' Access All Alternates in Latin lookup 0 subtable" p.sc
Substitution2: "'c2sc' Capitals to Small Capitals in Latin lookup 13 subtable" p.sc
Position2: "'cpsp' Capital Spacing in Latin lookup 13 subtable" dx=7 dy=0 dh=14 dv=0
EndChar

StartChar: Q
Encoding: 81 81 61
Width: 840
VWidth: 0
GlyphClass: 2
Flags: W
TeX: 739 -15
HStem: -15 122<719.824 796.707> -13 132<314.261 512.26> 235 112<223.122 402.491> 620 132<395.572 608.241>
VStem: 719 140<308.842 512.204>
AnchorPoint: "bot_acc" 371 -146 basechar 0
AnchorPoint: "dotbelow" 371 -146 basechar 0
AnchorPoint: "ogon_acc" 371 -146 basechar 0
AnchorPoint: "top_accu" 560 875 basechar 0
AnchorPoint: "dotabove" 560 875 basechar 0
LayerCount: 2
Fore
SplineSet
61 299 m 0x78
 61 539 283 752 531 752 c 0
 726 752 859 628 859 445 c 0
 859 319 810 208 719 129 c 1
 742 114 765 107 788 107 c 0
 798 107 805 108 818 110 c 1
 795 -14 l 1
 785 -15 777 -15 771 -15 c 0xb8
 709 -15 676 -4 613 45 c 1
 540 5 472 -13 395 -13 c 0
 203 -13 61 120 61 299 c 0x78
200 334 m 1
 234 343 270 347 323 347 c 0
 419 347 527 312 624 204 c 1
 683 252 719 332 719 418 c 0
 719 538 633 620 506 620 c 0
 353 620 214 503 200 334 c 1
222 227 m 1
 264 154 328 119 418 119 c 0x78
 455 119 478 124 514 138 c 1
 464 188 389 235 295 235 c 0
 269 235 254 233 222 227 c 1
EndSplineSet
Validated: 1
AlternateSubs2: "'aalt' Access All Alternates lookup 0 subtable" q.sc
AlternateSubs2: "'aalt' Access All Alternates in Latin lookup 0 subtable" q.sc
Substitution2: "'c2sc' Capitals to Small Capitals in Latin lookup 13 subtable" q.sc
Position2: "'cpsp' Capital Spacing in Latin lookup 13 subtable" dx=7 dy=0 dh=14 dv=0
EndChar

StartChar: R
Encoding: 82 82 62
Width: 580
VWidth: 0
GlyphClass: 2
Flags: W
TeX: 739 0
HStem: 0 21G<38 178.675 358.965 538> 607 132<288 457.243>
VStem: 487 140<446.21 579.111>
AnchorPoint: "bot_acc" 224 -146 basechar 0
AnchorPoint: "dotbelow" 224 -146 basechar 0
AnchorPoint: "ogon_acc" 415 -146 basechar 0
AnchorPoint: "top_accu" 413 875 basechar 0
AnchorPoint: "dotabove" 413 875 basechar 0
LayerCount: 2
Fore
SplineSet
38 0 m 1
 175 739 l 1
 388 739 l 2
 569 739 627 661 627 553 c 0
 627 417 544 311 389 273 c 1
 538 0 l 1
 369 0 l 1
 227 283 l 1
 175 0 l 1
 38 0 l 1
247 386 m 1
 314 386 l 2
 443 386 487 448 487 521 c 0
 487 580 458 607 349 607 c 2
 288 607 l 1
 247 386 l 1
EndSplineSet
Validated: 1
AlternateSubs2: "'aalt' Access All Alternates lookup 0 subtable" r.sc
AlternateSubs2: "'aalt' Access All Alternates in Latin lookup 0 subtable" r.sc
Substitution2: "'c2sc' Capitals to Small Capitals in Latin lookup 13 subtable" r.sc
Position2: "'cpsp' Capital Spacing in Latin lookup 13 subtable" dx=7 dy=0 dh=14 dv=0
EndChar

StartChar: S
Encoding: 83 83 63
Width: 520
VWidth: 0
GlyphClass: 2
Flags: W
TeX: 739 0
HStem: -13 132<184.9 319.569> 620 132<281.54 391.676>
VStem: 19 144<140.335 211> 107 140<486.518 587.306> 368 140<166.522 282.169> 404 145<542 606.156>
AnchorPoint: "bot_acc" 196 -146 basechar 0
AnchorPoint: "dotbelow" 196 -146 basechar 0
AnchorPoint: "ogon_acc" 166 -146 basechar 0
AnchorPoint: "top_accu" 385 875 basechar 0
AnchorPoint: "dotabove" 385 875 basechar 0
LayerCount: 2
Fore
SplineSet
19 171 m 0xe8
 19 182 20 195 21 211 c 1
 164 211 l 1
 163 203 163 196 163 190 c 0
 163 146 195 119 248 119 c 0
 314 119 368 167 368 227 c 0xe8
 368 249 360 272 346 284 c 0
 327 300 322 303 228 341 c 0
 145 374 107 426 107 506 c 0
 107 635 228 752 362 752 c 0
 469 752 549 682 549 589 c 0
 549 577 548 561 545 542 c 1
 404 542 l 1
 404 602 384 620 338 620 c 0
 288 620 247 579 247 529 c 0xd4
 247 511 259 491 277 478 c 0
 290 469 296 466 353 445 c 0
 463 404 508 352 508 265 c 0
 508 120 373 -13 226 -13 c 0
 102 -13 19 63 19 171 c 0xe8
EndSplineSet
Validated: 1
AlternateSubs2: "'aalt' Access All Alternates lookup 0 subtable" s.sc
AlternateSubs2: "'aalt' Access All Alternates in Latin lookup 0 subtable" s.sc
Substitution2: "'c2sc' Capitals to Small Capitals in Latin lookup 13 subtable" s.sc
Position2: "'cpsp' Capital Spacing in Latin lookup 13 subtable" dx=7 dy=0 dh=14 dv=0
EndChar

StartChar: T
Encoding: 84 84 64
Width: 420
VWidth: 0
GlyphClass: 2
Flags: W
TeX: 739 0
HStem: 0 21G<112 252.723> 607 132<113 225 362 501>
AnchorPoint: "bot_acc" 153 -146 basechar 0
AnchorPoint: "dotbelow" 153 -146 basechar 0
AnchorPoint: "ogon_acc" 126 -146 basechar 0
AnchorPoint: "top_accu" 343 875 basechar 0
AnchorPoint: "dotabove" 343 875 basechar 0
LayerCount: 2
Fore
SplineSet
89 607 m 1
 113 739 l 1
 525 739 l 1
 501 607 l 1
 362 607 l 1
 249 0 l 1
 112 0 l 1
 225 607 l 1
 89 607 l 1
EndSplineSet
Validated: 1
AlternateSubs2: "'aalt' Access All Alternates lookup 0 subtable" t.sc
AlternateSubs2: "'aalt' Access All Alternates in Latin lookup 0 subtable" t.sc
Substitution2: "'c2sc' Capitals to Small Capitals in Latin lookup 13 subtable" t.sc
Position2: "'cpsp' Capital Spacing in Latin lookup 13 subtable" dx=7 dy=0 dh=14 dv=0
EndChar

StartChar: U
Encoding: 85 85 65
Width: 640
VWidth: 0
GlyphClass: 2
Flags: W
TeX: 739 0
HStem: -13 132<247.318 382.565> 719 20G<171.325 312 533.325 674>
VStem: 79 138<149.984 329.5>
AnchorPoint: "bot_acc" 260 -146 basechar 0
AnchorPoint: "dotbelow" 260 -146 basechar 0
AnchorPoint: "ogon_acc" 260 -146 basechar 0
AnchorPoint: "top_accu" 450 875 basechar 0
AnchorPoint: "dotabove" 450 875 basechar 0
LayerCount: 2
Fore
SplineSet
79 176 m 0
 79 203 82 235 89 271 c 2
 175 739 l 1
 312 739 l 1
 226 271 l 2
 220 239 217 215 217 201 c 0
 217 156 259 119 309 119 c 0
 380 119 430 160 451 271 c 2
 537 739 l 1
 674 739 l 1
 588 271 l 2
 554 84 431 -13 285 -13 c 0
 166 -13 79 67 79 176 c 0
EndSplineSet
Validated: 1
AlternateSubs2: "'aalt' Access All Alternates lookup 0 subtable" u.sc
AlternateSubs2: "'aalt' Access All Alternates in Latin lookup 0 subtable" u.sc
Substitution2: "'c2sc' Capitals to Small Capitals in Latin lookup 13 subtable" u.sc
Position2: "'cpsp' Capital Spacing in Latin lookup 13 subtable" dx=7 dy=0 dh=14 dv=0
EndChar

StartChar: V
Encoding: 86 86 66
Width: 700
VWidth: 0
GlyphClass: 2
Flags: W
TeX: 739 0
HStem: 0 21G<261.913 389.448> 719 20G<115 262.381 646.217 801>
AnchorPoint: "bot_acc" 294 -146 basechar 0
AnchorPoint: "dotbelow" 294 -146 basechar 0
AnchorPoint: "ogon_acc" 255 -146 basechar 0
AnchorPoint: "top_accu" 483 875 basechar 0
AnchorPoint: "dotabove" 483 875 basechar 0
LayerCount: 2
Fore
SplineSet
115 739 m 1
 259 739 l 1
 354 177 l 1
 657 739 l 1
 801 739 l 1
 378 0 l 1
 266 0 l 1
 115 739 l 1
EndSplineSet
Validated: 1
AlternateSubs2: "'aalt' Access All Alternates lookup 0 subtable" v.sc
AlternateSubs2: "'aalt' Access All Alternates in Latin lookup 0 subtable" v.sc
Substitution2: "'c2sc' Capitals to Small Capitals in Latin lookup 13 subtable" v.sc
Position2: "'cpsp' Capital Spacing in Latin lookup 13 subtable" dx=7 dy=0 dh=14 dv=0
EndChar

StartChar: W
Encoding: 87 87 67
Width: 900
VWidth: 0
GlyphClass: 2
Flags: W
TeX: 739 0
HStem: 0 21G<191.835 310.712 541.855 661.553> 719 20G<114 255.318 501.395 611.085 856.202 1005>
VStem: 114 140<674.337 739>
AnchorPoint: "bot_acc" 396 -146 basechar 0
AnchorPoint: "dotbelow" 396 -146 basechar 0
AnchorPoint: "ogon_acc" 529 -146 basechar 0
AnchorPoint: "top_accu" 585 875 basechar 0
AnchorPoint: "dotabove" 585 875 basechar 0
LayerCount: 2
Fore
SplineSet
114 739 m 1
 254 739 l 1
 288 223 l 1
 510 739 l 1
 610 739 l 1
 638 223 l 1
 865 739 l 1
 1005 739 l 1
 652 0 l 1
 543 0 l 1
 515 489 l 1
 302 0 l 1
 194 0 l 1
 114 739 l 1
EndSplineSet
Validated: 1
AlternateSubs2: "'aalt' Access All Alternates lookup 0 subtable" w.sc
AlternateSubs2: "'aalt' Access All Alternates in Latin lookup 0 subtable" w.sc
Substitution2: "'c2sc' Capitals to Small Capitals in Latin lookup 13 subtable" w.sc
Position2: "'cpsp' Capital Spacing in Latin lookup 13 subtable" dx=7 dy=0 dh=14 dv=0
EndChar

StartChar: X
Encoding: 88 88 68
Width: 680
VWidth: 0
GlyphClass: 2
Flags: W
TeX: 739 0
HStem: 0 21G<-25 155.176 476.804 646> 719 20G<112 284.612 606.558 783>
AnchorPoint: "bot_acc" 283 -146 basechar 0
AnchorPoint: "dotbelow" 283 -146 basechar 0
AnchorPoint: "ogon_acc" 523 -146 basechar 0
AnchorPoint: "top_accu" 473 875 basechar 0
AnchorPoint: "dotabove" 473 875 basechar 0
LayerCount: 2
Fore
SplineSet
-25 0 m 1
 297 368 l 1
 112 739 l 1
 275 739 l 1
 399 481 l 1
 624 739 l 1
 783 739 l 1
 458 368 l 1
 646 0 l 1
 487 0 l 1
 357 255 l 1
 138 0 l 1
 -25 0 l 1
EndSplineSet
Validated: 1
AlternateSubs2: "'aalt' Access All Alternates lookup 0 subtable" x.sc
AlternateSubs2: "'aalt' Access All Alternates in Latin lookup 0 subtable" x.sc
Substitution2: "'c2sc' Capitals to Small Capitals in Latin lookup 13 subtable" x.sc
Position2: "'cpsp' Capital Spacing in Latin lookup 13 subtable" dx=7 dy=0 dh=14 dv=0
EndChar

StartChar: Y
Encoding: 89 89 69
Width: 620
VWidth: 0
GlyphClass: 2
Flags: W
TeX: 739 0
HStem: 0 21G<216 356.736> 719 20G<110 263.882 571.647 733>
AnchorPoint: "bot_acc" 258 -146 basechar 0
AnchorPoint: "dotbelow" 258 -146 basechar 0
AnchorPoint: "ogon_acc" 230 -146 basechar 0
AnchorPoint: "top_accu" 447 875 basechar 0
AnchorPoint: "dotabove" 447 875 basechar 0
LayerCount: 2
Fore
SplineSet
110 739 m 1
 258 739 l 1
 358 399 l 1
 585 739 l 1
 733 739 l 1
 404 273 l 1
 353 0 l 1
 216 0 l 1
 267 273 l 1
 110 739 l 1
EndSplineSet
Validated: 1
AlternateSubs2: "'aalt' Access All Alternates lookup 0 subtable" y.sc
AlternateSubs2: "'aalt' Access All Alternates in Latin lookup 0 subtable" y.sc
Substitution2: "'c2sc' Capitals to Small Capitals in Latin lookup 13 subtable" y.sc
Position2: "'cpsp' Capital Spacing in Latin lookup 13 subtable" dx=7 dy=0 dh=14 dv=0
EndChar

StartChar: Z
Encoding: 90 90 70
Width: 500
VWidth: 0
GlyphClass: 2
Flags: W
TeX: 739 0
HStem: 0 132<177 450> 607 132<140 381>
AnchorPoint: "bot_acc" 190 -146 basechar 0
AnchorPoint: "dotbelow" 190 -146 basechar 0
AnchorPoint: "ogon_acc" 327 -146 basechar 0
AnchorPoint: "top_accu" 379 875 basechar 0
AnchorPoint: "dotabove" 379 875 basechar 0
LayerCount: 2
Fore
SplineSet
-12 0 m 1
 9 117 l 1
 381 607 l 1
 116 607 l 1
 140 739 l 1
 568 739 l 1
 545 615 l 1
 177 132 l 1
 474 132 l 1
 450 0 l 1
 -12 0 l 1
EndSplineSet
Validated: 1
AlternateSubs2: "'aalt' Access All Alternates lookup 0 subtable" z.sc
AlternateSubs2: "'aalt' Access All Alternates in Latin lookup 0 subtable" z.sc
Substitution2: "'c2sc' Capitals to Small Capitals in Latin lookup 13 subtable" z.sc
Position2: "'cpsp' Capital Spacing in Latin lookup 13 subtable" dx=7 dy=0 dh=14 dv=0
EndChar

StartChar: asciicircum
Encoding: 94 94 71
Width: 600
VWidth: 0
Flags: W
TeX: 739 0
HStem: 730 20G<331.792 471.816>
LayerCount: 2
Fore
SplineSet
100 379 m 1
 345 750 l 1
 466 750 l 1
 580 358 l 1
 465 325 l 1
 382 595 l 1
 198 324 l 1
 100 379 l 1
EndSplineSet
Validated: 1
EndChar

StartChar: underscore
Encoding: 95 95 72
Width: 500
VWidth: 0
Flags: W
TeX: 0 -138
HStem: -138 90<-40 445>
LayerCount: 2
Fore
SplineSet
-56 -138 m 1
 -40 -48 l 1
 461 -48 l 1
 445 -138 l 1
 -56 -138 l 1
EndSplineSet
Validated: 1
EndChar

StartChar: a
Encoding: 97 97 73
Width: 660
VWidth: 0
GlyphClass: 2
Flags: W
TeX: 554 0
HStem: -13 122<238.588 385.628> 0 21G<464 589.682> 445 122<296.035 458.641> 534 20G<562.486 688>
VStem: 45 137<163.818 326.52>
AnchorPoint: "bot_acc" 258 -146 basechar 0
AnchorPoint: "dotbelow" 258 -146 basechar 0
AnchorPoint: "ogon_acc" 463 -146 basechar 0
AnchorPoint: "top_accl" 415 700 basechar 0
AnchorPoint: "dotabove" 415 700 basechar 0
LayerCount: 2
Fore
SplineSet
45 213 m 0x88
 45 406 202 567 390 567 c 0xa8
 468 567 521 539 553 480 c 1
 566 554 l 1
 688 554 l 1
 586 0 l 1
 464 0 l 1x58
 477 72 l 1
 415 13 355 -13 277 -13 c 0
 137 -13 45 77 45 213 c 0x88
182 240 m 0
 182 160 235 109 317 109 c 0
 427 109 514 196 514 313 c 0
 514 394 462 445 380 445 c 0
 274 445 182 350 182 240 c 0
EndSplineSet
Validated: 1
AlternateSubs2: "'aalt' Access All Alternates lookup 0 subtable" a.sc
AlternateSubs2: "'aalt' Access All Alternates in Latin lookup 0 subtable" a.sc
Substitution2: "'smcp' Lowercase to Small Capitals in Latin lookup 2 subtable" a.sc
EndChar

StartChar: b
Encoding: 98 98 74
Width: 660
VWidth: 0
GlyphClass: 2
Flags: W
TeX: 739 0
HStem: -13 122<254.394 416.108> 0 21G<24 149.662> 452 122<326.487 471.338> 719 20G<157.292 294>
VStem: 528 137<221.025 393.132>
AnchorPoint: "bot_acc" 289 -146 basechar 0
AnchorPoint: "dotbelow" 289 -146 basechar 0
AnchorPoint: "ogon_acc" 289 -146 basechar 0
AnchorPoint: "top_accu" 255 885 basechar 0
AnchorPoint: "dotabove" 463 700 basechar 0
LayerCount: 2
Fore
SplineSet
24 0 m 1x78
 161 739 l 1
 294 739 l 1
 250 503 l 1
 314 555 362 574 440 574 c 0
 571 574 665 478 665 343 c 0
 665 147 505 -13 339 -13 c 0xb8
 257 -13 213 4 159 71 c 1
 146 0 l 1
 24 0 l 1x78
197 241 m 0
 197 163 252 109 332 109 c 0
 439 109 528 202 528 314 c 0
 528 398 476 452 395 452 c 0
 286 452 197 357 197 241 c 0
EndSplineSet
Validated: 1
AlternateSubs2: "'aalt' Access All Alternates lookup 0 subtable" b.sc
AlternateSubs2: "'aalt' Access All Alternates in Latin lookup 0 subtable" b.sc
Substitution2: "'smcp' Lowercase to Small Capitals in Latin lookup 2 subtable" b.sc
EndChar

StartChar: c
Encoding: 99 99 75
Width: 640
VWidth: 0
GlyphClass: 2
Flags: W
TeX: 554 0
HStem: -13 122<240.726 394.772> 445 122<295.197 451.819>
VStem: 47 137<167.092 332.631>
AnchorPoint: "bot_acc" 265 -146 basechar 0
AnchorPoint: "dotbelow" 265 -146 basechar 0
AnchorPoint: "ogon_acc" 265 -146 basechar 0
AnchorPoint: "top_accl" 422 700 basechar 0
AnchorPoint: "dotabove" 422 700 basechar 0
LayerCount: 2
Fore
SplineSet
47 223 m 0
 47 404 213 567 397 567 c 0
 519 567 617 502 640 369 c 1
 490 369 l 1
 475 418 435 445 377 445 c 0
 272 445 184 354 184 245 c 0
 184 163 236 109 315 109 c 0
 369 109 421 136 455 182 c 1
 605 182 l 1
 534 57 423 -13 294 -13 c 0
 152 -13 47 88 47 223 c 0
EndSplineSet
Validated: 1
AlternateSubs2: "'aalt' Access All Alternates lookup 0 subtable" c.sc
AlternateSubs2: "'aalt' Access All Alternates in Latin lookup 0 subtable" c.sc
Substitution2: "'smcp' Lowercase to Small Capitals in Latin lookup 2 subtable" c.sc
EndChar

StartChar: d
Encoding: 100 100 76
Width: 660
VWidth: 0
GlyphClass: 2
Flags: W
TeX: 739 0
HStem: -13 122<244.29 380.669> 0 21G<461 586.708> 452 122<296.517 459.102> 719 20G<583.325 720>
VStem: 46 137<170.279 336.995>
AnchorPoint: "bot_acc" 264 -146 basechar 0
AnchorPoint: "dotbelow" 264 -146 basechar 0
AnchorPoint: "ogon_acc" 460 -146 basechar 0
AnchorPoint: "top_accu" 681 885 basechar 0
AnchorPoint: "dotabove" 409 700 basechar 0
AnchorPoint: "ccmped" 839 675 basechar 0
LayerCount: 2
Fore
SplineSet
46 220 m 0xb8
 46 408 206 574 386 574 c 0
 454 574 514 548 544 505 c 1
 587 739 l 1
 720 739 l 1
 583 0 l 1
 461 0 l 1x78
 475 72 l 1
 413 14 350 -13 276 -13 c 0
 138 -13 46 80 46 220 c 0xb8
183 248 m 0
 183 166 239 109 321 109 c 0xb8
 423 109 516 207 516 314 c 0
 516 397 463 452 383 452 c 0
 275 452 183 358 183 248 c 0
EndSplineSet
Validated: 1
AlternateSubs2: "'aalt' Access All Alternates lookup 0 subtable" d.sc
AlternateSubs2: "'aalt' Access All Alternates in Latin lookup 0 subtable" d.sc
Substitution2: "'smcp' Lowercase to Small Capitals in Latin lookup 2 subtable" d.sc
EndChar

StartChar: e
Encoding: 101 101 77
Width: 640
VWidth: 0
GlyphClass: 2
Flags: W
TeX: 554 0
HStem: -13 122<236.903 406.303> 218 118<204 511> 445 122<287.402 465.629>
VStem: 46 140<155.387 218> 511 124<337.509 400.813>
CounterMasks: 1 e0
AnchorPoint: "bot_acc" 266 -146 basechar 0
AnchorPoint: "dotbelow" 266 -146 basechar 0
AnchorPoint: "ogon_acc" 266 -146 basechar 0
AnchorPoint: "top_accl" 423 700 basechar 0
AnchorPoint: "dotabove" 423 700 basechar 0
LayerCount: 2
Fore
SplineSet
46 223 m 0
 46 404 213 567 398 567 c 0
 537 567 635 474 635 342 c 0
 635 294 628 249 615 218 c 1
 186 218 l 1
 186 154 240 109 316 109 c 0
 372 109 413 126 451 164 c 1
 596 164 l 1
 536 54 422 -13 297 -13 c 0
 149 -13 46 84 46 223 c 0
204 336 m 1
 511 336 l 1
 507 408 462 445 377 445 c 0
 300 445 230 401 204 336 c 1
EndSplineSet
Validated: 1
AlternateSubs2: "'aalt' Access All Alternates lookup 0 subtable" e.sc
AlternateSubs2: "'aalt' Access All Alternates in Latin lookup 0 subtable" e.sc
Substitution2: "'smcp' Lowercase to Small Capitals in Latin lookup 2 subtable" e.sc
EndChar

StartChar: f
Encoding: 102 102 78
Width: 280
VWidth: 0
GlyphClass: 2
Flags: W
TeX: 739 0
HStem: 0 21G<27 163.695> 433 111<80 107 261 318> 611 128<279.353 359>
AnchorPoint: "bot_acc" 86 -146 basechar 0
AnchorPoint: "dotbelow" 86 -146 basechar 0
AnchorPoint: "ogon_acc" 37 -146 basechar 0
AnchorPoint: "top_accl" 277 885 basechar 0
AnchorPoint: "dotabove" 277 885 basechar 0
LayerCount: 2
Fore
SplineSet
27 0 m 1
 107 433 l 1
 59 433 l 1
 80 544 l 1
 128 544 l 1
 164 682 249 739 344 739 c 0
 353 739 361 739 383 737 c 1
 359 611 l 1
 341 611 l 2
 292 611 267 590 261 544 c 1
 339 544 l 1
 318 433 l 1
 240 433 l 1
 160 0 l 1
 27 0 l 1
EndSplineSet
Validated: 1
AlternateSubs2: "'aalt' Access All Alternates lookup 0 subtable" f.sc
AlternateSubs2: "'aalt' Access All Alternates in Latin lookup 0 subtable" f.sc
Substitution2: "'smcp' Lowercase to Small Capitals in Latin lookup 2 subtable" f.sc
EndChar

StartChar: g
Encoding: 103 103 79
Width: 660
VWidth: 0
GlyphClass: 2
Flags: W
TeX: 554 -221
HStem: -221 117<190.224 368.576> -13 122<233.322 376.539> 445 122<289.387 450.032> 534 20G<553.286 684>
VStem: 46 137<159.263 336.347>
AnchorPoint: "bot_acc" 208 -367 basechar 0
AnchorPoint: "dotbelow" 208 -367 basechar 0
AnchorPoint: "ogon_acc" 210 -354 basechar 0
AnchorPoint: "top_accl" 406 700 basechar 0
AnchorPoint: "dotabove" 406 700 basechar 0
AnchorPoint: "ccmped" 406 700 basechar 0
LayerCount: 2
Fore
SplineSet
0 -45 m 1xd8
 151 -45 l 1
 181 -87 217 -104 280 -104 c 0
 376 -104 436 -53 468 73 c 1
 404 11 349 -13 271 -13 c 0
 134 -13 46 77 46 217 c 0
 46 407 199 567 381 567 c 0xe8
 458 567 506 543 544 484 c 1
 557 554 l 1
 684 554 l 1
 601 105 l 2
 558 -128 427 -221 252 -221 c 0
 116 -221 32 -162 0 -45 c 1xd8
183 233 m 0
 183 156 231 109 311 109 c 0
 424 109 504 206 504 315 c 0
 504 393 452 445 373 445 c 0
 263 445 183 356 183 233 c 0
EndSplineSet
Validated: 1
AlternateSubs2: "'aalt' Access All Alternates lookup 0 subtable" g.sc
AlternateSubs2: "'aalt' Access All Alternates in Latin lookup 0 subtable" g.sc
Substitution2: "'smcp' Lowercase to Small Capitals in Latin lookup 2 subtable" g.sc
EndChar

StartChar: h
Encoding: 104 104 80
Width: 600
VWidth: 0
GlyphClass: 2
Flags: W
TeX: 739 0
HStem: 0 21G<24 160.701 382 518.706> 446 122<301.321 418.667> 719 20G<157.292 294>
VStem: 443 140<250.734 422.291>
AnchorPoint: "bot_acc" 242 -146 basechar 0
AnchorPoint: "dotbelow" 242 -146 basechar 0
AnchorPoint: "ogon_acc" 392 -146 basechar 0
AnchorPoint: "top_accu" 255 885 basechar 0
AnchorPoint: "dotabove" 426 700 basechar 0
LayerCount: 2
Fore
SplineSet
24 0 m 1
 161 739 l 1
 294 739 l 1
 253 516 l 1
 295 551 345 568 402 568 c 0
 512 568 583 505 583 408 c 0
 583 381 580 349 573 313 c 2
 515 0 l 1
 382 0 l 1
 434 283 l 2
 440 315 443 343 443 364 c 0
 443 416 411 446 356 446 c 0
 280 446 232 406 209 281 c 2
 157 0 l 1
 24 0 l 1
EndSplineSet
Validated: 1
AlternateSubs2: "'aalt' Access All Alternates lookup 0 subtable" h.sc
AlternateSubs2: "'aalt' Access All Alternates in Latin lookup 0 subtable" h.sc
Substitution2: "'smcp' Lowercase to Small Capitals in Latin lookup 2 subtable" h.sc
EndChar

StartChar: dotlessj
Encoding: 274 567 81
Width: 260
VWidth: 0
GlyphClass: 2
Flags: W
TeX: 554 -185
HStem: -185 21G<-43.2791 14> 534 20G<141.304 278>
VStem: -47 325
AnchorPoint: "bot_acc" 47 -331 basechar 0
AnchorPoint: "dotbelow" 47 -331 basechar 0
AnchorPoint: "ogon_acc" -46 -318 basechar 0
AnchorPoint: "top_accl" 239 700 basechar 0
AnchorPoint: "dotabove" 239 700 basechar 0
LayerCount: 2
Fore
SplineSet
-47 -185 m 1
 -23 -56 l 1
 27 -47 37 -34 50 40 c 2
 145 554 l 1
 278 554 l 1
 182 37 l 2
 159 -101 75 -182 -47 -185 c 1
EndSplineSet
Validated: 1
AlternateSubs2: "'aalt' Access All Alternates lookup 0 subtable" dotlessj.sc
AlternateSubs2: "'aalt' Access All Alternates in Latin lookup 0 subtable" dotlessj.sc
Substitution2: "'smcp' Lowercase to Small Capitals in Latin lookup 2 subtable" dotlessj.sc
EndChar

StartChar: j
Encoding: 106 106 82
Width: 260
VWidth: 0
GlyphClass: 2
Flags: W
TeX: 766 -185
HStem: -185 21G<-43.2791 14> 534 20G<141.304 278> 634 132<185 293>
AnchorPoint: "bot_acc" 47 -331 basechar 0
AnchorPoint: "dotbelow" 47 -331 basechar 0
AnchorPoint: "ogon_acc" -46 -318 basechar 0
LayerCount: 2
Fore
SplineSet
-47 -185 m 1
 -23 -56 l 1
 27 -47 37 -34 50 40 c 2
 145 554 l 1
 278 554 l 1
 182 37 l 2
 159 -101 75 -182 -47 -185 c 1
160 634 m 1
 185 766 l 1
 318 766 l 1
 293 634 l 1
 160 634 l 1
EndSplineSet
Validated: 1
AlternateSubs2: "'aalt' Access All Alternates lookup 0 subtable" dotlessj j.sc
AlternateSubs2: "'aalt' Access All Alternates in Latin lookup 0 subtable" dotlessj j.sc
Substitution2: "ccmp_sub_acc subtable" dotlessj
Substitution2: "'smcp' Lowercase to Small Capitals in Latin lookup 2 subtable" j.sc
EndChar

StartChar: k
Encoding: 107 107 83
Width: 580
VWidth: 0
GlyphClass: 2
Flags: W
TeX: 739 0
HStem: 0 21G<24 160.707 335.112 525> 534 20G<418.759 595> 719 20G<157.292 294>
AnchorPoint: "bot_acc" 247 -146 basechar 0
AnchorPoint: "dotbelow" 247 -146 basechar 0
AnchorPoint: "ogon_acc" 402 -146 basechar 0
AnchorPoint: "top_accu" 255 885 basechar 0
AnchorPoint: "dotabove" 447 700 basechar 0
LayerCount: 2
Fore
SplineSet
24 0 m 1
 161 739 l 1
 294 739 l 1
 211 293 l 1
 436 554 l 1
 595 554 l 1
 347 283 l 1
 525 0 l 1
 346 0 l 1
 205 259 l 1
 157 0 l 1
 24 0 l 1
EndSplineSet
Validated: 1
AlternateSubs2: "'aalt' Access All Alternates lookup 0 subtable" k.sc
AlternateSubs2: "'aalt' Access All Alternates in Latin lookup 0 subtable" k.sc
Substitution2: "'smcp' Lowercase to Small Capitals in Latin lookup 2 subtable" k.sc
EndChar

StartChar: l
Encoding: 108 108 84
Width: 240
VWidth: 0
GlyphClass: 2
Flags: W
TeX: 739 0
HStem: 0 21G<24 160.708> 719 20G<157.292 294>
VStem: 24 270
AnchorPoint: "bot_acc" 63 -146 basechar 0
AnchorPoint: "dotbelow" 63 -146 basechar 0
AnchorPoint: "ogon_acc" 34 -146 basechar 0
AnchorPoint: "top_accu" 255 885 basechar 0
AnchorPoint: "dotabove" 255 885 basechar 0
AnchorPoint: "ccmped" 413 675 basechar 0
LayerCount: 2
Fore
SplineSet
24 0 m 1
 161 739 l 1
 294 739 l 1
 157 0 l 1
 24 0 l 1
EndSplineSet
Validated: 1
AlternateSubs2: "'aalt' Access All Alternates lookup 0 subtable" l.sc
AlternateSubs2: "'aalt' Access All Alternates in Latin lookup 0 subtable" l.sc
Substitution2: "'smcp' Lowercase to Small Capitals in Latin lookup 2 subtable" l.sc
EndChar

StartChar: m
Encoding: 109 109 85
Width: 940
VWidth: 0
GlyphClass: 2
Flags: W
TeX: 554 0
HStem: 0 21G<24 160.736 373 509.736 722 858.688> 445 122<297.055 413.107 628.698 760.117> 534 20G<123.282 249>
VStem: 785 137<246 421.935>
AnchorPoint: "bot_acc" 412 -146 basechar 0
AnchorPoint: "dotbelow" 412 -146 basechar 0
AnchorPoint: "ogon_acc" 732 -146 basechar 0
AnchorPoint: "top_accl" 569 700 basechar 0
AnchorPoint: "dotabove" 569 700 basechar 0
LayerCount: 2
Fore
SplineSet
24 0 m 1xd0
 127 554 l 1
 249 554 l 1xb0
 239 502 l 1
 285 548 330 567 397 567 c 0
 463 567 514 547 542 481 c 1
 594 539 657 567 737 567 c 0
 854 567 922 506 922 402 c 0
 922 376 919 349 914 320 c 2
 855 0 l 1
 722 0 l 1
 778 304 l 2
 782 329 785 352 785 371 c 0
 785 414 751 445 702 445 c 0
 629 445 583 413 557 273 c 2
 506 0 l 1
 373 0 l 1
 429 304 l 2
 433 327 436 349 436 359 c 0
 436 421 403 445 348 445 c 0
 273 445 233 410 208 273 c 2
 157 0 l 1
 24 0 l 1xd0
EndSplineSet
Validated: 1
AlternateSubs2: "'aalt' Access All Alternates lookup 0 subtable" m.sc
AlternateSubs2: "'aalt' Access All Alternates in Latin lookup 0 subtable" m.sc
Substitution2: "'smcp' Lowercase to Small Capitals in Latin lookup 2 subtable" m.sc
EndChar

StartChar: n
Encoding: 110 110 86
Width: 600
VWidth: 0
GlyphClass: 2
Flags: W
TeX: 554 0
HStem: 0 21G<24 160.678 383 519.704> 445 122<308.173 420.663> 534 20G<123.282 250>
VStem: 442 141<245.773 423.28>
AnchorPoint: "bot_acc" 243 -146 basechar 0
AnchorPoint: "dotbelow" 243 -146 basechar 0
AnchorPoint: "ogon_acc" 393 -146 basechar 0
AnchorPoint: "top_accl" 399 700 basechar 0
AnchorPoint: "dotabove" 399 700 basechar 0
LayerCount: 2
Fore
SplineSet
24 0 m 1xd0
 127 554 l 1
 250 554 l 1xb0
 240 501 l 1
 301 550 344 567 405 567 c 0
 519 567 583 509 583 403 c 0
 583 375 579 341 571 297 c 2
 516 0 l 1
 383 0 l 1
 433 271 l 2
 439 304 442 334 442 363 c 0
 442 417 413 445 358 445 c 0
 288 445 233 415 205 261 c 2
 157 0 l 1
 24 0 l 1xd0
EndSplineSet
Validated: 1
AlternateSubs2: "'aalt' Access All Alternates lookup 0 subtable" n.sc
AlternateSubs2: "'aalt' Access All Alternates in Latin lookup 0 subtable" n.sc
Substitution2: "'smcp' Lowercase to Small Capitals in Latin lookup 2 subtable" n.sc
EndChar

StartChar: o
Encoding: 111 111 87
Width: 640
VWidth: 0
GlyphClass: 2
Flags: W
TeX: 554 0
HStem: -13 122<243.387 393.279> 445 122<297.185 447.781>
VStem: 46 137<166.994 328.682> 508 137<227.348 384.76>
AnchorPoint: "bot_acc" 269 -146 basechar 0
AnchorPoint: "dotbelow" 269 -146 basechar 0
AnchorPoint: "ogon_acc" 269 -146 basechar 0
AnchorPoint: "top_accl" 426 700 basechar 0
AnchorPoint: "dotabove" 426 700 basechar 0
LayerCount: 2
Fore
SplineSet
46 221 m 0
 46 404 213 567 401 567 c 0
 543 567 645 466 645 327 c 0
 645 148 476 -13 288 -13 c 0
 151 -13 46 88 46 221 c 0
183 244 m 0
 183 166 239 109 315 109 c 0
 415 109 508 206 508 309 c 0
 508 387 453 445 378 445 c 0
 276 445 183 349 183 244 c 0
EndSplineSet
Validated: 1
AlternateSubs2: "'aalt' Access All Alternates lookup 0 subtable" o.sc
AlternateSubs2: "'aalt' Access All Alternates in Latin lookup 0 subtable" o.sc
Substitution2: "'smcp' Lowercase to Small Capitals in Latin lookup 2 subtable" o.sc
EndChar

StartChar: p
Encoding: 112 112 88
Width: 660
VWidth: 0
GlyphClass: 2
Flags: W
TeX: 554 -185
HStem: -185 21G<-10 126.713> -13 122<255.594 410.881> 445 122<321.851 468.236> 534 20G<123.292 249>
VStem: 524 137<227.964 387.421>
AnchorPoint: "bot_acc" 253 -331 basechar 0
AnchorPoint: "dotbelow" 300 -146 basechar 0
AnchorPoint: "ogon_acc" 344 -146 basechar 0
AnchorPoint: "top_accl" 444 700 basechar 0
AnchorPoint: "dotabove" 444 700 basechar 0
LayerCount: 2
Fore
SplineSet
-10 -185 m 1xe8
 127 554 l 1
 249 554 l 1xd8
 237 489 l 1
 284 538 358 567 432 567 c 0
 564 567 661 483 661 344 c 0
 661 148 510 -13 325 -13 c 0
 257 -13 208 7 167 52 c 1
 123 -185 l 1
 -10 -185 l 1xe8
197 241 m 0
 197 165 254 109 333 109 c 0
 432 109 524 207 524 309 c 0
 524 383 476 445 393 445 c 0xe8
 288 445 197 350 197 241 c 0
EndSplineSet
Validated: 1
AlternateSubs2: "'aalt' Access All Alternates lookup 0 subtable" p.sc
AlternateSubs2: "'aalt' Access All Alternates in Latin lookup 0 subtable" p.sc
Substitution2: "'smcp' Lowercase to Small Capitals in Latin lookup 2 subtable" p.sc
EndChar

StartChar: q
Encoding: 113 113 89
Width: 660
VWidth: 0
GlyphClass: 2
Flags: W
TeX: 554 -185
HStem: -185 21G<414 550.708> -13 122<238.782 385.716> 445 122<296.054 455.01> 534 20G<558.056 684>
VStem: 47 137<165.629 332.063>
AnchorPoint: "bot_acc" 230 -331 basechar 0
AnchorPoint: "dotbelow" 251 -146 basechar 0
AnchorPoint: "ogon_acc" 424 -331 basechar 0
AnchorPoint: "top_accl" 421 700 basechar 0
AnchorPoint: "dotabove" 421 700 basechar 0
LayerCount: 2
Fore
SplineSet
47 223 m 0xd8
 47 404 207 567 386 567 c 0xe8
 456 567 519 541 548 483 c 1
 562 554 l 1
 684 554 l 1
 547 -185 l 1
 414 -185 l 1
 458 53 l 1
 410 11 344 -13 276 -13 c 0
 140 -13 47 83 47 223 c 0xd8
184 243 m 0
 184 161 235 109 316 109 c 0
 419 109 510 202 510 307 c 0
 510 390 458 445 380 445 c 0
 274 445 184 353 184 243 c 0
EndSplineSet
Validated: 1
AlternateSubs2: "'aalt' Access All Alternates lookup 0 subtable" q.sc
AlternateSubs2: "'aalt' Access All Alternates in Latin lookup 0 subtable" q.sc
Substitution2: "'smcp' Lowercase to Small Capitals in Latin lookup 2 subtable" q.sc
EndChar

StartChar: r
Encoding: 114 114 90
Width: 320
VWidth: 0
GlyphClass: 2
Flags: W
TeX: 554 0
HStem: 0 21G<24 160.701> 439 128<289.39 358> 534 20G<123.282 249>
AnchorPoint: "bot_acc" 63 -146 basechar 0
AnchorPoint: "dotbelow" 63 -146 basechar 0
AnchorPoint: "ogon_acc" 63 -146 basechar 0
AnchorPoint: "top_accl" 276 700 basechar 0
AnchorPoint: "dotabove" 276 700 basechar 0
LayerCount: 2
Fore
SplineSet
24 0 m 1xc0
 127 554 l 1
 249 554 l 1xa0
 239 500 l 1
 282 552 317 569 382 567 c 1
 358 439 l 1
 280 438 225 388 214 308 c 2
 157 0 l 1
 24 0 l 1xc0
EndSplineSet
Validated: 33
AlternateSubs2: "'aalt' Access All Alternates lookup 0 subtable" r.sc
AlternateSubs2: "'aalt' Access All Alternates in Latin lookup 0 subtable" r.sc
Substitution2: "'smcp' Lowercase to Small Capitals in Latin lookup 2 subtable" r.sc
EndChar

StartChar: s
Encoding: 115 115 91
Width: 440
VWidth: 0
GlyphClass: 2
Flags: W
TeX: 554 0
HStem: -13 122<168.829 268.13> 445 122<230.049 312.94>
VStem: 19 136<124.672 176> 80 137<360.007 432.048> 288 137<128.892 242>
AnchorPoint: "bot_acc" 168 -146 basechar 0
AnchorPoint: "dotbelow" 168 -146 basechar 0
AnchorPoint: "ogon_acc" 128 -146 basechar 0
AnchorPoint: "top_accl" 325 700 basechar 0
AnchorPoint: "dotabove" 325 700 basechar 0
LayerCount: 2
Fore
SplineSet
19 137 m 0xe8
 19 148 20 161 21 176 c 1
 155 176 l 1xe8
 156 132 178 109 217 109 c 0
 255 109 288 138 288 173 c 0
 288 199 274 210 206 234 c 0
 109 268 80 300 80 370 c 0
 80 476 181 567 300 567 c 0
 382 567 452 508 452 439 c 0
 452 429 451 416 449 401 c 1
 319 401 l 1
 318 430 303 445 275 445 c 0
 244 445 217 419 217 390 c 0xd8
 217 369 217 364 299 338 c 0
 394 307 425 275 425 209 c 0
 425 92 313 -13 188 -13 c 0
 88 -13 19 48 19 137 c 0xe8
EndSplineSet
Validated: 1
AlternateSubs2: "'aalt' Access All Alternates lookup 0 subtable" s.sc
AlternateSubs2: "'aalt' Access All Alternates in Latin lookup 0 subtable" s.sc
Substitution2: "'smcp' Lowercase to Small Capitals in Latin lookup 2 subtable" s.sc
EndChar

StartChar: t
Encoding: 116 116 92
Width: 300
VWidth: 0
GlyphClass: 2
Flags: W
TeX: 739 0
HStem: 0 21G<44 180.695> 433 121<82 124 280 337> 719 20G<177.324 314>
VStem: 44 316
AnchorPoint: "bot_acc" 91 -146 basechar 0
AnchorPoint: "dotbelow" 91 -146 basechar 0
AnchorPoint: "ogon_acc" 54 -146 basechar 0
AnchorPoint: "top_accl" 275 885 basechar 0
AnchorPoint: "dotabove" 275 885 basechar 0
AnchorPoint: "ccmped" 441 716 basechar 0
LayerCount: 2
Fore
SplineSet
44 0 m 1
 124 433 l 1
 59 433 l 1
 82 554 l 1
 147 554 l 1
 181 739 l 1
 314 739 l 1
 280 554 l 1
 360 554 l 1
 337 433 l 1
 257 433 l 1
 177 0 l 1
 44 0 l 1
EndSplineSet
Validated: 1
AlternateSubs2: "'aalt' Access All Alternates lookup 0 subtable" t.sc
AlternateSubs2: "'aalt' Access All Alternates in Latin lookup 0 subtable" t.sc
Substitution2: "'smcp' Lowercase to Small Capitals in Latin lookup 2 subtable" t.sc
EndChar

StartChar: u
Encoding: 117 117 93
Width: 600
VWidth: 0
GlyphClass: 2
Flags: W
TeX: 554 0
HStem: -13 122<219.155 336.091> 0 21G<394 520.718> 534 20G<121.296 258 483.322 620>
VStem: 58 140<130.612 308.047>
AnchorPoint: "bot_acc" 243 -146 basechar 0
AnchorPoint: "dotbelow" 243 -146 basechar 0
AnchorPoint: "ogon_acc" 394 -146 basechar 0
AnchorPoint: "top_accl" 400 700 basechar 0
AnchorPoint: "dotabove" 400 700 basechar 0
LayerCount: 2
Fore
SplineSet
58 152 m 0xb0
 58 178 62 214 70 257 c 2
 125 554 l 1
 258 554 l 1
 208 283 l 2
 201 248 197 214 198 187 c 0
 198 138 229 109 280 109 c 0xb0
 362 109 411 140 439 293 c 2
 487 554 l 1
 620 554 l 1
 517 0 l 1
 394 0 l 1x70
 404 53 l 1
 347 6 298 -13 230 -13 c 0
 119 -13 58 59 58 152 c 0xb0
EndSplineSet
Validated: 33
AlternateSubs2: "'aalt' Access All Alternates lookup 0 subtable" u.sc
AlternateSubs2: "'aalt' Access All Alternates in Latin lookup 0 subtable" u.sc
Substitution2: "'smcp' Lowercase to Small Capitals in Latin lookup 2 subtable" u.sc
EndChar

StartChar: v
Encoding: 118 118 94
Width: 560
VWidth: 0
GlyphClass: 2
Flags: W
TeX: 554 0
HStem: 0 21G<189.668 311.769> 534 20G<74 225.27 465.428 626>
AnchorPoint: "bot_acc" 220 -146 basechar 0
AnchorPoint: "dotbelow" 220 -146 basechar 0
AnchorPoint: "ogon_acc" 177 -146 basechar 0
AnchorPoint: "top_accl" 377 700 basechar 0
AnchorPoint: "dotabove" 377 700 basechar 0
LayerCount: 2
Fore
SplineSet
74 554 m 1
 222 554 l 1
 282 187 l 1
 476 554 l 1
 626 554 l 1
 300 0 l 1
 194 0 l 1
 74 554 l 1
EndSplineSet
Validated: 1
AlternateSubs2: "'aalt' Access All Alternates lookup 0 subtable" v.sc
AlternateSubs2: "'aalt' Access All Alternates in Latin lookup 0 subtable" v.sc
Substitution2: "'smcp' Lowercase to Small Capitals in Latin lookup 2 subtable" v.sc
EndChar

StartChar: w
Encoding: 119 119 95
Width: 800
VWidth: 0
GlyphClass: 2
Flags: W
TeX: 554 0
HStem: 0 21G<174.57 269.694 469.883 565.939> 534 20G<83 228.13 408.769 525.657 706.296 858>
AnchorPoint: "bot_acc" 341 -146 basechar 0
AnchorPoint: "dotbelow" 341 -146 basechar 0
AnchorPoint: "ogon_acc" 432 -146 basechar 0
AnchorPoint: "top_accl" 498 700 basechar 0
AnchorPoint: "dotabove" 498 700 basechar 0
LayerCount: 2
Fore
SplineSet
83 554 m 1
 226 554 l 1
 262 216 l 1
 418 554 l 1
 524 554 l 1
 552 216 l 1
 716 554 l 1
 858 554 l 1
 555 0 l 1
 472 0 l 1
 434 359 l 1
 260 0 l 1
 178 0 l 1
 83 554 l 1
EndSplineSet
Validated: 1
AlternateSubs2: "'aalt' Access All Alternates lookup 0 subtable" w.sc
AlternateSubs2: "'aalt' Access All Alternates in Latin lookup 0 subtable" w.sc
Substitution2: "'smcp' Lowercase to Small Capitals in Latin lookup 2 subtable" w.sc
EndChar

StartChar: x
Encoding: 120 120 96
Width: 560
VWidth: 0
GlyphClass: 2
Flags: W
TeX: 554 0
HStem: 0 21G<-29 147 355.474 524> 534 20G<101 259.263 433.551 599>
AnchorPoint: "bot_acc" 220 -146 basechar 0
AnchorPoint: "dotbelow" 220 -146 basechar 0
AnchorPoint: "ogon_acc" 401 -146 basechar 0
AnchorPoint: "top_accl" 377 700 basechar 0
AnchorPoint: "dotabove" 377 700 basechar 0
LayerCount: 2
Fore
SplineSet
-29 0 m 1
 221 286 l 1
 101 554 l 1
 251 554 l 1
 320 387 l 1
 449 554 l 1
 599 554 l 1
 380 286 l 1
 524 0 l 1
 364 0 l 1
 283 190 l 1
 131 0 l 1
 -29 0 l 1
EndSplineSet
Validated: 1
AlternateSubs2: "'aalt' Access All Alternates lookup 0 subtable" x.sc
AlternateSubs2: "'aalt' Access All Alternates in Latin lookup 0 subtable" x.sc
Substitution2: "'smcp' Lowercase to Small Capitals in Latin lookup 2 subtable" x.sc
EndChar

StartChar: y
Encoding: 121 121 97
Width: 580
VWidth: 0
GlyphClass: 2
Flags: W
TeX: 554 -185
HStem: -185 21G<43 198.314> 534 20G<79 234.12 476.802 641>
AnchorPoint: "bot_acc" 195 -331 basechar 0
AnchorPoint: "dotbelow" 385 -146 basechar 0
AnchorPoint: "ogon_acc" 63 -331 basechar 0
AnchorPoint: "top_accl" 387 700 basechar 0
AnchorPoint: "dotabove" 387 700 basechar 0
LayerCount: 2
Fore
SplineSet
43 -185 m 1
 189 52 l 1
 79 554 l 1
 231 554 l 1
 287 195 l 1
 488 554 l 1
 641 554 l 1
 186 -185 l 1
 43 -185 l 1
EndSplineSet
Validated: 1
AlternateSubs2: "'aalt' Access All Alternates lookup 0 subtable" y.sc
AlternateSubs2: "'aalt' Access All Alternates in Latin lookup 0 subtable" y.sc
Substitution2: "'smcp' Lowercase to Small Capitals in Latin lookup 2 subtable" y.sc
EndChar

StartChar: z
Encoding: 122 122 98
Width: 460
VWidth: 0
GlyphClass: 2
Flags: W
TeX: 554 0
HStem: 0 118<172 413> 436 118<122 317>
AnchorPoint: "bot_acc" 180 -146 basechar 0
AnchorPoint: "dotbelow" 180 -146 basechar 0
AnchorPoint: "ogon_acc" 290 -146 basechar 0
AnchorPoint: "top_accl" 337 700 basechar 0
AnchorPoint: "dotabove" 337 700 basechar 0
LayerCount: 2
Fore
SplineSet
-10 0 m 1
 12 118 l 1
 317 436 l 1
 100 436 l 1
 122 554 l 1
 498 554 l 1
 476 436 l 1
 172 118 l 1
 435 118 l 1
 413 0 l 1
 -10 0 l 1
EndSplineSet
Validated: 1
AlternateSubs2: "'aalt' Access All Alternates lookup 0 subtable" z.sc
AlternateSubs2: "'aalt' Access All Alternates in Latin lookup 0 subtable" z.sc
Substitution2: "'smcp' Lowercase to Small Capitals in Latin lookup 2 subtable" z.sc
EndChar

StartChar: asciitilde
Encoding: 126 126 99
Width: 600
VWidth: 0
Flags: W
TeX: 421 0
HStem: 230 117<383.089 491.066> 296 116<176.133 290.111>
LayerCount: 2
Fore
SplineSet
75 289 m 1x40
 144 378 182 412 247 412 c 0x40
 270 412 297 405 319 396 c 2
 382 369 l 2
 431 348 432 346 448 347 c 0
 471 347 504 374 539 421 c 1
 589 347 l 1
 522 262 476 230 424 230 c 0x80
 402 230 370 239 336 254 c 2
 286 276 l 2
 247 293 241 296 226 296 c 0
 208 296 192 289 175 274 c 0
 168 268 167 268 124 214 c 1
 75 289 l 1x40
EndSplineSet
Validated: 33
EndChar

StartChar: Euro
Encoding: 128 8364 100
Width: 560
VWidth: 0
Flags: W
TeX: 739 0
HStem: -11 116<236.819 418.163> 260 88<-22 38 180 402> 393 88<1 55 212 477> 640 111<321.724 515.238>
VStem: 38 131<179.703 260>
LayerCount: 2
Fore
SplineSet
-63 260 m 1
 -22 348 l 1
 46 348 l 1
 50 370 50 373 55 393 c 1
 -39 393 l 1
 1 481 l 1
 80 481 l 1
 160 674 273 751 436 751 c 0
 517 751 569 734 643 684 c 1
 584 581 l 1
 524 621 470 640 415 640 c 0
 322 640 265 596 212 481 c 1
 527 481 l 1
 477 393 l 1
 189 393 l 1
 180 348 l 1
 452 348 l 1
 402 260 l 1
 169 260 l 1
 177 165 224 105 318 105 c 0
 355 105 393 115 473 145 c 1
 450 22 l 1
 387 -2 342 -11 284 -11 c 0
 227 -11 170 6 128 35 c 0
 67 77 42 139 38 260 c 1
 -63 260 l 1
EndSplineSet
Validated: 1
EndChar

StartChar: quotesinglbase
Encoding: 275 8218 101
Width: 280
VWidth: 0
Flags: W
TeX: 128 -140
HStem: -140 268<-66 -39>
VStem: 16 182
LayerCount: 2
Fore
SplineSet
16 -140 m 1
 28 -73 l 1
 76 -66 98 -44 100 0 c 1
 42 0 l 1
 66 128 l 1
 198 128 l 1
 173 -7 l 2
 157 -91 93 -140 27 -140 c 2
 16 -140 l 1
EndSplineSet
Validated: 1
EndChar

StartChar: florin
Encoding: 276 402 102
Width: 560
VWidth: 0
Flags: W
TeX: 820 -149
HStem: -149 123<-33 77.0923> 470 112<221 275 442 494> 700 120<501.891 575>
LayerCount: 2
Fore
SplineSet
-74 -142 m 1
 -33 -26 l 1
 -21 -26 l 2
 -11 -27 -3 -27 1 -27 c 0
 76 -27 108 6 152 128 c 2
 275 470 l 1
 181 470 l 1
 221 582 l 1
 316 582 l 1
 326 608 l 2
 357 688 369 709 405 744 c 0
 453 790 520 820 578 820 c 0
 589 820 598 819 616 817 c 1
 575 700 l 1
 498 700 479 663 442 582 c 1
 534 582 l 1
 494 470 l 1
 401 470 l 1
 271 106 l 2
 231 -7 206 -52 162 -87 c 0
 109 -129 51 -149 -20 -149 c 0
 -43 -149 -56 -147 -74 -142 c 1
EndSplineSet
Validated: 1
EndChar

StartChar: quotedblbase
Encoding: 132 8222 103
Width: 480
VWidth: 0
GlyphClass: 3
Flags: W
TeX: 128 -145
HStem: -145 67<27 76.9384 234 282.174> 0 128<66 100 273 307>
LayerCount: 2
Fore
SplineSet
15 -145 m 1
 27 -78 l 1
 73 -72 96 -48 100 0 c 1
 42 0 l 1
 66 128 l 1
 198 128 l 1
 172 -12 l 2
 159 -87 95 -145 15 -145 c 1
222 -145 m 1
 234 -78 l 1
 280 -72 303 -48 307 0 c 1
 249 0 l 1
 273 128 l 1
 405 128 l 1
 379 -12 l 2
 369 -87 302 -145 222 -145 c 1
EndSplineSet
Validated: 1
Ligature2: "'dlig' Discretionary Ligatures in Latin lookup 12 subtable" comma comma
EndChar

StartChar: dagger
Encoding: 134 8224 104
Width: 560
VWidth: 0
Flags: W
TeX: 739 0
HStem: 436 118<121 261 416 555> 719 20G<313.324 450>
LayerCount: 2
Fore
SplineSet
99 436 m 1
 121 554 l 1
 283 554 l 1
 317 739 l 1
 450 739 l 1
 416 554 l 1
 577 554 l 1
 555 436 l 1
 394 436 l 1
 289 -128 l 1
 156 -128 l 1
 261 436 l 1
 99 436 l 1
EndSplineSet
Validated: 1
EndChar

StartChar: daggerdbl
Encoding: 135 8225 105
Width: 560
VWidth: 0
Flags: W
TeX: 739 -250
HStem: 260 118<88 228 383 524> 473 118<127 267 422 563> 719 20G<313.216 450>
LayerCount: 2
Fore
SplineSet
66 260 m 1
 88 378 l 1
 250 378 l 1
 267 473 l 1
 105 473 l 1
 127 591 l 1
 289 591 l 1
 317 739 l 1
 450 739 l 1
 422 591 l 1
 585 591 l 1
 563 473 l 1
 400 473 l 1
 383 378 l 1
 546 378 l 1
 524 260 l 1
 361 260 l 1
 289 -128 l 1
 156 -128 l 1
 228 260 l 1
 66 260 l 1
EndSplineSet
Validated: 1
EndChar

StartChar: perthousand
Encoding: 137 8240 106
Width: 1280
VWidth: 0
Flags: W
TeX: 739 0
HStem: -13 107<593.85 696.536 1005.73 1108.54> 0 21G<193 306.989> 242 106<611.786 716.527 1023.79 1128.53> 391 107<217.029 319.938> 646 106<234.983 339.689> 719 20G<623.038 738>
VStem: 94 108<512.047 612.032> 354 108<532.62 631.66> 471 108<108.936 209.388> 731 108<128.598 225.726> 883 108<108.821 209.388> 1143 108<128.598 225.726>
LayerCount: 2
Fore
SplineSet
94 540 m 0x3bf0
 94 651 199 752 312 752 c 0
 398 752 462 689 462 605 c 0
 462 493 357 391 242 391 c 0
 157 391 94 454 94 540 c 0x3bf0
193 0 m 1x77f0
 635 739 l 1
 738 739 l 1
 295 0 l 1
 193 0 l 1x77f0
202 562 m 0
 202 523 227 498 265 498 c 0
 310 498 354 541 354 585 c 0
 354 620 327 646 291 646 c 0x3bf0
 247 646 202 604 202 562 c 0
471 133 m 0
 471 247 574 348 689 348 c 0
 775 348 839 285 839 201 c 0
 839 88 734 -13 618 -13 c 0xb3f0
 535 -13 471 51 471 133 c 0
579 154 m 0
 579 120 605 94 640 94 c 0
 687 94 731 137 731 183 c 0
 731 215 703 242 668 242 c 0
 621 242 579 200 579 154 c 0
883 133 m 0
 883 247 986 348 1101 348 c 0
 1187 348 1251 285 1251 201 c 0
 1251 88 1146 -13 1030 -13 c 0
 946 -13 883 50 883 133 c 0
991 154 m 0
 991 120 1017 94 1052 94 c 0
 1099 94 1143 137 1143 183 c 0
 1143 215 1115 242 1080 242 c 0
 1033 242 991 200 991 154 c 0
EndSplineSet
Validated: 1
EndChar

StartChar: guilsinglleft
Encoding: 277 8249 107
Width: 240
VWidth: 0
Flags: W
TeX: 469 0
VStem: 55 182
LayerCount: 2
Fore
SplineSet
55 239 m 1
 74 339 l 1
 237 469 l 1
 214 346 l 1
 136 289 l 1
 193 231 l 1
 170 108 l 1
 55 239 l 1
EndSplineSet
Validated: 1
EndChar

StartChar: OE
Encoding: 141 338 108
Width: 1060
VWidth: 0
Flags: W
TeX: 739 0
HStem: -13 133<313.52 507.791> 0 132<781 974> 303 132<837 1019> 607 132<870 1087> 619 133<401.579 595.095>
VStem: 70 140<225.624 424.026>
LayerCount: 2
Fore
SplineSet
70 290 m 0xa4
 70 538 280 752 523 752 c 0xac
 622 752 699 718 740 656 c 1
 755 739 l 1
 1111 739 l 1
 1087 607 l 1
 870 607 l 1
 837 435 l 1
 1043 435 l 1
 1019 303 l 1
 813 303 l 1
 781 132 l 1
 998 132 l 1
 974 0 l 1
 618 0 l 1x74
 633 82 l 1
 571 23 478 -13 388 -13 c 0
 201 -13 70 112 70 290 c 0xa4
210 318 m 0
 210 203 290 120 409 120 c 0
 565 120 695 257 695 421 c 0
 695 539 617 619 501 619 c 0
 342 619 210 472 210 318 c 0
EndSplineSet
Validated: 1
AlternateSubs2: "'aalt' Access All Alternates lookup 0 subtable" oe.sc
AlternateSubs2: "'aalt' Access All Alternates in Latin lookup 0 subtable" oe.sc
Substitution2: "'c2sc' Capitals to Small Capitals in Latin lookup 13 subtable" oe.sc
Position2: "'cpsp' Capital Spacing in Latin lookup 13 subtable" dx=7 dy=0 dh=14 dv=0
EndChar

StartChar: quoteleft
Encoding: 145 8216 109
Width: 280
VWidth: 0
Flags: W
TeX: 739 0
HStem: 672 67<251.556 300>
VStem: 131 182
LayerCount: 2
Fore
SplineSet
131 466 m 1
 157 606 l 1
 166 684 230 738 313 739 c 1
 300 672 l 1
 250 661 233 642 228 594 c 1
 286 594 l 1
 262 466 l 1
 131 466 l 1
EndSplineSet
Validated: 1
EndChar

StartChar: quoteright
Encoding: 146 8217 110
Width: 280
VWidth: 0
Flags: W
TeX: 739 0
HStem: 466 67<141 189.795> 719 20G<176.25 312>
VStem: 129 183
LayerCount: 2
Fore
SplineSet
129 466 m 1
 141 533 l 1
 187 539 210 563 214 611 c 1
 156 611 l 1
 180 739 l 1
 312 739 l 1
 286 599 l 1
 280 523 209 466 129 466 c 1
EndSplineSet
Validated: 1
EndChar

StartChar: quotedblleft
Encoding: 147 8220 111
Width: 480
VWidth: 0
GlyphClass: 3
Flags: W
TeX: 739 0
HStem: 466 128<226 260 433 467> 672 67<249.556 298 456.556 505>
LayerCount: 2
Fore
SplineSet
129 466 m 1
 155 606 l 1
 164 684 228 738 311 739 c 1
 298 672 l 1
 248 661 231 642 226 594 c 1
 284 594 l 1
 260 466 l 1
 129 466 l 1
336 466 m 1
 362 606 l 1
 371 684 435 738 518 739 c 1
 505 672 l 1
 455 661 438 642 433 594 c 1
 491 594 l 1
 467 466 l 1
 336 466 l 1
EndSplineSet
Validated: 1
Ligature2: "'dlig' Discretionary Ligatures in Latin lookup 12 subtable" quoteleft quoteleft
EndChar

StartChar: quotedblright
Encoding: 148 8221 112
Width: 480
VWidth: 0
GlyphClass: 3
Flags: W
TeX: 739 0
HStem: 466 67<139 187.795 346 394.795> 611 128<178 212 385 419>
LayerCount: 2
Fore
SplineSet
127 466 m 1
 139 533 l 1
 185 539 208 563 212 611 c 1
 154 611 l 1
 178 739 l 1
 310 739 l 1
 284 599 l 1
 278 525 207 464 127 466 c 1
334 466 m 1
 346 533 l 1
 392 539 415 563 419 611 c 1
 361 611 l 1
 385 739 l 1
 517 739 l 1
 491 599 l 1
 485 525 414 464 334 466 c 1
EndSplineSet
Validated: 33
Ligature2: "'dlig' Discretionary Ligatures in Latin lookup 12 subtable" quoteright quoteright
EndChar

StartChar: endash
Encoding: 150 8211 113
Width: 500
VWidth: 0
GlyphClass: 3
Flags: W
TeX: 347 0
HStem: 229 118<40 518>
LayerCount: 2
Fore
SplineSet
18 229 m 1
 40 347 l 1
 540 347 l 1
 518 229 l 1
 18 229 l 1
EndSplineSet
Validated: 1
Ligature2: "'dlig' Discretionary Ligatures in Latin lookup 12 subtable" hyphen hyphen
EndChar

StartChar: emdash
Encoding: 151 8212 114
Width: 1000
VWidth: 0
GlyphClass: 3
Flags: W
TeX: 347 0
HStem: 229 118<40 1018>
LayerCount: 2
Fore
SplineSet
18 229 m 1
 40 347 l 1
 1040 347 l 1
 1018 229 l 1
 18 229 l 1
EndSplineSet
Validated: 1
Ligature2: "'dlig' Discretionary Ligatures in Latin lookup 12 subtable" hyphen hyphen hyphen hyphen
EndChar

StartChar: guilsinglright
Encoding: 278 8250 115
Width: 240
VWidth: 0
Flags: W
TeX: 469 0
VStem: 68 182
LayerCount: 2
Fore
SplineSet
68 108 m 1
 91 231 l 1
 170 289 l 1
 112 346 l 1
 135 469 l 1
 250 339 l 1
 231 239 l 1
 68 108 l 1
EndSplineSet
Validated: 1
EndChar

StartChar: oe
Encoding: 157 339 116
Width: 1080
VWidth: 0
Flags: W
TeX: 554 0
HStem: -13 122<242.959 397.448 676.268 841.79> 218 118<639 941> 445 122<293.374 451.661 723.099 893.013>
VStem: 46 137<169.235 331.59> 941 134<337.759 393.777>
CounterMasks: 1 e0
LayerCount: 2
Fore
SplineSet
46 222 m 0
 46 404 210 567 392 567 c 0
 489 567 549 532 596 456 c 1
 679 536 745 567 833 567 c 0
 976 567 1075 477 1075 347 c 0
 1075 306 1072 287 1052 218 c 1
 623 218 l 1
 632 146 689 109 756 109 c 0
 803 109 856 131 887 163 c 1
 1028 163 l 1
 988 68 853 -13 734 -13 c 0
 641 -13 564 30 530 100 c 1
 465 25 384 -13 289 -13 c 0
 145 -13 46 82 46 222 c 0
183 243 m 0
 183 166 239 109 315 109 c 0
 428 109 508 214 508 311 c 0
 508 391 455 445 377 445 c 0
 273 445 183 352 183 243 c 0
639 336 m 1
 941 336 l 1
 930 411 890 445 812 445 c 0
 735 445 680 410 639 336 c 1
EndSplineSet
Validated: 1
AlternateSubs2: "'aalt' Access All Alternates lookup 0 subtable" oe.sc
AlternateSubs2: "'aalt' Access All Alternates in Latin lookup 0 subtable" oe.sc
Substitution2: "'smcp' Lowercase to Small Capitals in Latin lookup 2 subtable" oe.sc
EndChar

StartChar: cent
Encoding: 279 162 117
Width: 560
VWidth: 0
Flags: W
TeX: 715 0
HStem: 39 231<240.782 320> 489 226<321 400.459>
VStem: 76 137<297.051 428.294>
LayerCount: 2
Fore
SplineSet
76 333 m 0
 76 461 169 579 301 611 c 1
 321 715 l 1
 446 715 l 1
 426 611 l 1
 507 592 561 525 563 443 c 1
 421 443 l 1
 410 468 373 489 340 489 c 0
 271 489 213 429 213 358 c 0
 213 305 249 270 303 270 c 0
 333 270 351 278 393 310 c 1
 539 310 l 1
 484 218 427 172 341 148 c 1
 320 39 l 1
 195 39 l 1
 216 148 l 1
 124 169 76 246 76 333 c 0
EndSplineSet
Validated: 1
AlternateSubs2: "'aalt' Access All Alternates lookup 0 subtable" cent.oldstyle
AlternateSubs2: "'aalt' Access All Alternates in Latin lookup 0 subtable" cent.oldstyle
Substitution2: "'onum' Oldstyle Figures in Latin lookup 3 subtable" cent.oldstyle
EndChar

StartChar: sterling
Encoding: 280 163 118
Width: 560
VWidth: 0
Flags: W
TeX: 739 0
HStem: 0 125<33 186.795 314 394.499> 310 125<51 109 328 435> 630 122<305.323 423.358>
VStem: 103 137<435.748 561.766> 207 136<144.177 289.117> 441 135<176.383 274> 449 137<541 603.654>
LayerCount: 2
Fore
SplineSet
10 0 m 1xec
 33 125 l 1
 173 125 l 1
 195 155 207 189 207 224 c 0xec
 207 254 195 282 169 310 c 1
 27 310 l 1
 51 435 l 1
 109 435 l 1
 104 451 103 458 103 474 c 0
 103 620 239 752 388 752 c 0
 501 752 586 675 586 572 c 0
 586 565 585 555 584 541 c 1
 449 541 l 1
 449 601 409 630 370 630 c 0
 302 630 240 563 240 489 c 0xf2
 240 470 244 451 252 435 c 1
 459 435 l 1
 435 310 l 1
 328 310 l 1
 339 280 343 261 343 234 c 0
 343 198 337 175 314 125 c 1
 324 125 l 2
 398 125 439 172 441 274 c 1
 573 274 l 1
 575 260 576 253 576 243 c 0
 576 192 538 118 490 73 c 0
 432 19 375 0 271 0 c 2
 10 0 l 1xec
EndSplineSet
Validated: 1
EndChar

StartChar: currency
Encoding: 164 164 119
Width: 560
VWidth: 0
Flags: W
TeX: 654 0
HStem: 153 120<236.259 374.977> 525 121<274.968 415.157>
VStem: 72 123<313.367 448.059> 454 123<350.456 486.085>
LayerCount: 2
Fore
SplineSet
39 229 m 1
 90 272 l 1
 77 300 72 321 72 346 c 0
 72 411 96 477 138 529 c 1
 103 574 l 1
 198 654 l 1
 235 610 l 1
 278 634 324 646 369 646 c 0
 415 646 458 634 495 610 c 1
 548 654 l 1
 610 572 l 1
 560 529 l 1
 573 495 577 473 577 446 c 0
 577 382 565 342 512 272 c 1
 546 229 l 1
 454 148 l 1
 417 190 l 1
 378 168 320 153 275 153 c 0
 235 153 191 167 155 190 c 1
 104 148 l 1
 39 229 l 1
195 371 m 0
 195 319 244 273 299 273 c 0
 380 273 454 344 454 422 c 0
 454 480 409 525 351 525 c 0
 278 525 195 464 195 371 c 0
EndSplineSet
Validated: 1
EndChar

StartChar: yen
Encoding: 281 165 120
Width: 560
VWidth: 0
Flags: W
TeX: 739 0
HStem: 0 21G<180 316.743> 187 87<37 215 364 540> 380 87<67 164 505 584> 719 20G<74 228.689 528.979 696>
LayerCount: 2
Fore
SplineSet
21 187 m 1
 37 274 l 1
 231 274 l 1
 195 380 l 1
 51 380 l 1
 67 467 l 1
 164 467 l 1
 74 739 l 1
 223 739 l 1
 320 398 l 1
 542 739 l 1
 696 739 l 1
 505 467 l 1
 600 467 l 1
 584 380 l 1
 440 380 l 1
 364 274 l 1
 556 274 l 1
 540 187 l 1
 348 187 l 1
 313 0 l 1
 180 0 l 1
 215 187 l 1
 21 187 l 1
EndSplineSet
Validated: 1
EndChar

StartChar: section
Encoding: 167 167 121
Width: 560
VWidth: 0
Flags: W
TeX: 739 -250
HStem: -157 122<191.396 326.357> 563 21G<449 577.5> 630 122<310.743 435.906>
VStem: 38 132<-13.2939 55> 168 128<530.269 614.573> 358 128<-5.58522 77.6374> 432 128<239.749 345>
LayerCount: 2
Fore
SplineSet
38 9 m 0xf4
 38 21 39 37 41 55 c 1
 174 55 l 1
 171 43 170 33 170 24 c 0
 170 -9 209 -35 258 -35 c 0
 313 -35 358 -1 358 42 c 0xf4
 358 64 348 73 296 103 c 2
 148 187 l 2
 93 218 72 253 72 310 c 0
 72 388 108 447 182 493 c 1
 171 515 168 530 168 555 c 0
 168 667 271 752 405 752 c 0
 514 752 578 693 578 592 c 0
 578 585 578 575 577 563 c 1
 451 563 l 1
 447 613 428 630 374 630 c 0
 326 630 296 608 296 571 c 0
 296 548 310 531 345 512 c 2
 494 431 l 2
 537 408 560 369 560 321 c 0xea
 560 262 538 213 455 150 c 1
 475 128 486 97 486 63 c 0
 486 -53 375 -157 231 -157 c 0
 109 -157 38 -81 38 9 c 0xf4
192 354 m 2
 193 342 l 2
 195 322 211 308 243 291 c 2
 381 215 l 1
 416 240 432 262 432 286 c 0xe2
 432 306 423 315 380 339 c 2
 245 413 l 1
 212 392 192 368 192 354 c 2
EndSplineSet
Validated: 1
EndChar

StartChar: ordfeminine
Encoding: 282 170 122
Width: 360
VWidth: 0
Flags: W
TeX: 739 0
HStem: 312 70<73 375> 433 73<204.756 299.043> 679 73<229.723 334.665> 721 20G<379.897 450>
VStem: 108 79<524.322 634.49>
LayerCount: 2
Fore
SplineSet
60 312 m 1xc8
 73 382 l 1
 388 382 l 1
 375 312 l 1
 60 312 l 1xc8
108 560 m 0
 108 663 198 752 291 752 c 0xe8
 327 752 357 734 376 702 c 1
 384 741 l 1
 450 741 l 1xd8
 394 443 l 1
 328 443 l 1
 336 484 l 1
 306 452 263 433 224 433 c 0
 154 433 108 489 108 560 c 0
187 576 m 0
 187 536 215 506 252 506 c 0
 305 506 352 556 352 613 c 0
 352 650 323 679 285 679 c 0
 235 679 187 628 187 576 c 0
EndSplineSet
Validated: 1
EndChar

StartChar: guillemotleft
Encoding: 171 171 123
Width: 460
VWidth: 0
Flags: W
TeX: 469 0
LayerCount: 2
Fore
SplineSet
55 239 m 1
 74 339 l 1
 237 469 l 1
 214 346 l 1
 136 289 l 1
 193 231 l 1
 170 108 l 1
 55 239 l 1
268 239 m 1
 287 339 l 1
 450 469 l 1
 427 346 l 1
 349 289 l 1
 406 231 l 1
 383 108 l 1
 268 239 l 1
EndSplineSet
Validated: 1
EndChar

StartChar: degree
Encoding: 176 176 124
Width: 400
VWidth: 0
Flags: W
TeX: 739 0
HStem: 427 69<229.79 346.495> 670 69<230.832 345.557>
VStem: 130 69<526.28 638.969> 378 69<528.552 637.842>
LayerCount: 2
Fore
SplineSet
130 584 m 0
 130 670 201 739 291 739 c 0
 376 739 447 668 447 583 c 0
 447 497 376 427 288 427 c 0
 200 427 130 497 130 584 c 0
199 584 m 0
 199 535 239 496 288 496 c 0
 337 496 378 535 378 583 c 0
 378 630 337 670 290 670 c 0
 239 670 199 632 199 584 c 0
EndSplineSet
Validated: 1
EndChar

StartChar: two.superior
Encoding: 283 178 125
Width: 336
VWidth: 0
Flags: W
TeX: 739 0
HStem: 296 82<186 349> 666 80<211.006 310.622>
VStem: 90 89<581 629.535> 318 92<562.093 657.862>
LayerCount: 2
Fore
SplineSet
40 296 m 1
 55 371 l 1
 248 518 l 2
 298 556 318 584 318 615 c 0
 318 647 298 666 265 666 c 0
 222 666 194 639 179 581 c 1
 90 581 l 1
 113 694 187 746 280 746 c 0
 356 746 410 698 410 630 c 0
 410 564 373 509 290 451 c 2
 186 378 l 1
 364 378 l 1
 349 296 l 1
 40 296 l 1
EndSplineSet
Validated: 1
EndChar

StartChar: three.superior
Encoding: 284 179 126
Width: 336
VWidth: 0
Flags: W
TeX: 739 0
HStem: 288 80<157.965 259.962> 505 84<209 279.095> 666 80<222.628 291.141>
VStem: 52 93<379.913 436> 291 92<396.981 491.273 600.079 664.381>
LayerCount: 2
Fore
SplineSet
52 411 m 0
 52 416 53 425 54 436 c 1
 145 436 l 1
 145 428 l 2
 145 392 168 368 203 368 c 0
 250 368 291 406 291 449 c 0
 291 488 266 505 193 505 c 1
 209 589 l 1
 278 589 293 612 293 637 c 0
 293 655 280 666 259 666 c 0
 236 666 221 652 216 627 c 1
 124 627 l 1
 142 700 198 746 272 746 c 0
 338 746 385 704 385 645 c 0
 385 606 368 577 329 551 c 1
 367 531 383 505 383 465 c 0
 383 370 293 288 188 288 c 0
 109 288 52 340 52 411 c 0
EndSplineSet
Validated: 1
EndChar

StartChar: mu
Encoding: 181 956 127
Width: 576
VWidth: 0
Flags: W
TeX: 554 -185
HStem: -185 21G<-10 126.713> -13 122<248.693 354.944> 0 21G<394 520.718> 534 20G<123.292 260 483.322 620>
LayerCount: 2
Fore
SplineSet
-10 -185 m 1xd0
 127 554 l 1
 260 554 l 1
 208 276 l 2
 205 261 204 248 204 239 c 0
 204 163 248 109 309 109 c 0xd0
 345 109 380 129 401 160 c 0
 418 186 422 200 439 293 c 2
 487 554 l 1
 620 554 l 1
 517 0 l 1
 394 0 l 1xb0
 404 53 l 1
 363 6 327 -13 278 -13 c 0
 230 -13 196 7 167 52 c 1
 123 -185 l 1
 -10 -185 l 1xd0
EndSplineSet
Validated: 1
AlternateSubs2: "'aalt' Access All Alternates lookup 0 subtable" uni00B5
AlternateSubs2: "'aalt' Access All Alternates in Latin lookup 0 subtable" uni00B5
Substitution2: "'ss03' Style Set 3 in Latin lookup 17 subtable" uni00B5
Substitution2: "'ss01' Style Set 1 in Latin lookup 15 subtable" uni00B5
Substitution2: "'salt' Stylistic Alternatives in Latin lookup 14 subtable" uni00B5
EndChar

StartChar: paragraph
Encoding: 182 182 128
Width: 600
VWidth: 0
Flags: W
TeX: 739 -128
HStem: 632 107<429 512>
LayerCount: 2
Fore
SplineSet
103 489 m 0
 103 558 136 630 187 675 c 0
 240 721 304 739 416 739 c 2
 634 739 l 1
 473 -128 l 1
 371 -128 l 1
 512 632 l 1
 429 632 l 1
 288 -128 l 1
 187 -128 l 1
 272 330 l 1
 162 336 103 392 103 489 c 0
EndSplineSet
Validated: 1
AlternateSubs2: "'aalt' Access All Alternates lookup 0 subtable" paragraph.alt
AlternateSubs2: "'aalt' Access All Alternates in Latin lookup 0 subtable" paragraph.alt
Substitution2: "'ss02' Style Set 2 in Latin lookup 16 subtable" paragraph.alt
Substitution2: "'ss01' Style Set 1 in Latin lookup 15 subtable" paragraph.alt
Substitution2: "'salt' Stylistic Alternatives in Latin lookup 14 subtable" paragraph.alt
EndChar

StartChar: one.superior
Encoding: 285 185 129
Width: 336
VWidth: 0
Flags: W
TeX: 739 0
HStem: 657 82<194 246>
VStem: 179 169
LayerCount: 2
Fore
SplineSet
179 296 m 1
 246 657 l 1
 179 657 l 1
 194 739 l 1
 348 739 l 1
 266 296 l 1
 179 296 l 1
EndSplineSet
Validated: 1
EndChar

StartChar: ordmasculine
Encoding: 286 186 130
Width: 360
VWidth: 0
Flags: W
TeX: 739 0
HStem: 313 70<73 367> 444 73<197.79 309.355> 682 70<223.466 328.983>
VStem: 108 74<533.794 640.444> 347 74<555.516 664.613>
LayerCount: 2
Fore
SplineSet
60 313 m 1
 73 383 l 1
 380 383 l 1
 367 313 l 1
 60 313 l 1
108 569 m 0
 108 666 196 752 295 752 c 0
 371 752 421 701 421 625 c 0
 421 530 333 444 236 444 c 0
 165 444 108 499 108 569 c 0
182 582 m 0
 182 544 210 517 250 517 c 0
 301 517 347 562 347 612 c 0
 347 652 319 682 281 682 c 0
 229 682 182 634 182 582 c 0
EndSplineSet
Validated: 1
EndChar

StartChar: guillemotright
Encoding: 187 187 131
Width: 460
VWidth: 0
Flags: W
TeX: 469 0
LayerCount: 2
Fore
SplineSet
68 108 m 1
 91 231 l 1
 170 289 l 1
 112 346 l 1
 135 469 l 1
 250 339 l 1
 231 239 l 1
 68 108 l 1
281 108 m 1
 304 231 l 1
 383 289 l 1
 325 346 l 1
 348 469 l 1
 463 339 l 1
 444 239 l 1
 281 108 l 1
EndSplineSet
Validated: 1
EndChar

StartChar: onequarter
Encoding: 287 188 132
Width: 840
VWidth: 0
GlyphClass: 3
Flags: W
TeX: 739 0
HStem: 0 21G<179 285.989 664 758.692> 65 77<588 676 781 815> 657 82<194 246>
LayerCount: 2
Fore
SplineSet
179 0 m 1
 622 739 l 1
 717 739 l 1
 274 0 l 1
 179 0 l 1
179 296 m 1
 246 657 l 1
 179 657 l 1
 194 739 l 1
 348 739 l 1
 266 296 l 1
 179 296 l 1
478 65 m 1
 491 133 l 1
 761 443 l 1
 837 443 l 1
 781 142 l 1
 829 142 l 1
 815 65 l 1
 767 65 l 1
 755 0 l 1
 664 0 l 1
 676 65 l 1
 478 65 l 1
588 142 m 1
 690 142 l 1
 718 294 l 1
 588 142 l 1
EndSplineSet
Validated: 1
Ligature2: "'frac' Diagonal Fractions in Latin lookup 20 subtable" one fraction four
Ligature2: "'frac' Diagonal Fractions in Latin lookup 20 subtable" one slash four
EndChar

StartChar: onehalf
Encoding: 288 189 133
Width: 840
VWidth: 0
GlyphClass: 3
Flags: W
TeX: 739 0
HStem: 0 82<635 798> 370 80<660.006 759.622> 657 82<199 251>
VStem: 539 89<285 333.535> 767 92<266.093 361.862>
LayerCount: 2
Fore
SplineSet
175 0 m 1
 618 739 l 1
 713 739 l 1
 270 0 l 1
 175 0 l 1
184 296 m 1
 251 657 l 1
 184 657 l 1
 199 739 l 1
 353 739 l 1
 271 296 l 1
 184 296 l 1
489 0 m 1
 504 75 l 1
 697 222 l 2
 747 260 767 288 767 319 c 0
 767 351 747 370 714 370 c 0
 671 370 643 343 628 285 c 1
 539 285 l 1
 562 398 636 450 729 450 c 0
 805 450 859 402 859 334 c 0
 859 268 822 213 739 155 c 2
 635 82 l 1
 813 82 l 1
 798 0 l 1
 489 0 l 1
EndSplineSet
Validated: 1
Ligature2: "'frac' Diagonal Fractions in Latin lookup 20 subtable" one fraction two
Ligature2: "'frac' Diagonal Fractions in Latin lookup 20 subtable" one slash two
EndChar

StartChar: threequarters
Encoding: 289 190 134
Width: 840
VWidth: 0
GlyphClass: 3
Flags: W
TeX: 739 0
HStem: 0 21G<211 317.989 664 758.692> 65 77<588 676 781 815> 288 80<157.965 259.962> 505 84<209 279.095> 666 80<222.628 291.141> 719 20G<642.011 749>
VStem: 52 93<379.913 436> 291 92<396.981 491.273 600.079 664.381>
LayerCount: 2
Fore
SplineSet
52 411 m 0xfb
 52 416 53 425 54 436 c 1
 145 436 l 1
 145 428 l 2
 145 392 168 368 203 368 c 0
 250 368 291 406 291 449 c 0
 291 488 266 505 193 505 c 1
 209 589 l 1
 278 589 293 612 293 637 c 0
 293 655 280 666 259 666 c 0
 236 666 221 652 216 627 c 1
 124 627 l 1
 142 700 198 746 272 746 c 0
 338 746 385 704 385 645 c 0
 385 606 368 577 329 551 c 1
 367 531 383 505 383 465 c 0
 383 370 293 288 188 288 c 0
 109 288 52 340 52 411 c 0xfb
211 0 m 1
 654 739 l 1
 749 739 l 1xf7
 306 0 l 1
 211 0 l 1
478 65 m 1
 491 133 l 1
 761 443 l 1
 837 443 l 1
 781 142 l 1
 829 142 l 1
 815 65 l 1
 767 65 l 1
 755 0 l 1
 664 0 l 1
 676 65 l 1
 478 65 l 1
588 142 m 1
 690 142 l 1
 718 294 l 1
 588 142 l 1
EndSplineSet
Validated: 1
Ligature2: "'frac' Diagonal Fractions in Latin lookup 20 subtable" three fraction four
Ligature2: "'frac' Diagonal Fractions in Latin lookup 20 subtable" three slash four
EndChar

StartChar: AE
Encoding: 170 198 135
Width: 900
VWidth: 0
Flags: W
TeX: 739 0
HStem: 0 132<619 813> 191 132<403 493> 303 132<675 858> 607 132<708 926>
LayerCount: 2
Fore
SplineSet
-13 0 m 1xd0
 611 739 l 1
 950 739 l 1
 926 607 l 1
 708 607 l 1
 675 435 l 1
 882 435 l 1
 858 303 l 1
 651 303 l 1xb0
 619 132 l 1
 837 132 l 1
 813 0 l 1
 458 0 l 1
 493 191 l 1
 299 191 l 1
 151 0 l 1
 -13 0 l 1xd0
403 323 m 1xd0
 518 323 l 1
 553 513 l 1
 403 323 l 1xd0
EndSplineSet
Validated: 1
AlternateSubs2: "'aalt' Access All Alternates lookup 0 subtable" ae.sc
AlternateSubs2: "'aalt' Access All Alternates in Latin lookup 0 subtable" ae.sc
Substitution2: "'c2sc' Capitals to Small Capitals in Latin lookup 13 subtable" ae.sc
Position2: "'cpsp' Capital Spacing in Latin lookup 13 subtable" dx=7 dy=0 dh=14 dv=0
EndChar

StartChar: Eth
Encoding: 208 208 136
Width: 742
VWidth: 0
Flags: W
TeX: 739 0
HStem: 0 131<239 426.5> 321 107<63 137 294 423> 608 131<327 502.019>
VStem: 606 140<313.522 519.779>
LayerCount: 2
Fore
SplineSet
43 321 m 1
 63 428 l 1
 157 428 l 1
 215 739 l 1
 384 739 l 2
 650 739 746 634 746 456 c 0
 746 300 674 155 555 74 c 0
 477 21 392 0 250 0 c 2
 78 0 l 1
 137 321 l 1
 43 321 l 1
239 131 m 1
 269 131 l 2
 392 131 466 155 521 212 c 0
 573 265 606 347 606 424 c 0
 606 545 544 608 354 608 c 2
 327 608 l 1
 294 428 l 1
 443 428 l 1
 423 321 l 1
 274 321 l 1
 239 131 l 1
EndSplineSet
Validated: 1
AlternateSubs2: "'aalt' Access All Alternates lookup 0 subtable" eth.sc
AlternateSubs2: "'aalt' Access All Alternates in Latin lookup 0 subtable" eth.sc
Substitution2: "'c2sc' Capitals to Small Capitals in Latin lookup 13 subtable" eth.sc
Position2: "'cpsp' Capital Spacing in Latin lookup 13 subtable" dx=7 dy=0 dh=14 dv=0
EndChar

StartChar: Oslash
Encoding: 216 216 137
Width: 840
VWidth: 0
GlyphClass: 2
Flags: W
TeX: 739 0
HStem: -13 132<325.801 518.172> 620 132<401.653 586.004>
VStem: 66 140<229.071 424.197> 711 140<314.495 515.265>
AnchorPoint: "bot_acc" 363 -146 basechar 0
AnchorPoint: "dotbelow" 363 -146 basechar 0
AnchorPoint: "ogon_acc" 363 -146 basechar 0
AnchorPoint: "top_accu" 552 875 basechar 0
AnchorPoint: "dotabove" 552 875 basechar 0
LayerCount: 2
Fore
SplineSet
61 -11 m 1
 144 87 l 1
 91 149 66 217 66 297 c 0
 66 535 286 752 526 752 c 0
 582 752 630 742 684 719 c 1
 776 826 l 1
 857 757 l 1
 769 655 l 1
 823 603 851 529 851 438 c 0
 851 215 639 -13 393 -13 c 0
 334 -13 286 -2 229 23 c 1
 141 -80 l 1
 61 -11 l 1
206 322 m 0
 206 282 217 246 242 201 c 1
 587 606 l 1
 558 616 534 620 504 620 c 0
 348 620 206 478 206 322 c 0
325 136 m 1
 355 124 380 119 414 119 c 0
 572 119 711 257 711 415 c 0
 711 465 697 511 673 542 c 1
 325 136 l 1
EndSplineSet
Validated: 1
AlternateSubs2: "'aalt' Access All Alternates lookup 0 subtable" oslash.sc
AlternateSubs2: "'aalt' Access All Alternates in Latin lookup 0 subtable" oslash.sc
Substitution2: "'c2sc' Capitals to Small Capitals in Latin lookup 13 subtable" oslash.sc
Position2: "'cpsp' Capital Spacing in Latin lookup 13 subtable" dx=7 dy=0 dh=14 dv=0
EndChar

StartChar: Thorn
Encoding: 290 222 138
Width: 560
VWidth: 0
Flags: W
TeX: 739 0
HStem: 0 21G<38 178.688> 141 131<225 385.537> 467 132<286 422.545> 719 20G<171.292 312>
VStem: 443 140<320.712 445.603>
LayerCount: 2
Fore
SplineSet
38 0 m 1
 175 739 l 1
 312 739 l 1
 286 599 l 1
 332 599 l 2
 428 599 479 590 514 565 c 0
 559 533 583 484 583 422 c 0
 583 346 548 263 495 212 c 0
 434 154 386 141 245 141 c 2
 201 141 l 1
 175 0 l 1
 38 0 l 1
225 272 m 1
 265 272 l 2
 372 272 443 300 443 389 c 0
 443 445 422 467 308 467 c 2
 262 467 l 1
 225 272 l 1
EndSplineSet
Validated: 1
AlternateSubs2: "'aalt' Access All Alternates lookup 0 subtable" thorn.sc
AlternateSubs2: "'aalt' Access All Alternates in Latin lookup 0 subtable" thorn.sc
Substitution2: "'c2sc' Capitals to Small Capitals in Latin lookup 13 subtable" thorn.sc
Position2: "'cpsp' Capital Spacing in Latin lookup 13 subtable" dx=7 dy=0 dh=14 dv=0
EndChar

StartChar: germandbls
Encoding: 223 223 139
Width: 600
VWidth: 0
Flags: W
TeX: 752 0
HStem: -13 122<295.948 412.112> 0 21G<21 146.797> 315 118<305 374.099> 630 122<299.504 411.763>
VStem: 428 137<490.404 612.88> 461 137<159.389 285.505>
LayerCount: 2
Fore
SplineSet
21 0 m 1x74
 111 487 l 2
 140 647 241 752 382 752 c 0
 490 752 565 683 565 585 c 0x78
 565 519 539 449 461 409 c 1
 555 384 598 330 598 260 c 0
 598 109 467 -13 319 -13 c 0xb4
 236 -13 181 19 158 79 c 1
 143 0 l 1
 21 0 l 1x74
189 189 m 1
 271 189 l 1
 278 137 306 109 351 109 c 0
 410 109 461 163 461 226 c 0xb4
 461 286 432 315 294 315 c 2
 283 315 l 1
 305 433 l 1
 316 433 l 2
 377 433 428 492 428 563 c 0
 428 604 400 630 358 630 c 0
 300 630 263 588 247 503 c 2
 189 189 l 1
EndSplineSet
Validated: 1
AlternateSubs2: "'aalt' Access All Alternates lookup 0 subtable" germandbls.sc
AlternateSubs2: "'aalt' Access All Alternates in Latin lookup 0 subtable" germandbls.sc
Substitution2: "'smcp' Lowercase to Small Capitals in Latin lookup 2 subtable" germandbls.sc
EndChar

StartChar: ae
Encoding: 186 230 140
Width: 1080
VWidth: 0
Flags: W
TeX: 554 0
HStem: -13 122<236.924 394.84 678.185 840.681> 0 21G<453 579> 219 118<638 942> 445 122<291.256 447.778 738.43 898.374> 534 20G<552.364 678>
VStem: 46 137<165.474 333.366> 942 136<338.162 398.211>
LayerCount: 2
Fore
SplineSet
46 216 m 0xa6
 46 403 207 567 390 567 c 0xb6
 463 567 508 547 546 499 c 1
 556 554 l 1
 678 554 l 1x2e
 668 499 l 1
 722 547 776 567 852 567 c 0
 981 567 1078 471 1078 342 c 0
 1078 301 1069 262 1051 219 c 1
 623 219 l 1
 631 152 684 109 758 109 c 0
 807 109 850 127 886 164 c 1
 1031 164 l 1
 973 58 858 -13 743 -13 c 0xb6
 675 -13 625 2 587 60 c 1
 575 0 l 1
 453 0 l 1x66
 465 60 l 1
 406 5 362 -13 288 -13 c 0
 144 -13 46 80 46 216 c 0xa6
183 240 m 0
 183 161 235 109 313 109 c 0
 416 109 504 203 504 312 c 0
 504 397 441 445 375 445 c 0
 270 445 183 352 183 240 c 0
638 337 m 1
 942 337 l 1
 927 424 883 445 812 445 c 0
 735 445 675 408 638 337 c 1
EndSplineSet
Validated: 1
AlternateSubs2: "'aalt' Access All Alternates lookup 0 subtable" ae.sc
AlternateSubs2: "'aalt' Access All Alternates in Latin lookup 0 subtable" ae.sc
Substitution2: "'smcp' Lowercase to Small Capitals in Latin lookup 2 subtable" ae.sc
EndChar

StartChar: eth
Encoding: 240 240 141
Width: 640
VWidth: 0
Flags: W
TeX: 739 0
HStem: -13 122<242.713 398.144> 445 111<298.756 448.296> 719 20G<477.27 546.091>
VStem: 46 137<170.755 328.964> 513 137<228.848 385.327>
LayerCount: 2
Fore
SplineSet
46 229 m 0
 46 399 206 556 380 556 c 0
 402 556 418 552 450 540 c 1
 418 578 404 593 375 618 c 1
 290 585 l 1
 256 633 l 1
 331 663 l 1
 315 678 l 2
 310 680 302 688 275 709 c 1
 368 757 l 1
 411 725 413 723 435 702 c 1
 527 739 l 1
 569 695 l 1
 482 659 l 1
 590 566 650 453 650 343 c 0
 650 155 482 -13 294 -13 c 0
 149 -13 46 88 46 229 c 0
183 243 m 0
 183 166 240 109 318 109 c 0
 419 109 513 206 513 309 c 0
 513 387 457 445 381 445 c 0
 277 445 183 349 183 243 c 0
EndSplineSet
Validated: 1
AlternateSubs2: "'aalt' Access All Alternates lookup 0 subtable" eth.sc
AlternateSubs2: "'aalt' Access All Alternates in Latin lookup 0 subtable" eth.sc
Substitution2: "'smcp' Lowercase to Small Capitals in Latin lookup 2 subtable" eth.sc
EndChar

StartChar: oslash
Encoding: 248 248 142
Width: 660
VWidth: 0
GlyphClass: 2
Flags: W
TeX: 554 0
HStem: -13 122<273.713 396.256> 445 122<299.359 422.204>
VStem: 49 137<179.434 328.06> 511 137<223.851 376.45>
AnchorPoint: "bot_acc" 258 -210 basechar 0
AnchorPoint: "dotbelow" 258 -210 basechar 0
AnchorPoint: "ogon_acc" 270 -146 basechar 0
AnchorPoint: "top_accl" 427 700 basechar 0
AnchorPoint: "dotabove" 427 700 basechar 0
LayerCount: 2
Fore
SplineSet
46 -2 m 1
 106 68 l 1
 66 118 49 163 49 221 c 0
 49 404 216 567 403 567 c 0
 446 567 477 560 512 544 c 1
 577 620 l 1
 650 558 l 1
 590 487 l 1
 628 442 648 387 648 328 c 0
 648 152 478 -13 296 -13 c 0
 255 -13 222 -6 182 11 c 1
 119 -64 l 1
 46 -2 l 1
186 243 m 0
 186 219 189 204 200 178 c 1
 423 438 l 1
 403 443 392 445 378 445 c 0
 279 445 186 347 186 243 c 0
273 116 m 1
 289 110 297 109 314 109 c 0
 416 109 511 204 511 308 c 0
 511 342 507 360 495 377 c 1
 273 116 l 1
EndSplineSet
Validated: 1
AlternateSubs2: "'aalt' Access All Alternates lookup 0 subtable" oslash.sc
AlternateSubs2: "'aalt' Access All Alternates in Latin lookup 0 subtable" oslash.sc
Substitution2: "'smcp' Lowercase to Small Capitals in Latin lookup 2 subtable" oslash.sc
EndChar

StartChar: thorn
Encoding: 291 254 143
Width: 660
VWidth: 0
Flags: W
TeX: 739 -185
HStem: -185 21G<-10 126.713> -13 122<255.594 410.881> 445 122<321.851 468.236> 719 20G<157.299 283>
VStem: 524 137<227.964 387.421>
LayerCount: 2
Fore
SplineSet
-10 -185 m 1
 161 739 l 1
 283 739 l 1
 237 489 l 1
 284 538 358 567 432 567 c 0
 564 567 661 483 661 344 c 0
 661 148 510 -13 325 -13 c 0
 257 -13 208 7 167 52 c 1
 123 -185 l 1
 -10 -185 l 1
197 241 m 0
 197 165 254 109 333 109 c 0
 432 109 524 207 524 309 c 0
 524 383 476 445 393 445 c 0
 288 445 197 350 197 241 c 0
EndSplineSet
Validated: 1
AlternateSubs2: "'aalt' Access All Alternates lookup 0 subtable" thorn.sc
AlternateSubs2: "'aalt' Access All Alternates in Latin lookup 0 subtable" thorn.sc
Substitution2: "'smcp' Lowercase to Small Capitals in Latin lookup 2 subtable" thorn.sc
EndChar

StartChar: space_uni0326
Encoding: 292 -1 144
Width: 280
VWidth: 0
Flags: W
TeX: 0 -250
HStem: -245 192<76 87>
VStem: -17 198
LayerCount: 2
Fore
SplineSet
-17 -245 m 1
 76 -53 l 1
 181 -53 l 1
 87 -245 l 1
 -17 -245 l 1
EndSplineSet
Validated: 1
EndChar

StartChar: Hbar
Encoding: 293 294 145
Width: 680
VWidth: 0
Flags: W
TeX: 739 0
HStem: 0 21G<38 178.677 439 579.716> 310 131<257 496> 549 100<98 140 295 541 696 744> 719 20G<171.222 312 572.222 713>
LayerCount: 2
Fore
SplineSet
38 0 m 1
 140 549 l 1
 80 549 l 1
 98 649 l 1
 158 649 l 1
 175 739 l 1
 312 739 l 1
 295 649 l 1
 559 649 l 1
 576 739 l 1
 713 739 l 1
 696 649 l 1
 762 649 l 1
 744 549 l 1
 678 549 l 1
 576 0 l 1
 439 0 l 1
 496 310 l 1
 232 310 l 1
 175 0 l 1
 38 0 l 1
257 441 m 1
 521 441 l 1
 541 549 l 1
 277 549 l 1
 257 441 l 1
EndSplineSet
Validated: 1
AlternateSubs2: "'aalt' Access All Alternates lookup 0 subtable" hbar.sc
AlternateSubs2: "'aalt' Access All Alternates in Latin lookup 0 subtable" hbar.sc
Substitution2: "'c2sc' Capitals to Small Capitals in Latin lookup 13 subtable" hbar.sc
Position2: "'cpsp' Capital Spacing in Latin lookup 13 subtable" dx=7 dy=0 dh=14 dv=0
EndChar

StartChar: hbar
Encoding: 294 295 146
Width: 600
VWidth: 0
Flags: W
TeX: 739 0
HStem: 0 21G<23 159.701 381 517.706> 445 123<300.72 419.951> 602 100<83 135 286 343> 719 20G<156.216 293>
LayerCount: 2
Fore
SplineSet
23 0 m 1
 135 602 l 1
 65 602 l 1
 83 702 l 1
 153 702 l 1
 160 739 l 1
 293 739 l 1
 286 702 l 1
 361 702 l 1
 343 602 l 1
 269 602 l 1
 252 516 l 1
 298 552 345 568 402 568 c 0
 481 568 540 537 566 480 c 0
 585 439 587 394 572 313 c 2
 514 0 l 1
 381 0 l 1
 433 283 l 2
 455 399 433 445 355 445 c 0
 311 445 273 426 248 392 c 0
 229 367 218 336 208 281 c 2
 156 0 l 1
 23 0 l 1
EndSplineSet
Validated: 33
AlternateSubs2: "'aalt' Access All Alternates lookup 0 subtable" hbar.sc
AlternateSubs2: "'aalt' Access All Alternates in Latin lookup 0 subtable" hbar.sc
Substitution2: "'smcp' Lowercase to Small Capitals in Latin lookup 2 subtable" hbar.sc
EndChar

StartChar: longs
Encoding: 295 383 147
Width: 280
VWidth: 0
Flags: W
TeX: 739 0
HStem: 0 21G<27 163.713> 433 111<80 107> 611 128<281.241 359>
LayerCount: 2
Fore
SplineSet
27 0 m 1
 107 433 l 1
 59 433 l 1
 80 544 l 1
 128 544 l 1
 145 609 163 643 196 676 c 0
 238 718 288 739 344 739 c 0
 353 739 361 739 383 737 c 1
 359 611 l 1
 352 611 l 1
 341 611 l 2
 292 611 267 590 261 544 c 2
 160 0 l 1
 27 0 l 1
EndSplineSet
Validated: 1
EndChar

StartChar: Ohorn
Encoding: 296 416 148
Width: 856
VWidth: 0
GlyphClass: 2
Flags: W
TeX: 739 0
HStem: -13 132<314.865 517.161> 620 132<391.508 597.066> 719 20G<827.5 924>
VStem: 61 140<230.818 421.71> 705 140<316.604 513.612> 829 95<668.239 739>
AnchorPoint: "bot_acc" 363 -146 basechar 0
AnchorPoint: "dotbelow" 363 -146 basechar 0
AnchorPoint: "ogon_acc" 363 -146 basechar 0
AnchorPoint: "top_accu" 552 875 basechar 0
AnchorPoint: "dotabove" 552 875 basechar 0
LayerCount: 2
Fore
SplineSet
61 300 m 0xb8
 61 401 107 513 182 595 c 0
 275 696 399 752 529 752 c 0xd8
 637 752 727 707 783 633 c 1
 807 658 826 692 829 739 c 1
 924 739 l 1
 913 640 876 581 829 544 c 1xb4
 840 511 845 476 845 439 c 0
 845 201 628 -13 386 -13 c 0
 197 -13 61 118 61 300 c 0xb8
201 323 m 0
 201 204 288 119 410 119 c 0
 501 119 585 162 642 238 c 0
 681 290 705 359 705 419 c 0
 705 536 620 620 502 620 c 0
 409 620 326 578 267 501 c 0
 226 448 201 381 201 323 c 0
EndSplineSet
Validated: 1
AlternateSubs2: "'aalt' Access All Alternates lookup 0 subtable" ohorn.sc
AlternateSubs2: "'aalt' Access All Alternates in Latin lookup 0 subtable" ohorn.sc
Substitution2: "'c2sc' Capitals to Small Capitals in Latin lookup 13 subtable" ohorn.sc
Position2: "'cpsp' Capital Spacing in Latin lookup 13 subtable" dx=7 dy=0 dh=14 dv=0
EndChar

StartChar: Uhorn
Encoding: 297 431 149
Width: 732
VWidth: 0
GlyphClass: 2
Flags: W
TeX: 739 0
HStem: -13 132<247.318 381.352> 719 20G<171.325 312 533.325 674 721.5 819>
VStem: 79 138<149.984 329.5> 724 95<670.936 739>
AnchorPoint: "bot_acc" 260 -146 basechar 0
AnchorPoint: "dotbelow" 260 -146 basechar 0
AnchorPoint: "ogon_acc" 260 -146 basechar 0
AnchorPoint: "top_accu" 450 875 basechar 0
AnchorPoint: "dotabove" 450 875 basechar 0
LayerCount: 2
Fore
SplineSet
79 176 m 0
 79 203 82 235 89 271 c 2
 175 739 l 1
 312 739 l 1
 226 271 l 2
 220 239 217 215 217 201 c 0
 217 156 259 119 309 119 c 0
 349 119 388 138 413 169 c 0
 431 192 442 220 451 271 c 2
 537 739 l 1
 674 739 l 1
 650 610 l 1
 686 634 719 675 724 739 c 1
 819 739 l 1
 801 578 715 522 629 496 c 1
 588 271 l 2
 573 188 546 128 503 82 c 0
 448 24 364 -13 285 -13 c 0
 166 -13 79 67 79 176 c 0
EndSplineSet
Validated: 1
AlternateSubs2: "'aalt' Access All Alternates lookup 0 subtable" uhorn.sc
AlternateSubs2: "'aalt' Access All Alternates in Latin lookup 0 subtable" uhorn.sc
Substitution2: "'c2sc' Capitals to Small Capitals in Latin lookup 13 subtable" uhorn.sc
Position2: "'cpsp' Capital Spacing in Latin lookup 13 subtable" dx=7 dy=0 dh=14 dv=0
EndChar

StartChar: ohorn
Encoding: 298 417 150
Width: 722
VWidth: 0
GlyphClass: 2
Flags: W
TeX: 554 0
HStem: -13 122<243.387 393.279> 445 122<297.185 448.889> 534 20G<655.5 752>
VStem: 46 137<166.994 328.682> 508 137<229.154 365.681> 657 95<481.047 554>
AnchorPoint: "bot_acc" 269 -146 basechar 0
AnchorPoint: "dotbelow" 269 -146 basechar 0
AnchorPoint: "ogon_acc" 269 -146 basechar 0
AnchorPoint: "top_accl" 426 700 basechar 0
AnchorPoint: "dotabove" 426 700 basechar 0
LayerCount: 2
Fore
SplineSet
46 221 m 0xbc
 46 404 213 567 401 567 c 0xdc
 496 567 573 522 613 450 c 1
 636 475 654 509 657 554 c 1
 752 554 l 1
 740 445 697 385 644 349 c 1
 644 342 645 334 645 327 c 0
 645 148 476 -13 288 -13 c 0
 151 -13 46 88 46 221 c 0xbc
183 244 m 0
 183 166 239 109 315 109 c 0
 415 109 508 206 508 309 c 0
 508 387 453 445 378 445 c 0
 276 445 183 349 183 244 c 0
EndSplineSet
Validated: 1
AlternateSubs2: "'aalt' Access All Alternates lookup 0 subtable" ohorn.sc
AlternateSubs2: "'aalt' Access All Alternates in Latin lookup 0 subtable" ohorn.sc
Substitution2: "'smcp' Lowercase to Small Capitals in Latin lookup 2 subtable" ohorn.sc
EndChar

StartChar: uhorn
Encoding: 299 432 151
Width: 733
VWidth: 0
GlyphClass: 2
Flags: W
TeX: 554 0
HStem: -13 122<219.37 336.674> 0 21G<394 520.689> 534 20G<121.296 258 483.322 620 674.5 772>
VStem: 58 140<130.533 308.227> 677 95<484.074 554>
AnchorPoint: "bot_acc" 243 -146 basechar 0
AnchorPoint: "dotbelow" 243 -146 basechar 0
AnchorPoint: "ogon_acc" 394 -146 basechar 0
AnchorPoint: "top_accl" 400 700 basechar 0
AnchorPoint: "dotabove" 400 700 basechar 0
LayerCount: 2
Fore
SplineSet
58 152 m 0xb8
 58 178 62 214 70 257 c 2
 125 554 l 1
 258 554 l 1
 208 283 l 2
 201 248 198 214 198 187 c 0
 198 138 229 109 280 109 c 0xb8
 326 109 367 127 393 160 c 0
 413 184 426 224 439 293 c 2
 487 554 l 1
 620 554 l 1
 595 419 l 1
 634 443 672 485 677 554 c 1
 772 554 l 1
 753 388 662 334 574 309 c 1
 517 0 l 1
 394 0 l 1x78
 404 53 l 1
 347 6 298 -13 230 -13 c 0
 177 -13 133 3 105 31 c 0
 78 59 58 109 58 152 c 0xb8
EndSplineSet
Validated: 1
AlternateSubs2: "'aalt' Access All Alternates lookup 0 subtable" uhorn.sc
AlternateSubs2: "'aalt' Access All Alternates in Latin lookup 0 subtable" uhorn.sc
Substitution2: "'smcp' Lowercase to Small Capitals in Latin lookup 2 subtable" uhorn.sc
EndChar

StartChar: space_uni031B
Encoding: 300 -1 152
Width: 420
VWidth: 0
Flags: W
TeX: 554 0
HStem: 309 245
VStem: 397 95<484.074 554>
LayerCount: 2
Fore
SplineSet
291 364 m 1
 315 419 l 1
 354 443 392 485 397 554 c 1
 492 554 l 1
 473 388 382 334 294 309 c 1
 291 364 l 1
EndSplineSet
Validated: 1
EndChar

StartChar: aogonek
Encoding: 185 261 153
Width: 660
VWidth: 0
GlyphClass: 3
Flags: W
TeX: 554 -250
HStem: -251 107<479.982 541.662> -13 122<238.588 385.628> 445 122<296.035 458.641> 534 20G<562.486 688>
VStem: 45 137<163.818 326.52> 370 103<-138.514 -73.1005>
AnchorPoint: "bot_acc" 419 -384 basechar 0
AnchorPoint: "dotbelow" 419 -384 basechar 0
AnchorPoint: "ogon_acc" 419 -384 basechar 0
AnchorPoint: "top_accl" 415 700 basechar 0
AnchorPoint: "dotabove" 415 700 basechar 0
LayerCount: 2
Fore
SplineSet
45 213 m 0xdc
 45 406 202 567 390 567 c 0xec
 468 567 521 539 553 480 c 1
 566 554 l 1
 688 554 l 1
 586 0 l 1
 495 -23 473 -67 473 -95 c 0
 473 -119 486 -144 511 -144 c 0
 523 -144 539 -144 559 -141 c 1
 541 -244 l 1
 525 -249 509 -251 494 -251 c 0
 424 -251 370 -205 370 -134 c 0
 370 -86 409 -48 464 0 c 1
 477 72 l 1
 415 13 355 -13 277 -13 c 0
 137 -13 45 77 45 213 c 0xdc
182 240 m 0
 182 160 235 109 317 109 c 0
 427 109 514 196 514 313 c 0
 514 394 462 445 380 445 c 0
 274 445 182 350 182 240 c 0
EndSplineSet
Validated: 1
AlternateSubs2: "'aalt' Access All Alternates lookup 0 subtable" aogonek.sc
AlternateSubs2: "'aalt' Access All Alternates in Latin lookup 0 subtable" aogonek.sc
Ligature2: "ccmp_lig subtable" a ogonekcomb
Substitution2: "'smcp' Lowercase to Small Capitals in Latin lookup 2 subtable" aogonek.sc
EndChar

StartChar: Aogonek
Encoding: 165 260 154
Width: 740
VWidth: 0
GlyphClass: 3
Flags: W
TeX: 739 -250
HStem: -251 107<596.982 658.662> 0 21G<-23 140.251> 191 132<320 478> 719 20G<409.957 534.682>
VStem: 487 103<-138.514 -73.1005>
AnchorPoint: "bot_acc" 536 -384 basechar 0
AnchorPoint: "dotbelow" 536 -384 basechar 0
AnchorPoint: "ogon_acc" 536 -384 basechar 0
AnchorPoint: "top_accu" 501 875 basechar 0
AnchorPoint: "dotabove" 501 875 basechar 0
LayerCount: 2
Fore
SplineSet
-23 0 m 1
 422 739 l 1
 530 739 l 1
 703 0 l 1
 612 -23 590 -67 590 -95 c 0
 590 -119 603 -144 628 -144 c 0
 640 -144 656 -144 676 -141 c 1
 658 -244 l 1
 642 -249 626 -251 611 -251 c 0
 541 -251 487 -205 487 -134 c 0
 487 -86 526 -48 581 0 c 1
 552 0 l 1
 508 191 l 1
 245 191 l 1
 128 0 l 1
 -23 0 l 1
320 323 m 1
 478 323 l 1
 440 546 l 1
 320 323 l 1
EndSplineSet
Validated: 1
AlternateSubs2: "'aalt' Access All Alternates lookup 0 subtable" aogonek.sc
AlternateSubs2: "'aalt' Access All Alternates in Latin lookup 0 subtable" aogonek.sc
Ligature2: "ccmp_lig subtable" A ogonekcomb
Substitution2: "'c2sc' Capitals to Small Capitals in Latin lookup 13 subtable" aogonek.sc
Position2: "'cpsp' Capital Spacing in Latin lookup 13 subtable" dx=7 dy=0 dh=14 dv=0
EndChar

StartChar: Eogonek
Encoding: 202 280 155
Width: 520
VWidth: 0
GlyphClass: 3
Flags: W
TeX: 739 -250
HStem: -251 107<329.233 390.748> 0 132<199 314 378.953 435> 303 132<255 480> 607 132<288 548>
VStem: 219 103<-138.253 -74.8914>
AnchorPoint: "bot_acc" 269 -384 basechar 0
AnchorPoint: "dotbelow" 269 -384 basechar 0
AnchorPoint: "ogon_acc" 269 -384 basechar 0
AnchorPoint: "top_accu" 399 875 basechar 0
AnchorPoint: "dotabove" 399 875 basechar 0
LayerCount: 2
Fore
SplineSet
38 0 m 1
 175 739 l 1
 572 739 l 1
 548 607 l 1
 288 607 l 1
 255 435 l 1
 504 435 l 1
 480 303 l 1
 231 303 l 1
 199 132 l 1
 459 132 l 1
 435 0 l 1
 344 -23 322 -67 322 -95 c 0
 322 -119 336 -144 361 -144 c 0
 373 -144 389 -144 409 -141 c 1
 390 -244 l 1
 374 -249 358 -251 343 -251 c 0
 274 -251 219 -205 219 -134 c 0
 219 -86 259 -48 314 0 c 1
 38 0 l 1
EndSplineSet
Validated: 1
AlternateSubs2: "'aalt' Access All Alternates lookup 0 subtable" eogonek.sc
AlternateSubs2: "'aalt' Access All Alternates in Latin lookup 0 subtable" eogonek.sc
Ligature2: "ccmp_lig subtable" E ogonekcomb
Substitution2: "'c2sc' Capitals to Small Capitals in Latin lookup 13 subtable" eogonek.sc
Position2: "'cpsp' Capital Spacing in Latin lookup 13 subtable" dx=7 dy=0 dh=14 dv=0
EndChar

StartChar: eogonek
Encoding: 234 281 156
Width: 640
VWidth: 0
GlyphClass: 3
Flags: W
TeX: 554 -250
HStem: -251 107<339.982 401.662> -13 122<237.393 309> 218 118<204 511> 445 122<287.402 465.629>
VStem: 46 140<155.387 218> 230 103<-138.514 -73.6855> 511 124<337.509 400.813>
AnchorPoint: "bot_acc" 279 -384 basechar 0
AnchorPoint: "dotbelow" 279 -384 basechar 0
AnchorPoint: "ogon_acc" 279 -384 basechar 0
AnchorPoint: "top_accl" 423 700 basechar 0
AnchorPoint: "dotabove" 423 700 basechar 0
LayerCount: 2
Fore
SplineSet
46 223 m 0
 46 404 213 567 398 567 c 0
 537 567 635 474 635 342 c 0
 635 294 628 249 615 218 c 1
 186 218 l 1
 186 154 240 109 316 109 c 0
 372 109 413 126 451 164 c 1
 596 164 l 1
 560 98 505 47 439 18 c 0
 386 -7 333 -45 333 -95 c 0
 333 -119 346 -144 371 -144 c 0
 383 -144 399 -144 419 -141 c 1
 401 -244 l 1
 385 -249 369 -251 354 -251 c 0
 284 -251 230 -205 230 -134 c 0
 230 -90 262 -55 309 -13 c 1
 297 -13 l 2
 149 -13 46 84 46 223 c 0
204 336 m 1
 511 336 l 1
 507 408 462 445 377 445 c 0
 300 445 230 401 204 336 c 1
EndSplineSet
Validated: 1
AlternateSubs2: "'aalt' Access All Alternates lookup 0 subtable" eogonek.sc
AlternateSubs2: "'aalt' Access All Alternates in Latin lookup 0 subtable" eogonek.sc
Ligature2: "ccmp_lig subtable" e ogonekcomb
Substitution2: "'smcp' Lowercase to Small Capitals in Latin lookup 2 subtable" eogonek.sc
EndChar

StartChar: Iogonek
Encoding: 222 302 157
Width: 280
VWidth: 0
GlyphClass: 3
Flags: W
TeX: 739 -250
HStem: -251 107<68.9816 130.662> 719 20G<171.292 312>
VStem: -41 103<-138.514 -73.1005>
AnchorPoint: "bot_acc" 8 -384 basechar 0
AnchorPoint: "dotbelow" 8 -384 basechar 0
AnchorPoint: "ogon_acc" 8 -384 basechar 0
AnchorPoint: "top_accu" 269 875 basechar 0
AnchorPoint: "dotabove" 269 875 basechar 0
LayerCount: 2
Fore
SplineSet
-41 -134 m 0
 -41 -86 -2 -48 53 0 c 1
 38 0 l 1
 175 739 l 1
 312 739 l 1
 175 0 l 1
 84 -23 62 -67 62 -95 c 0
 62 -119 75 -144 100 -144 c 0
 112 -144 128 -144 148 -141 c 1
 130 -244 l 1
 114 -249 98 -251 83 -251 c 0
 13 -251 -41 -205 -41 -134 c 0
EndSplineSet
Validated: 1
AlternateSubs2: "'aalt' Access All Alternates lookup 0 subtable" iogonek.sc
AlternateSubs2: "'aalt' Access All Alternates in Latin lookup 0 subtable" iogonek.sc
Ligature2: "ccmp_lig subtable" I ogonekcomb
Substitution2: "'c2sc' Capitals to Small Capitals in Latin lookup 13 subtable" iogonek.sc
Position2: "'cpsp' Capital Spacing in Latin lookup 13 subtable" dx=7 dy=0 dh=14 dv=0
EndChar

StartChar: dotlessiogonek
Encoding: 301 -1 158
Width: 240
VWidth: 0
GlyphClass: 3
Flags: W
TeX: 554 -204
HStem: -251 107<51.0639 112.662> 534 20G<123.282 260>
VStem: -59 103<-138.514 -73.1005>
AnchorPoint: "bot_acc" -10 -384 basechar 0
AnchorPoint: "dotbelow" -10 -384 basechar 0
AnchorPoint: "ogon_acc" -10 -384 basechar 0
AnchorPoint: "top_accl" 221 700 basechar 0
AnchorPoint: "dotabove" 221 700 basechar 0
LayerCount: 2
Fore
SplineSet
-59 -134 m 0
 -59 -86 -20 -48 35 0 c 1
 24 0 l 1
 127 554 l 1
 260 554 l 1
 157 0 l 1
 66 -23 44 -67 44 -95 c 0
 44 -119 57 -144 82 -144 c 0
 94 -144 110 -144 130 -141 c 1
 112 -244 l 1
 96 -249 80 -251 65 -251 c 0
 -4 -251 -59 -205 -59 -134 c 0
EndSplineSet
Validated: 1
Ligature2: "ccmp_lig subtable" dotlessi ogonekcomb
EndChar

StartChar: Oogonek
Encoding: 302 490 159
Width: 840
VWidth: 0
GlyphClass: 3
Flags: W
TeX: 739 -250
HStem: -251 107<432.064 493.662> -13 132<317.771 402> 620 132<396.847 596.207>
VStem: 61 140<230.818 421.649> 322 103<-138.514 -74.3168> 705 140<313.766 512.994>
AnchorPoint: "bot_acc" 372 -384 basechar 0
AnchorPoint: "dotbelow" 372 -384 basechar 0
AnchorPoint: "ogon_acc" 372 -384 basechar 0
AnchorPoint: "top_accu" 547 875 basechar 0
AnchorPoint: "dotabove" 547 875 basechar 0
LayerCount: 2
Fore
SplineSet
61 300 m 0
 61 543 291 752 529 752 c 0
 713 752 845 622 845 439 c 0
 845 261 723 96 560 24 c 0
 497 -3 425 -36 425 -95 c 0
 425 -119 438 -144 463 -144 c 0
 475 -144 491 -144 511 -141 c 1
 493 -244 l 1
 477 -249 461 -251 446 -251 c 0
 377 -251 322 -205 322 -134 c 0
 322 -90 355 -55 402 -13 c 1
 386 -13 l 2
 197 -13 61 118 61 300 c 0
201 323 m 0
 201 204 288 119 410 119 c 0
 564 119 705 257 705 419 c 0
 705 536 620 620 502 620 c 0
 347 620 201 479 201 323 c 0
EndSplineSet
Validated: 1
AlternateSubs2: "'aalt' Access All Alternates lookup 0 subtable" oogonek.sc
AlternateSubs2: "'aalt' Access All Alternates in Latin lookup 0 subtable" oogonek.sc
Ligature2: "ccmp_lig subtable" O ogonekcomb
Substitution2: "'c2sc' Capitals to Small Capitals in Latin lookup 13 subtable" oogonek.sc
Position2: "'cpsp' Capital Spacing in Latin lookup 13 subtable" dx=7 dy=0 dh=14 dv=0
EndChar

StartChar: oogonek
Encoding: 303 491 160
Width: 640
VWidth: 0
GlyphClass: 3
Flags: W
TeX: 554 -250
HStem: -251 107<328.064 389.662> -13 122<244.291 298> 445 122<297.185 447.781>
VStem: 46 137<166.994 328.682> 218 103<-138.514 -74.7349> 508 137<224.78 384.76>
AnchorPoint: "bot_acc" 268 -384 basechar 0
AnchorPoint: "dotbelow" 268 -384 basechar 0
AnchorPoint: "ogon_acc" 268 -384 basechar 0
AnchorPoint: "top_accl" 424 700 basechar 0
AnchorPoint: "dotabove" 424 700 basechar 0
LayerCount: 2
Fore
SplineSet
46 221 m 0
 46 404 213 567 401 567 c 0
 543 567 645 466 645 327 c 0
 645 208 570 96 464 35 c 0
 401 -1 321 -47 321 -95 c 0
 321 -119 334 -144 359 -144 c 0
 371 -144 387 -144 407 -141 c 1
 389 -244 l 1
 373 -249 357 -251 342 -251 c 0
 273 -251 218 -205 218 -134 c 0
 218 -90 251 -55 298 -13 c 1
 288 -13 l 2
 151 -13 46 88 46 221 c 0
183 244 m 0
 183 166 239 109 315 109 c 0
 415 109 508 206 508 309 c 0
 508 387 453 445 378 445 c 0
 276 445 183 349 183 244 c 0
EndSplineSet
Validated: 1
AlternateSubs2: "'aalt' Access All Alternates lookup 0 subtable" oogonek.sc
AlternateSubs2: "'aalt' Access All Alternates in Latin lookup 0 subtable" oogonek.sc
Ligature2: "ccmp_lig subtable" o ogonekcomb
Substitution2: "'smcp' Lowercase to Small Capitals in Latin lookup 2 subtable" oogonek.sc
EndChar

StartChar: Uogonek
Encoding: 168 370 161
Width: 640
VWidth: 0
GlyphClass: 3
Flags: W
TeX: 739 -250
HStem: -251 107<328.064 389.662> -13 132<247.463 298> 719 20G<171.325 312 533.325 674>
VStem: 79 138<149.984 329.5> 218 103<-138.514 -74.4131>
AnchorPoint: "bot_acc" 268 -384 basechar 0
AnchorPoint: "dotbelow" 268 -384 basechar 0
AnchorPoint: "ogon_acc" 268 -384 basechar 0
AnchorPoint: "top_accu" 450 875 basechar 0
AnchorPoint: "dotabove" 450 875 basechar 0
LayerCount: 2
Fore
SplineSet
79 176 m 0
 79 203 82 235 89 271 c 2
 175 739 l 1
 312 739 l 1
 226 271 l 2
 220 239 217 215 217 201 c 0
 217 156 259 119 309 119 c 0
 380 119 430 160 451 271 c 2
 537 739 l 1
 674 739 l 1
 588 271 l 2
 566 149 506 66 427 22 c 0
 375 -6 321 -44 321 -95 c 0
 321 -119 334 -144 359 -144 c 0
 371 -144 387 -144 407 -141 c 1
 389 -244 l 1
 373 -249 357 -251 342 -251 c 0
 273 -251 218 -205 218 -134 c 0
 218 -90 251 -55 298 -13 c 1
 285 -13 l 2
 166 -13 79 67 79 176 c 0
EndSplineSet
Validated: 1
AlternateSubs2: "'aalt' Access All Alternates lookup 0 subtable" uogonek.sc
AlternateSubs2: "'aalt' Access All Alternates in Latin lookup 0 subtable" uogonek.sc
Ligature2: "ccmp_lig subtable" U ogonekcomb
Substitution2: "'c2sc' Capitals to Small Capitals in Latin lookup 13 subtable" uogonek.sc
Position2: "'cpsp' Capital Spacing in Latin lookup 13 subtable" dx=7 dy=0 dh=14 dv=0
EndChar

StartChar: uogonek
Encoding: 184 371 162
Width: 600
VWidth: 0
GlyphClass: 3
Flags: W
TeX: 554 -250
HStem: -251 107<411.064 472.662> -13 122<219.155 336.091> 534 20G<121.296 258 483.322 620>
VStem: 58 140<130.612 308.047> 301 103<-138.514 -73.1005>
AnchorPoint: "bot_acc" 350 -384 basechar 0
AnchorPoint: "dotbelow" 350 -384 basechar 0
AnchorPoint: "ogon_acc" 350 -384 basechar 0
AnchorPoint: "top_accl" 400 700 basechar 0
AnchorPoint: "dotabove" 400 700 basechar 0
LayerCount: 2
Fore
SplineSet
58 152 m 0
 58 178 62 214 70 257 c 2
 125 554 l 1
 258 554 l 1
 208 283 l 2
 201 248 197 214 198 187 c 0
 198 138 229 109 280 109 c 0
 362 109 411 140 439 293 c 2
 487 554 l 1
 620 554 l 1
 517 0 l 1
 426 -23 404 -67 404 -95 c 0
 404 -119 417 -144 442 -144 c 0
 454 -144 470 -144 490 -141 c 1
 472 -244 l 1
 456 -249 440 -251 425 -251 c 0
 356 -251 301 -205 301 -134 c 0
 301 -86 340 -48 395 0 c 1
 394 0 404 53 404 53 c 1
 347 6 298 -13 230 -13 c 0
 119 -13 58 59 58 152 c 0
EndSplineSet
Validated: 33
AlternateSubs2: "'aalt' Access All Alternates lookup 0 subtable" uogonek.sc
AlternateSubs2: "'aalt' Access All Alternates in Latin lookup 0 subtable" uogonek.sc
Ligature2: "ccmp_lig subtable" u ogonekcomb
Substitution2: "'smcp' Lowercase to Small Capitals in Latin lookup 2 subtable" uogonek.sc
EndChar

StartChar: Ccedilla
Encoding: 199 199 163
Width: 780
VWidth: 0
GlyphClass: 3
Flags: W
TeX: 739 -250
HStem: -256 64<334.306 421.56> 620 132<397.275 603.445>
VStem: 62 140<230.986 428.8> 427 64<-186.62 -114.093>
AnchorPoint: "bot_acc" 310 -389 basechar 0
AnchorPoint: "dotbelow" 310 -389 basechar 0
AnchorPoint: "ogon_acc" 310 -389 basechar 0
AnchorPoint: "top_accu" 527 875 basechar 0
AnchorPoint: "dotabove" 527 875 basechar 0
LayerCount: 2
Fore
SplineSet
62 303 m 0
 62 535 283 752 518 752 c 0
 665 752 787 678 828 527 c 1
 674 527 l 1
 635 594 582 620 498 620 c 0
 349 620 202 487 202 327 c 0
 202 206 288 119 407 119 c 0
 479 119 532 142 607 206 c 1
 768 206 l 1
 695 84 562 2 423 -11 c 1
 400 -46 l 1
 451 -53 491 -97 491 -150 c 0
 491 -209 443 -256 385 -256 c 0
 333 -256 290 -219 280 -170 c 1
 348 -170 l 1
 355 -184 369 -192 385 -192 c 0
 408 -192 427 -174 427 -150 c 0
 427 -127 408 -108 385 -108 c 0
 369 -108 355 -117 348 -130 c 1
 299 -104 l 1
 362 -12 l 1
 184 -2 62 129 62 303 c 0
EndSplineSet
Validated: 1
AlternateSubs2: "'aalt' Access All Alternates lookup 0 subtable" ccedilla.sc
AlternateSubs2: "'aalt' Access All Alternates in Latin lookup 0 subtable" ccedilla.sc
Ligature2: "ccmp_lig subtable" C cedillacmb
Substitution2: "'c2sc' Capitals to Small Capitals in Latin lookup 13 subtable" ccedilla.sc
Position2: "'cpsp' Capital Spacing in Latin lookup 13 subtable" dx=7 dy=0 dh=14 dv=0
EndChar

StartChar: ccedilla
Encoding: 231 231 164
Width: 640
VWidth: 0
GlyphClass: 3
Flags: W
TeX: 554 -250
HStem: -256 64<244.306 331.56> 445 122<295.197 451.819>
VStem: 47 137<165.709 332.631> 337 64<-186.62 -114.093>
AnchorPoint: "bot_acc" 220 -389 basechar 0
AnchorPoint: "dotbelow" 220 -389 basechar 0
AnchorPoint: "ogon_acc" 220 -389 basechar 0
AnchorPoint: "top_accl" 416 700 basechar 0
AnchorPoint: "dotabove" 416 700 basechar 0
LayerCount: 2
Fore
SplineSet
47 223 m 0
 47 404 213 567 397 567 c 0
 519 567 617 502 640 369 c 1
 490 369 l 1
 475 418 435 445 377 445 c 0
 272 445 184 354 184 245 c 0
 184 163 236 109 315 109 c 0
 369 109 421 136 455 182 c 1
 605 182 l 1
 541 70 446 2 334 -11 c 1
 310 -46 l 1
 361 -53 401 -97 401 -150 c 0
 401 -209 353 -256 295 -256 c 0
 243 -256 200 -219 190 -170 c 1
 258 -170 l 1
 265 -184 279 -192 295 -192 c 0
 318 -192 337 -174 337 -150 c 0
 337 -127 318 -108 295 -108 c 0
 279 -108 265 -117 258 -130 c 1
 209 -104 l 1
 272 -12 l 1
 141 -2 47 95 47 223 c 0
EndSplineSet
Validated: 1
AlternateSubs2: "'aalt' Access All Alternates lookup 0 subtable" ccedilla.sc
AlternateSubs2: "'aalt' Access All Alternates in Latin lookup 0 subtable" ccedilla.sc
Ligature2: "ccmp_lig subtable" c cedillacmb
Substitution2: "'smcp' Lowercase to Small Capitals in Latin lookup 2 subtable" ccedilla.sc
EndChar

StartChar: Scedilla
Encoding: 304 350 165
Width: 520
VWidth: 0
GlyphClass: 3
Flags: W
TeX: 739 -250
HStem: -256 64<154.306 241.56> 620 132<281.54 391.676>
VStem: 19 144<139.964 211> 107 140<486.518 587.306> 247 64<-186.62 -114.093> 368 140<168.189 282.169> 404 145<542 606.156>
AnchorPoint: "bot_acc" 130 -389 basechar 0
AnchorPoint: "dotbelow" 130 -389 basechar 0
AnchorPoint: "ogon_acc" 130 -389 basechar 0
AnchorPoint: "top_accu" 385 875 basechar 0
AnchorPoint: "dotabove" 385 875 basechar 0
LayerCount: 2
Fore
SplineSet
19 171 m 0xec
 19 182 20 195 21 211 c 1
 164 211 l 1
 163 203 163 196 163 190 c 0
 163 146 195 119 248 119 c 0
 314 119 368 167 368 227 c 0xec
 368 249 360 272 346 284 c 0
 327 300 322 303 228 341 c 0
 145 374 107 426 107 506 c 0
 107 635 228 752 362 752 c 0
 469 752 549 682 549 589 c 0
 549 577 548 561 545 542 c 1
 404 542 l 1
 404 602 384 620 338 620 c 0
 288 620 247 579 247 529 c 0xd2
 247 511 259 491 277 478 c 0
 290 469 296 466 353 445 c 0
 463 404 508 352 508 265 c 0
 508 125 383 -3 242 -12 c 1
 220 -46 l 1
 271 -53 311 -97 311 -150 c 0
 311 -209 263 -256 205 -256 c 0
 153 -256 110 -219 100 -170 c 1
 168 -170 l 1
 175 -184 189 -192 205 -192 c 0
 228 -192 247 -174 247 -150 c 0
 247 -127 228 -108 205 -108 c 0
 189 -108 175 -117 168 -130 c 1
 119 -104 l 1
 183 -10 l 1
 83 6 19 76 19 171 c 0xec
EndSplineSet
Validated: 1
AlternateSubs2: "'aalt' Access All Alternates lookup 0 subtable" scedilla.sc
AlternateSubs2: "'aalt' Access All Alternates in Latin lookup 0 subtable" scedilla.sc uni0218
Ligature2: "ccmp_lig subtable" S cedillacmb
Substitution2: "'c2sc' Capitals to Small Capitals in Latin lookup 13 subtable" scedilla.sc
Position2: "'cpsp' Capital Spacing in Latin lookup 13 subtable" dx=7 dy=0 dh=14 dv=0
Substitution2: "locl_ROM subtable" uni0218
EndChar

StartChar: scedilla
Encoding: 305 351 166
Width: 440
VWidth: 0
GlyphClass: 3
Flags: W
TeX: 554 -250
HStem: -256 64<134.306 221.56> 445 122<230.049 312.94>
VStem: 19 136<122.088 176> 80 137<360.007 432.048> 227 64<-186.62 -114.093> 288 137<127.986 242>
AnchorPoint: "bot_acc" 110 -389 basechar 0
AnchorPoint: "dotbelow" 110 -389 basechar 0
AnchorPoint: "ogon_acc" 110 -389 basechar 0
AnchorPoint: "top_accl" 319 700 basechar 0
AnchorPoint: "dotabove" 319 700 basechar 0
LayerCount: 2
Fore
SplineSet
19 137 m 0xe8
 19 148 20 161 21 176 c 1
 155 176 l 1xe8
 156 132 178 109 217 109 c 0
 255 109 288 138 288 173 c 0
 288 199 274 210 206 234 c 0
 109 268 80 300 80 370 c 0
 80 476 181 567 300 567 c 0
 382 567 452 508 452 439 c 0
 452 429 451 416 449 401 c 1
 319 401 l 1
 318 430 303 445 275 445 c 0
 244 445 217 419 217 390 c 0
 217 369 217 364 299 338 c 0
 394 307 425 275 425 209 c 0xd4
 425 103 334 8 224 -10 c 1
 200 -46 l 1
 251 -53 291 -97 291 -150 c 0
 291 -209 243 -256 185 -256 c 0
 133 -256 90 -219 80 -170 c 1xd8
 148 -170 l 1
 155 -184 169 -192 185 -192 c 0
 208 -192 227 -174 227 -150 c 0
 227 -127 208 -108 185 -108 c 0
 169 -108 155 -117 148 -130 c 1
 99 -104 l 1
 162 -12 l 1
 76 -2 19 56 19 137 c 0xe8
EndSplineSet
Validated: 1
AlternateSubs2: "'aalt' Access All Alternates lookup 0 subtable" scedilla.sc
AlternateSubs2: "'aalt' Access All Alternates in Latin lookup 0 subtable" scedilla.sc uni0219
Ligature2: "ccmp_lig subtable" s cedillacmb
Substitution2: "'smcp' Lowercase to Small Capitals in Latin lookup 2 subtable" scedilla.sc
Substitution2: "locl_ROM subtable" uni0219
EndChar

StartChar: Tcedilla
Encoding: 306 354 167
Width: 420
VWidth: 0
GlyphClass: 3
Flags: W
TeX: 739 -250
HStem: -256 64<124.306 211.56> 607 132<113 225 362 501>
VStem: 217 64<-186.62 -114.093>
AnchorPoint: "bot_acc" 100 -389 basechar 0
AnchorPoint: "dotbelow" 100 -389 basechar 0
AnchorPoint: "ogon_acc" 100 -389 basechar 0
AnchorPoint: "top_accu" 344 875 basechar 0
AnchorPoint: "dotabove" 344 875 basechar 0
LayerCount: 2
Fore
SplineSet
70 -170 m 1
 138 -170 l 1
 145 -184 159 -192 175 -192 c 0
 198 -192 217 -174 217 -150 c 0
 217 -127 198 -108 175 -108 c 0
 159 -108 145 -117 138 -130 c 1
 89 -104 l 1
 160 0 l 1
 112 0 l 1
 225 607 l 1
 89 607 l 1
 113 739 l 1
 525 739 l 1
 501 607 l 1
 362 607 l 1
 249 0 l 1
 221 0 l 1
 190 -46 l 1
 241 -53 281 -97 281 -150 c 0
 281 -209 233 -256 175 -256 c 0
 123 -256 80 -219 70 -170 c 1
EndSplineSet
Validated: 1
AlternateSubs2: "'aalt' Access All Alternates lookup 0 subtable" tcedilla.sc
AlternateSubs2: "'aalt' Access All Alternates in Latin lookup 0 subtable" tcedilla.sc uni021A
Ligature2: "ccmp_lig subtable" T cedillacmb
Substitution2: "'c2sc' Capitals to Small Capitals in Latin lookup 13 subtable" tcedilla.sc
Position2: "'cpsp' Capital Spacing in Latin lookup 13 subtable" dx=7 dy=0 dh=14 dv=0
Substitution2: "locl_ROM subtable" uni021A
EndChar

StartChar: tcedilla
Encoding: 307 355 168
Width: 300
VWidth: 0
GlyphClass: 3
Flags: W
TeX: 665 -250
HStem: -256 64<54.3064 141.56> 433 121<82 124 280 337> 719 20G<177.324 314>
VStem: 147 64<-186.62 -114.093>
AnchorPoint: "bot_acc" 30 -389 basechar 0
AnchorPoint: "dotbelow" 30 -389 basechar 0
AnchorPoint: "ogon_acc" 30 -389 basechar 0
AnchorPoint: "top_accl" 275 885 basechar 0
AnchorPoint: "dotabove" 275 885 basechar 0
AnchorPoint: "ccmped" 441 716 basechar 0
LayerCount: 2
Fore
SplineSet
0 -170 m 1
 68 -170 l 1
 75 -184 89 -192 105 -192 c 0
 128 -192 147 -174 147 -150 c 0
 147 -127 128 -108 105 -108 c 0
 89 -108 75 -117 68 -130 c 1
 19 -104 l 1
 90 0 l 1
 44 0 l 1
 124 433 l 1
 59 433 l 1
 82 554 l 1
 147 554 l 1
 181 739 l 1
 314 739 l 1
 280 554 l 1
 360 554 l 1
 337 433 l 1
 257 433 l 1
 177 0 l 1
 151 0 l 1
 120 -46 l 1
 171 -53 211 -97 211 -150 c 0
 211 -209 163 -256 105 -256 c 0
 53 -256 10 -219 0 -170 c 1
EndSplineSet
Validated: 1
AlternateSubs2: "'aalt' Access All Alternates lookup 0 subtable" tcedilla.sc
AlternateSubs2: "'aalt' Access All Alternates in Latin lookup 0 subtable" tcedilla.sc uni021B
Ligature2: "ccmp_lig subtable" t cedillacmb
Substitution2: "'smcp' Lowercase to Small Capitals in Latin lookup 2 subtable" tcedilla.sc
Substitution2: "locl_ROM subtable" uni021B
EndChar

StartChar: dcroat
Encoding: 308 273 169
Width: 660
VWidth: 0
Flags: W
TeX: 739 -13
HStem: -13 122<244.767 382.009> 0 21G<461 586.721> 452 122<296.368 458.648> 602 87<465 562 711 755> 719 20G<583.4 720>
VStem: 47 137<168.669 337.013>
LayerCount: 2
Fore
SplineSet
47 220 m 0xbc
 47 407 206 574 385 574 c 0
 453 574 513 548 543 505 c 1
 562 602 l 1
 449 602 l 1
 465 689 l 1
 578 689 l 1
 587 739 l 1
 720 739 l 1
 711 689 l 1
 771 689 l 1
 755 602 l 1
 695 602 l 1
 583 0 l 1
 461 0 l 1x7c
 475 72 l 1
 412 13 350 -13 276 -13 c 0
 139 -13 47 80 47 220 c 0xbc
184 248 m 0
 184 165 240 109 321 109 c 0xbc
 423 109 516 207 516 314 c 0
 516 396 463 452 383 452 c 0
 275 452 184 359 184 248 c 0
EndSplineSet
Validated: 1
AlternateSubs2: "'aalt' Access All Alternates lookup 0 subtable" dcroat.sc
AlternateSubs2: "'aalt' Access All Alternates in Latin lookup 0 subtable" dcroat.sc
Substitution2: "'smcp' Lowercase to Small Capitals in Latin lookup 2 subtable" dcroat.sc
EndChar

StartChar: uni203D
Encoding: 309 8253 170
Width: 560
VWidth: 0
Flags: W
TeX: 839 0
HStem: 0 128<178 289>
VStem: 418 137<482.205 596.385>
LayerCount: 2
Fore
SplineSet
98 520 m 1
 124 631 197 712 292 740 c 1
 310 839 l 1
 443 839 l 1
 426 745 l 1
 504 724 554 657 555 568 c 0
 555 522 540 473 515 437 c 0
 498 412 475 392 415 344 c 0
 360 301 337 275 327 215 c 2
 322 187 l 1
 189 187 l 1
 263 584 l 1
 250 569 239 548 231 520 c 1
 98 520 l 1
156 0 m 1
 178 128 l 1
 311 128 l 1
 289 0 l 1
 156 0 l 1
372 454 m 1
 401 481 418 514 418 546 c 0
 418 567 411 584 398 597 c 1
 372 454 l 1
EndSplineSet
Validated: 1
EndChar

StartChar: paragraph.alt
Encoding: 310 -1 171
Width: 424
VWidth: 0
Flags: W
TeX: 739 -128
HStem: 719 20G<359 447>
LayerCount: 2
Fore
SplineSet
102 489 m 0
 102 558 135 630 186 675 c 0
 239 721 303 739 415 739 c 2
 447 739 l 1
 287 -128 l 1
 186 -128 l 1
 271 330 l 1
 161 336 102 392 102 489 c 0
EndSplineSet
Validated: 1
EndChar

StartChar: zero.taboldstyle
Encoding: 311 -1 172
Width: 560
VWidth: 0
Flags: W
TeX: 572 -13
HStem: -13 122<179.996 356.307> 450 122<238.755 416.647>
VStem: 37 130<125.616 252.75> 428 136<323.839 437.363>
LayerCount: 2
Fore
SplineSet
37 185 m 0
 37 204 37 216 41 237 c 2
 62 348 l 2
 91 504 198 572 349 572 c 0
 477 572 564 530 564 417 c 0
 564 397 562 376 558 355 c 2
 533 217 l 2
 502 48 391 -13 250 -13 c 0
 116 -13 37 61 37 185 c 0
167 177 m 0
 167 107 213 109 270 109 c 0
 334 109 380 118 400 217 c 2
 424 348 l 2
 428 362 428 376 428 390 c 0
 428 447 388 450 329 450 c 0
 258 450 210 430 195 348 c 2
 171 221 l 2
 169 207 167 192 167 177 c 0
EndSplineSet
Validated: 33
AlternateSubs2: "'aalt' Access All Alternates lookup 0 subtable" zero.oldstyle zero
AlternateSubs2: "'aalt' Access All Alternates in Latin lookup 0 subtable" zero.oldstyle zero
Substitution2: "'pnum' Proportional Numbers in Latin lookup 5 subtable" zero.oldstyle
Substitution2: "'lnum' Lining Figures in Latin lookup 4 subtable" zero
EndChar

StartChar: one.taboldstyle
Encoding: 312 -1 173
Width: 560
VWidth: 0
Flags: W
TeX: 554 0
HStem: 0 21G<216 352.682> 429 125<225 295>
VStem: 202 249
LayerCount: 2
Fore
SplineSet
202 429 m 1
 225 554 l 1
 451 554 l 1
 349 0 l 1
 216 0 l 1
 295 429 l 1
 202 429 l 1
EndSplineSet
Validated: 1
AlternateSubs2: "'aalt' Access All Alternates lookup 0 subtable" one.oldstyle one
AlternateSubs2: "'aalt' Access All Alternates in Latin lookup 0 subtable" one.oldstyle one
Substitution2: "'pnum' Proportional Numbers in Latin lookup 5 subtable" one.oldstyle
Substitution2: "'lnum' Lining Figures in Latin lookup 4 subtable" one
EndChar

StartChar: two.taboldstyle
Encoding: 313 -1 174
Width: 560
VWidth: 0
Flags: W
TeX: 570 0
HStem: 0 125<248 487> 448 122<243.6 417.72>
VStem: 425 137<327.34 439.597>
LayerCount: 2
Fore
SplineSet
12 0 m 1
 33 117 l 1
 319 258 l 2
 395 296 425 339 425 396 c 0
 425 445 392 448 348 448 c 0
 269 448 224 445 198 342 c 1
 67 342 l 1
 109 530 227 570 354 570 c 0
 472 570 562 533 562 419 c 0
 562 307 468 206 379 173 c 2
 248 125 l 1
 509 125 l 1
 487 0 l 1
 12 0 l 1
EndSplineSet
Validated: 1
AlternateSubs2: "'aalt' Access All Alternates lookup 0 subtable" two.oldstyle two
AlternateSubs2: "'aalt' Access All Alternates in Latin lookup 0 subtable" two.oldstyle two
Substitution2: "'pnum' Proportional Numbers in Latin lookup 5 subtable" two.oldstyle
Substitution2: "'lnum' Lining Figures in Latin lookup 4 subtable" two
EndChar

StartChar: four.taboldstyle
Encoding: 314 -1 175
Width: 560
VWidth: 0
Flags: W
TeX: 554 -111
HStem: 0 118<126 289 443 500> 534 20G<393.074 524>
LayerCount: 2
Fore
SplineSet
-30 0 m 1
 -11 107 l 1
 412 554 l 1
 524 554 l 1
 443 118 l 1
 521 118 l 1
 500 0 l 1
 422 0 l 1
 401 -111 l 1
 268 -111 l 1
 289 0 l 1
 -30 0 l 1
126 118 m 1
 310 118 l 1
 355 360 l 1
 126 118 l 1
EndSplineSet
Validated: 1
AlternateSubs2: "'aalt' Access All Alternates lookup 0 subtable" four.oldstyle four
AlternateSubs2: "'aalt' Access All Alternates in Latin lookup 0 subtable" four.oldstyle four
Substitution2: "'pnum' Proportional Numbers in Latin lookup 5 subtable" four.oldstyle
Substitution2: "'lnum' Lining Figures in Latin lookup 4 subtable" four
EndChar

StartChar: three.taboldstyle
Encoding: 315 -1 176
Width: 560
VWidth: 0
Flags: W
TeX: 572 -193
HStem: -193 122<161.29 292.589> 176 128<244 323.295> 450 122<269.819 361.532>
VStem: -10 137<-36.2609 44> 365 137<2.55128 137.675 330.581 443.654>
LayerCount: 2
Fore
SplineSet
-10 4 m 0
 -10 13 -9 27 -7 44 c 1
 127 44 l 1
 127 37 l 2
 127 -29 164 -71 224 -71 c 0
 304 -71 365 6 365 75 c 0
 365 131 325 176 243 176 c 2
 220 176 l 1
 244 304 l 1
 333 306 371 335 371 395 c 0
 371 429 352 450 321 450 c 0
 284 450 257 426 246 383 c 1
 111 383 l 1
 142 505 237 572 342 572 c 0
 442 572 508 508 508 411 c 0
 508 337 479 283 419 246 c 1
 478 213 502 172 502 106 c 0
 502 -58 366 -193 201 -193 c 0
 75 -193 -10 -108 -10 4 c 0
EndSplineSet
Validated: 1
AlternateSubs2: "'aalt' Access All Alternates lookup 0 subtable" three.oldstyle three
AlternateSubs2: "'aalt' Access All Alternates in Latin lookup 0 subtable" three.oldstyle three
Substitution2: "'pnum' Proportional Numbers in Latin lookup 5 subtable" three.oldstyle
Substitution2: "'lnum' Lining Figures in Latin lookup 4 subtable" three
EndChar

StartChar: five.taboldstyle
Encoding: 316 -1 177
Width: 560
VWidth: 0
Flags: W
TeX: 554 -198
HStem: -198 122<155.953 290.934> 192 122<216.069 333.49> 429 125<265 499>
VStem: -14 136<-39.9941 36> 369 137<8.41154 156.742>
LayerCount: 2
Fore
SplineSet
-14 -2 m 0
 -14 6 -13 19 -11 36 c 1
 122 36 l 1
 122 -35 157 -76 222 -76 c 0
 303 -76 369 4 369 90 c 0
 369 151 329 192 271 192 c 0
 230 192 200 177 159 136 c 1
 47 168 l 1
 188 554 l 1
 522 554 l 1
 499 429 l 1
 265 429 l 1
 215 293 l 1
 261 309 283 314 316 314 c 0
 432 314 506 235 506 113 c 0
 506 -48 366 -198 200 -198 c 0
 78 -198 -14 -105 -14 -2 c 0
EndSplineSet
Validated: 1
AlternateSubs2: "'aalt' Access All Alternates lookup 0 subtable" five.oldstyle five
AlternateSubs2: "'aalt' Access All Alternates in Latin lookup 0 subtable" five.oldstyle five
Substitution2: "'pnum' Proportional Numbers in Latin lookup 5 subtable" five.oldstyle
Substitution2: "'lnum' Lining Figures in Latin lookup 4 subtable" five
EndChar

StartChar: six.taboldstyle
Encoding: 317 -1 178
Width: 560
VWidth: 0
Flags: W
TeX: 739 -13
HStem: -13 122<204.978 340.62> 369 117<275.5 441.5> 719 20G<375.966 552>
VStem: 32 137<143.474 291.839> 417 137<193.091 332.542>
LayerCount: 2
Fore
SplineSet
32 184 m 0
 32 275 67 356 146 449 c 2
 393 739 l 1
 552 739 l 1
 326 476 l 1
 351 484 364 486 389 486 c 0
 494 486 554 409 554 302 c 0
 554 145 418 -13 246 -13 c 0
 122 -13 32 74 32 184 c 0
169 209 m 0
 169 148 208 109 271 109 c 0
 350 109 417 182 417 267 c 0
 417 328 377 369 317 369 c 0
 234 369 169 298 169 209 c 0
EndSplineSet
Validated: 1
AlternateSubs2: "'aalt' Access All Alternates lookup 0 subtable" six.oldstyle six
AlternateSubs2: "'aalt' Access All Alternates in Latin lookup 0 subtable" six.oldstyle six
Substitution2: "'pnum' Proportional Numbers in Latin lookup 5 subtable" six.oldstyle
Substitution2: "'lnum' Lining Figures in Latin lookup 4 subtable" six
EndChar

StartChar: seven.taboldstyle
Encoding: 318 -1 179
Width: 560
VWidth: 0
Flags: W
TeX: 554 -185
HStem: -185 21G<21 182.378> 429 125<139 409>
LayerCount: 2
Fore
SplineSet
21 -185 m 1
 409 429 l 1
 116 429 l 1
 139 554 l 1
 573 554 l 1
 550 429 l 1
 170 -185 l 1
 21 -185 l 1
EndSplineSet
Validated: 1
AlternateSubs2: "'aalt' Access All Alternates lookup 0 subtable" seven.oldstyle seven
AlternateSubs2: "'aalt' Access All Alternates in Latin lookup 0 subtable" seven.oldstyle seven
Substitution2: "'pnum' Proportional Numbers in Latin lookup 5 subtable" seven.oldstyle
Substitution2: "'lnum' Lining Figures in Latin lookup 4 subtable" seven
EndChar

StartChar: eight.taboldstyle
Encoding: 319 -1 180
Width: 560
VWidth: 0
Flags: W
TeX: 739 -13
HStem: -13 122<208.19 334.831> 341 128<286.616 368.654> 630 122<309.574 410.716>
VStem: 39 137<140.09 273.338> 142 128<484.161 591.578> 400 137<176.405 309.375> 424 128<505.869 616.881>
LayerCount: 2
Fore
SplineSet
39 190 m 0xf4
 39 275 87 367 180 411 c 1
 151 451 142 476 142 513 c 0
 142 637 260 752 388 752 c 0
 484 752 552 687 552 595 c 0xea
 552 528 526 455 462 411 c 1
 515 377 537 342 537 274 c 0
 537 123 398 -13 244 -13 c 0
 120 -13 39 67 39 190 c 0xf4
176 203 m 0xf4
 176 146 213 109 268 109 c 0
 337 109 400 175 400 247 c 0
 400 302 362 341 309 341 c 0
 240 341 176 275 176 203 c 0xf4
270 532 m 0xea
 270 497 297 469 332 469 c 0
 380 469 424 515 424 565 c 0
 424 606 401 630 363 630 c 0
 315 630 270 583 270 532 c 0xea
EndSplineSet
Validated: 1
AlternateSubs2: "'aalt' Access All Alternates lookup 0 subtable" eight.oldstyle eight
AlternateSubs2: "'aalt' Access All Alternates in Latin lookup 0 subtable" eight.oldstyle eight
Substitution2: "'pnum' Proportional Numbers in Latin lookup 5 subtable" eight.oldstyle
Substitution2: "'lnum' Lining Figures in Latin lookup 4 subtable" eight
EndChar

StartChar: nine.taboldstyle
Encoding: 320 -1 181
Width: 560
VWidth: 0
Flags: W
TeX: 572 -180
HStem: 71 117<159.5 321.5> 450 122<257.819 391.826>
VStem: 45 137<224.975 365.532> 428 137<266.339 415.558>
LayerCount: 2
Fore
SplineSet
45 -180 m 1
 272 83 l 1
 246 74 231 71 209 71 c 0
 110 71 45 145 45 257 c 0
 45 416 183 572 351 572 c 0
 476 572 565 489 565 374 c 0
 565 284 530 203 451 110 c 2
 204 -180 l 1
 45 -180 l 1
182 289 m 0
 182 230 223 188 280 188 c 0
 363 188 428 259 428 350 c 0
 428 410 387 450 327 450 c 0
 241 450 182 368 182 289 c 0
EndSplineSet
Validated: 1
AlternateSubs2: "'aalt' Access All Alternates lookup 0 subtable" nine.oldstyle nine
AlternateSubs2: "'aalt' Access All Alternates in Latin lookup 0 subtable" nine.oldstyle nine
Substitution2: "'pnum' Proportional Numbers in Latin lookup 5 subtable" nine.oldstyle
Substitution2: "'lnum' Lining Figures in Latin lookup 4 subtable" nine
EndChar

StartChar: Eng
Encoding: 321 330 182
Width: 740
VWidth: 0
Flags: W
TeX: 739 0
HStem: -250 132<366.445 463.143> 0 21G<38 178.724> 719 20G<171.292 338.658 633.283 774>
LayerCount: 2
Fore
SplineSet
38 0 m 1
 175 739 l 1
 331 739 l 1
 537 201 l 1
 637 739 l 1
 774 739 l 1
 632 -25 l 2
 603 -175 504 -250 391 -250 c 0
 289 -250 217 -187 217 -97 c 0
 217 -88 218 -76 219 -62 c 1
 356 -62 l 1
 353 -95 379 -118 412 -118 c 0
 457 -118 484 -87 496 -21 c 1
 275 537 l 1
 175 0 l 1
 38 0 l 1
EndSplineSet
Validated: 33
AlternateSubs2: "'aalt' Access All Alternates lookup 0 subtable" eng.sc
AlternateSubs2: "'aalt' Access All Alternates in Latin lookup 0 subtable" eng.sc
Substitution2: "'c2sc' Capitals to Small Capitals in Latin lookup 13 subtable" eng.sc
Position2: "'cpsp' Capital Spacing in Latin lookup 13 subtable" dx=7 dy=0 dh=14 dv=0
EndChar

StartChar: eng
Encoding: 322 331 183
Width: 600
VWidth: 0
Flags: W
TeX: 567 0
HStem: -185 21G<297.721 355> 0 21G<24 160.678> 445 122<308.173 420.663> 534 20G<123.282 250>
VStem: 442 141<244.961 423.28>
LayerCount: 2
Fore
SplineSet
24 0 m 1xe8
 127 554 l 1
 250 554 l 1xd8
 240 501 l 1
 301 550 344 567 405 567 c 0
 519 567 583 509 583 403 c 0
 583 375 579 341 571 297 c 2
 523 37 l 2
 500 -101 416 -182 294 -185 c 1
 318 -56 l 1
 368 -47 378 -34 391 40 c 2
 433 271 l 2
 439 304 442 334 442 363 c 0
 442 417 413 445 358 445 c 0
 288 445 233 415 205 261 c 2
 157 0 l 1
 24 0 l 1xe8
EndSplineSet
Validated: 1
AlternateSubs2: "'aalt' Access All Alternates lookup 0 subtable" eng.sc
AlternateSubs2: "'aalt' Access All Alternates in Latin lookup 0 subtable" eng.sc
Substitution2: "'smcp' Lowercase to Small Capitals in Latin lookup 2 subtable" eng.sc
EndChar

StartChar: at.alt
Encoding: 323 -1 184
Width: 740
VWidth: 0
Flags: W
TeX: 612 -167
HStem: -167 73<231.459 462.414> 0 106<250 377.513> 0 83<479 604.658> 311 112<346.01 456.628> 539 73<342.453 578.199>
VStem: 5 68<53.9849 276.724> 158 124<121.106 246.649> 704 68<212.732 419>
LayerCount: 2
Fore
SplineSet
5 140 m 0xbf
 5 394 220 612 471 612 c 0
 646 612 772 514 772 329 c 0
 772 140 657 0 506 0 c 0xbf
 452 0 421 19 416 54 c 1
 384 17 346 0 291 0 c 0xdf
 209 0 158 53 158 138 c 0
 158 291 274 423 409 423 c 0
 462 423 493 406 515 365 c 1
 532 419 l 1
 629 419 l 1
 540 124 l 2
 539 120 536 102 536 99 c 0
 536 89 545 83 560 83 c 0
 626 83 704 200 704 322 c 0
 704 454 609 539 463 539 c 0
 251 539 73 363 73 153 c 0
 73 8 185 -94 351 -94 c 0
 411 -94 458 -80 513 -47 c 1
 548 -107 l 1
 473 -152 422 -167 339 -167 c 0
 133 -167 5 -33 5 140 c 0xbf
282 174 m 0
 282 131 306 106 347 106 c 0xdf
 411 106 469 172 469 244 c 0
 469 287 447 311 409 311 c 0
 342 311 282 246 282 174 c 0
EndSplineSet
Validated: 1
EndChar

StartChar: Gamma
Encoding: 324 915 185
Width: 480
VWidth: 0
Flags: W
TeX: 681 0
HStem: 0 21G<38 178.723> 607 132<288 527>
LayerCount: 2
Fore
SplineSet
38 0 m 1
 175 739 l 1
 551 739 l 1
 527 607 l 1
 288 607 l 1
 175 0 l 1
 38 0 l 1
EndSplineSet
Validated: 1
EndChar

StartChar: Lambda
Encoding: 325 923 186
Width: 740
VWidth: 0
Flags: W
TeX: 681 0
HStem: 0 21G<-23 139.429 547.897 703> 719 20G<409.957 534.682>
LayerCount: 2
Fore
SplineSet
-23 0 m 1
 422 739 l 1
 530 739 l 1
 703 0 l 1
 552 0 l 1
 440 546 l 1
 128 0 l 1
 -23 0 l 1
EndSplineSet
Validated: 1
EndChar

StartChar: Theta
Encoding: 326 920 187
Width: 840
VWidth: 0
Flags: W
TeX: 693 -12
HStem: -13 132<314.865 511.041> 301 138<323 583> 620 132<396.847 596.207>
VStem: 61 140<230.818 421.649> 705 140<314.945 512.994>
LayerCount: 2
Fore
SplineSet
61 300 m 0
 61 543 291 752 529 752 c 0
 713 752 845 622 845 439 c 0
 845 201 628 -13 386 -13 c 0
 197 -13 61 118 61 300 c 0
201 323 m 0
 201 204 288 119 410 119 c 0
 564 119 705 257 705 419 c 0
 705 536 620 620 502 620 c 0
 347 620 201 479 201 323 c 0
298 301 m 1
 323 439 l 1
 608 439 l 1
 583 301 l 1
 298 301 l 1
EndSplineSet
Validated: 1
EndChar

StartChar: Upsilon
Encoding: 327 933 188
Width: 620
VWidth: 0
Flags: W
TeX: 681 0
HStem: 0 21G<216 356.736> 719 20G<110 263.882 571.647 733>
LayerCount: 2
Fore
SplineSet
110 739 m 1
 258 739 l 1
 358 399 l 1
 585 739 l 1
 733 739 l 1
 404 273 l 1
 353 0 l 1
 216 0 l 1
 267 273 l 1
 110 739 l 1
EndSplineSet
Validated: 1
EndChar

StartChar: Xi
Encoding: 328 926 189
Width: 680
VWidth: 0
Flags: W
TeX: 681 0
HStem: 0 138<60 586> 301 138<256 501> 601 138<171 697>
LayerCount: 2
Fore
SplineSet
34 0 m 1
 60 138 l 1
 611 138 l 1
 586 0 l 1
 34 0 l 1
146 601 m 1
 171 739 l 1
 723 739 l 1
 697 601 l 1
 146 601 l 1
230 301 m 1
 256 439 l 1
 527 439 l 1
 501 301 l 1
 230 301 l 1
EndSplineSet
Validated: 1
EndChar

StartChar: Delta
Encoding: 329 916 190
Width: 606
VWidth: 0
Flags: W
TeX: 681 0
HStem: -1 135<188 449>
LayerCount: 2
Fore
SplineSet
-33 -1 m 1
 358 683 l 1
 472 683 l 1
 622 -1 l 1
 -33 -1 l 1
188 134 m 1
 449 134 l 1
 382 495 l 1
 188 134 l 1
EndSplineSet
Validated: 1
EndChar

StartChar: Omega
Encoding: 330 937 191
Width: 786
VWidth: 0
Flags: W
TeX: 693 0
HStem: -1 138<27 89 667 702> 562 135<461 544.542>
VStem: 44 143<213.514 393.612> 642 142<283.525 466.719>
LayerCount: 2
Fore
SplineSet
3 -1 m 1
 27 137 l 1
 89 137 l 1
 58 167 44 217 44 274 c 0
 44 294 46 316 50 338 c 0
 67 438 118 523 201 592 c 0
 284 661 376 697 477 697 c 0
 578 697 658 662 716 593 c 0
 761 540 784 477 784 405 c 0
 784 384 782 362 778 339 c 0
 764 260 723 178 667 137 c 1
 726 137 l 1
 702 -1 l 1
 453 -1 l 1
 462 134 l 1
 545 168 621 242 638 339 c 0
 640 353 642 367 642 381 c 0
 642 425 628 464 600 497 c 0
 565 538 519 560 461 562 c 1
 462 560 l 1
 326 560 212 461 191 338 c 0
 188 325 187 312 187 300 c 0
 187 221 232 163 295 134 c 1
 256 -1 l 1
 3 -1 l 1
EndSplineSet
Validated: 1
EndChar

StartChar: Pi
Encoding: 331 928 192
Width: 790
VWidth: 0
Flags: W
TeX: 739 0
HStem: 0 21G<26 170.534 397 541.538> 549 135<264 494>
LayerCount: 2
Fore
SplineSet
26 0 m 1
 147 684 l 1
 659 684 l 1
 538 0 l 1
 397 0 l 1
 494 549 l 1
 264 549 l 1
 167 0 l 1
 26 0 l 1
EndSplineSet
Validated: 1
EndChar

StartChar: Sigma
Encoding: 332 931 193
Width: 580
VWidth: 0
Flags: W
TeX: 681 0
HStem: 0 134<174 421> 549 135<258 498>
LayerCount: 2
Fore
SplineSet
-20 0 m 1
 -1 115 l 1
 179 351 l 1
 90 562 l 1
 112 684 l 1
 522 684 l 1
 498 549 l 1
 258 549 l 1
 341 351 l 1
 174 134 l 1
 445 134 l 1
 421 0 l 1
 -20 0 l 1
EndSplineSet
Validated: 1
EndChar

StartChar: lira
Encoding: 333 8356 194
Width: 560
VWidth: 0
Flags: W
TeX: 752 0
HStem: 0 125<32 185.795 313 394.022> 287 105<42 128 335 430> 417 105<66 111.146 262 454> 630 122<302.452 422.358>
VStem: 206 136<144.177 286.087> 440 135<176.383 274> 448 137<541 603.654>
LayerCount: 2
Fore
SplineSet
10 0 m 1xfc
 32 125 l 1
 172 125 l 1
 194 155 206 189 206 224 c 0
 205 245 199 266 186 287 c 1
 23 287 l 1
 42 392 l 1
 128 392 l 1
 117 417 l 1
 47 417 l 1
 66 522 l 1
 107 522 l 1
 132 647 254 752 387 752 c 0
 500 752 585 675 585 572 c 0
 585 565 584 555 583 541 c 1
 448 541 l 1xfa
 448 601 408 630 369 630 c 0
 311 630 257 582 243 522 c 1
 474 522 l 1
 454 417 l 1
 262 417 l 1
 277 392 l 1
 450 392 l 1
 430 287 l 1
 335 287 l 1
 340 269 341 253 342 234 c 0
 342 198 336 175 313 125 c 1
 323 125 l 2
 397 125 438 172 440 274 c 1
 572 274 l 1
 574 260 575 253 575 243 c 0
 575 192 537 118 489 73 c 0
 431 19 375 0 271 0 c 2
 10 0 l 1xfc
EndSplineSet
Validated: 1
EndChar

StartChar: partialdiff
Encoding: 334 8706 195
Width: 494
VWidth: 0
Flags: W
TeX: 753 0
HStem: -16 103<158.071 243.06> 331 103<215.961 344.887> 652 103<258.307 354.879>
LayerCount: 2
Fore
SplineSet
28 197 m 0
 51 321 149 434 264 434 c 0
 305 434 344 426 377 410 c 1
 397 529 400 652 298 652 c 0
 281 652 252 626 230 606 c 1
 138 709 l 1
 183 749 243 755 298 755 c 0
 480 755 546 559 508 357 c 0
 473 168 344 -16 174 -16 c 0
 66 -16 7 84 28 197 c 0
164 172 m 0
 157 134 148 87 174 87 c 0
 272 87 325 189 355 303 c 1
 330 321 299 331 264 331 c 0
 200 331 178 247 164 172 c 0
EndSplineSet
Validated: 33
EndChar

StartChar: eta
Encoding: 335 951 196
Width: 600
VWidth: 0
Flags: W
TeX: 567 -200
HStem: 0 21G<-6 130.678> 445 122<278.173 390.663> 534 20G<93.2816 220>
VStem: 412 141<249.664 423.28>
LayerCount: 2
Fore
SplineSet
-6 0 m 1xd0
 97 554 l 1
 220 554 l 1xb0
 210 501 l 1
 271 550 314 567 375 567 c 0
 489 567 553 509 553 403 c 0
 553 375 549 341 541 297 c 2
 449 -200 l 1
 316 -200 l 1
 403 271 l 2
 409 304 412 334 412 363 c 0
 412 417 383 445 328 445 c 0
 258 445 203 415 175 261 c 2
 127 0 l 1
 -6 0 l 1xd0
EndSplineSet
Validated: 1
EndChar

StartChar: numero
Encoding: 336 8470 197
Width: 1106
VWidth: 0
Flags: W
TeX: 739 0
HStem: 0 84<675 1028> 187 88<833.969 956.954> 473 84<865.954 983.765> 719 20G<141.292 308.658 603.283 744>
VStem: 723 88<298.591 417.014> 1009 89<326.702 448.057>
LayerCount: 2
Fore
SplineSet
8 0 m 1
 145 739 l 1
 301 739 l 1
 507 201 l 1
 607 739 l 1
 744 739 l 1
 607 0 l 1
 454 0 l 1
 245 537 l 1
 145 0 l 1
 8 0 l 1
659 0 m 1
 675 84 l 1
 1043 84 l 1
 1028 0 l 1
 659 0 l 1
723 337 m 0
 723 454 828 557 947 557 c 0
 1038 557 1098 496 1098 404 c 0
 1098 290 993 187 876 187 c 0
 791 187 723 253 723 337 c 0
811 353 m 0
 811 307 845 275 893 275 c 0
 954 275 1009 329 1009 389 c 0
 1009 437 976 473 930 473 c 0
 868 473 811 415 811 353 c 0
EndSplineSet
Validated: 1
EndChar

StartChar: a.sc
Encoding: 337 -1 198
Width: 637
VWidth: 0
GlyphClass: 2
Flags: W
TeX: 554 0
HStem: 0 21G<-18 145.185 441.519 592> 135 124<295 378> 534 20G<326.112 444.523>
AnchorPoint: "bot_acc" 261 -146 basechar 0
AnchorPoint: "dotbelow" 261 -146 basechar 0
AnchorPoint: "ogon_acc" 469 -146 basechar 0
AnchorPoint: "top_accl" 418 700 basechar 0
AnchorPoint: "dotabove" 418 700 basechar 0
LayerCount: 2
Fore
SplineSet
-18 0 m 1
 339 554 l 1
 439 554 l 1
 592 0 l 1
 447 0 l 1
 410 135 l 1
 221 135 l 1
 132 0 l 1
 -18 0 l 1
295 259 m 1
 378 259 l 1
 356 365 l 1
 295 259 l 1
EndSplineSet
Validated: 1
EndChar

StartChar: aogonek.sc
Encoding: 338 -1 199
Width: 637
VWidth: 0
GlyphClass: 3
Flags: W
TeX: 554 -251
HStem: -251 107<485.645 546.748> 0 21G<-18 145.185> 135 124<295 378> 534 20G<326.112 444.523>
VStem: 375 103<-138.253 -74.8914>
AnchorPoint: "bot_acc" 425 -384 basechar 0
AnchorPoint: "dotbelow" 425 -384 basechar 0
AnchorPoint: "ogon_acc" 425 -384 basechar 0
AnchorPoint: "top_accl" 417 700 basechar 0
AnchorPoint: "dotabove" 417 700 basechar 0
LayerCount: 2
Fore
SplineSet
-18 0 m 1
 339 554 l 1
 439 554 l 1
 592 0 l 1
 500 -23 478 -67 478 -95 c 0
 478 -119 492 -144 517 -144 c 0
 529 -144 545 -144 565 -141 c 1
 546 -244 l 1
 530 -249 515 -251 500 -251 c 0
 430 -251 375 -205 375 -134 c 0
 375 -86 415 -48 470 0 c 1
 447 0 l 1
 410 135 l 1
 221 135 l 1
 132 0 l 1
 -18 0 l 1
295 259 m 1
 378 259 l 1
 356 365 l 1
 295 259 l 1
EndSplineSet
Validated: 1
Ligature2: "ccmp_lig subtable" a.sc ogonekcomb
EndChar

StartChar: b.sc
Encoding: 339 -1 200
Width: 512
VWidth: 0
GlyphClass: 2
Flags: W
TeX: 554 0
HStem: 0 124<196 319.052> 227 125<238 333.928> 430 124<252 344.858>
VStem: 340 134<142.511 216.824> 346 135<364.083 426.504>
AnchorPoint: "bot_acc" 213 -146 basechar 0
AnchorPoint: "dotbelow" 213 -146 basechar 0
AnchorPoint: "ogon_acc" 86 -146 basechar 0
AnchorPoint: "top_accl" 370 700 basechar 0
AnchorPoint: "dotabove" 370 700 basechar 0
LayerCount: 2
Fore
SplineSet
40 0 m 1xf0
 142 554 l 1
 272 554 l 2
 363 554 396 548 428 527 c 0
 462 504 480 469 481 426 c 0xe8
 482 376 463 331 418 301 c 1
 458 279 474 249 474 202 c 0
 476 92 386 0 209 0 c 2
 40 0 l 1xf0
196 124 m 1
 232 124 l 2
 310 124 340 147 340 185 c 0xf0
 339 218 311 227 255 227 c 2
 215 227 l 1
 196 124 l 1
238 352 m 1
 256 352 l 2
 324 352 347 370 346 404 c 0xe8
 346 425 322 430 285 430 c 2
 252 430 l 1
 238 352 l 1
EndSplineSet
Validated: 33
EndChar

StartChar: c.sc
Encoding: 340 -1 201
Width: 641
VWidth: 0
GlyphClass: 2
Flags: W
TeX: 554 0
HStem: -9 123<248.4 418.974> 439 124<302.004 483.508>
VStem: 45 135<180.014 323.693>
AnchorPoint: "bot_acc" 280 -146 basechar 0
AnchorPoint: "dotbelow" 280 -146 basechar 0
AnchorPoint: "ogon_acc" 280 -146 basechar 0
AnchorPoint: "top_accl" 437 700 basechar 0
AnchorPoint: "dotabove" 437 700 basechar 0
LayerCount: 2
Fore
SplineSet
45 229 m 0
 42 401 217 563 408 563 c 0
 536 563 640 499 670 373 c 1
 526 373 l 1
 497 422 457 439 394 439 c 0
 286 439 178 353 180 247 c 0
 182 169 245 114 330 114 c 0
 384 114 424 131 480 176 c 1
 634 176 l 1
 577 65 447 -9 314 -9 c 0
 158 -9 48 94 45 229 c 0
EndSplineSet
Validated: 33
EndChar

StartChar: ccedilla.sc
Encoding: 341 -1 202
Width: 641
VWidth: 0
GlyphClass: 3
Flags: W
TeX: 554 -256
HStem: -256 64<257.358 344.761> 439 124<302.004 483.508>
VStem: 45 135<178.778 323.693> 350 64<-186.62 -114.093>
AnchorPoint: "bot_acc" 234 -389 basechar 0
AnchorPoint: "dotbelow" 234 -389 basechar 0
AnchorPoint: "ogon_acc" 234 -389 basechar 0
AnchorPoint: "top_accl" 433 700 basechar 0
AnchorPoint: "dotabove" 433 700 basechar 0
LayerCount: 2
Fore
SplineSet
45 229 m 0
 42 401 217 563 408 563 c 0
 536 563 640 499 670 373 c 1
 526 373 l 1
 497 422 457 439 394 439 c 0
 286 439 178 353 180 247 c 0
 182 169 245 114 330 114 c 0
 384 114 424 131 480 176 c 1
 634 176 l 1
 582 75 469 4 349 -7 c 1
 323 -46 l 1
 375 -53 414 -97 414 -150 c 0
 414 -209 367 -256 308 -256 c 0
 256 -256 213 -219 204 -170 c 1
 271 -170 l 1
 278 -184 292 -192 308 -192 c 0
 331 -192 350 -174 350 -150 c 0
 350 -127 331 -108 308 -108 c 0
 292 -108 278 -117 271 -130 c 1
 223 -104 l 1
 288 -8 l 1
 146 3 48 101 45 229 c 0
EndSplineSet
Validated: 33
Ligature2: "ccmp_lig subtable" c.sc cedillacmb
EndChar

StartChar: d.sc
Encoding: 342 -1 203
Width: 593
VWidth: 0
GlyphClass: 2
Flags: W
TeX: 554 0
HStem: 0 123<196 338.634> 431 123<253 391.45>
VStem: 447 135<228.319 383.163>
AnchorPoint: "bot_acc" 253 -146 basechar 0
AnchorPoint: "dotbelow" 253 -146 basechar 0
AnchorPoint: "ogon_acc" 67 -146 basechar 0
AnchorPoint: "top_accl" 410 700 basechar 0
AnchorPoint: "dotabove" 410 700 basechar 0
LayerCount: 2
Fore
SplineSet
40 0 m 1
 142 554 l 1
 285 554 l 2
 501 554 579 472 582 336 c 0
 584 225 524 113 433 54 c 0
 373 16 303 0 190 0 c 2
 40 0 l 1
196 123 m 1
 203 123 l 2
 295 123 347 137 388 177 c 0
 427 214 448 262 447 313 c 0
 446 393 400 431 264 431 c 2
 253 431 l 1
 196 123 l 1
EndSplineSet
Validated: 33
EndChar

StartChar: e.sc
Encoding: 343 -1 204
Width: 450
VWidth: 0
GlyphClass: 2
Flags: W
TeX: 554 0
HStem: 0 124<196 376> 215 123<235 407> 430 124<253 456>
AnchorPoint: "bot_acc" 181 -146 basechar 0
AnchorPoint: "dotbelow" 181 -146 basechar 0
AnchorPoint: "ogon_acc" 253 -146 basechar 0
AnchorPoint: "top_accl" 338 700 basechar 0
AnchorPoint: "dotabove" 338 700 basechar 0
LayerCount: 2
Fore
SplineSet
40 0 m 1
 142 554 l 1
 478 554 l 1
 456 430 l 1
 253 430 l 1
 235 338 l 1
 429 338 l 1
 407 215 l 1
 213 215 l 1
 196 124 l 1
 398 124 l 1
 376 0 l 1
 40 0 l 1
EndSplineSet
Validated: 1
EndChar

StartChar: eogonek.sc
Encoding: 344 -1 205
Width: 450
VWidth: 0
GlyphClass: 3
Flags: W
TeX: 554 -251
HStem: -251 107<269.982 331.662> 0 124<196 254 319.953 376> 215 123<235 407> 430 124<253 456>
VStem: 160 103<-138.514 -73.1005>
AnchorPoint: "bot_acc" 209 -384 basechar 0
AnchorPoint: "dotbelow" 209 -384 basechar 0
AnchorPoint: "ogon_acc" 209 -384 basechar 0
AnchorPoint: "top_accl" 338 700 basechar 0
AnchorPoint: "dotabove" 338 700 basechar 0
LayerCount: 2
Fore
SplineSet
40 0 m 1
 142 554 l 1
 478 554 l 1
 456 430 l 1
 253 430 l 1
 235 338 l 1
 429 338 l 1
 407 215 l 1
 213 215 l 1
 196 124 l 1
 398 124 l 1
 376 0 l 1
 285 -23 263 -67 263 -95 c 0
 263 -119 276 -144 301 -144 c 0
 313 -144 329 -144 349 -141 c 1
 331 -244 l 1
 315 -249 299 -251 284 -251 c 0
 214 -251 160 -205 160 -134 c 0
 160 -86 199 -48 254 0 c 1
 40 0 l 1
EndSplineSet
Validated: 1
Ligature2: "ccmp_lig subtable" e.sc ogonekcomb
EndChar

StartChar: f.sc
Encoding: 345 -1 206
Width: 419
VWidth: 0
GlyphClass: 2
Flags: W
TeX: 554 0
HStem: 0 21G<40 176.721> 215 123<235 390> 430 124<253 439>
AnchorPoint: "bot_acc" 173 -146 basechar 0
AnchorPoint: "dotbelow" 173 -146 basechar 0
AnchorPoint: "ogon_acc" 50 -146 basechar 0
AnchorPoint: "top_accl" 329 700 basechar 0
AnchorPoint: "dotabove" 329 700 basechar 0
LayerCount: 2
Fore
SplineSet
40 0 m 1
 142 554 l 1
 462 554 l 1
 439 430 l 1
 253 430 l 1
 235 338 l 1
 413 338 l 1
 390 215 l 1
 213 215 l 1
 173 0 l 1
 40 0 l 1
EndSplineSet
Validated: 1
EndChar

StartChar: g.sc
Encoding: 346 -1 207
Width: 688
VWidth: 0
GlyphClass: 2
Flags: W
TeX: 554 0
HStem: -9 123<246.534 432.038> 176 121<292 493> 439 124<306.475 488.081>
VStem: 45 135<177.525 322.992>
AnchorPoint: "bot_acc" 288 -146 basechar 0
AnchorPoint: "dotbelow" 288 -146 basechar 0
AnchorPoint: "ogon_acc" 288 -146 basechar 0
AnchorPoint: "top_accl" 445 700 basechar 0
AnchorPoint: "dotabove" 445 700 basechar 0
LayerCount: 2
Fore
SplineSet
45 227 m 0
 42 402 218 563 417 563 c 0
 559 563 675 472 683 370 c 1
 536 370 l 1
 503 423 454 439 401 439 c 0
 278 439 178 347 180 245 c 0
 181 169 244 114 338 114 c 0
 398 114 453 137 493 176 c 1
 269 176 l 1
 292 297 l 1
 692 297 l 1
 689 140 513 -9 326 -9 c 0
 162 -9 47 90 45 227 c 0
EndSplineSet
Validated: 33
EndChar

StartChar: h.sc
Encoding: 347 -1 208
Width: 590
VWidth: 0
GlyphClass: 2
Flags: W
TeX: 554 0
HStem: 0 21G<40 176.636 352 489.682> 220 123<237 393> 534 20G<138.318 276 451.303 588>
AnchorPoint: "bot_acc" 236 -146 basechar 0
AnchorPoint: "dotbelow" 236 -146 basechar 0
AnchorPoint: "ogon_acc" 362 -146 basechar 0
AnchorPoint: "top_accl" 393 700 basechar 0
AnchorPoint: "dotabove" 393 700 basechar 0
LayerCount: 2
Fore
SplineSet
40 0 m 1
 142 554 l 1
 276 554 l 1
 237 343 l 1
 416 343 l 1
 455 554 l 1
 588 554 l 1
 486 0 l 1
 352 0 l 1
 393 220 l 1
 213 220 l 1
 173 0 l 1
 40 0 l 1
EndSplineSet
Validated: 1
EndChar

StartChar: i.sc
Encoding: 348 -1 209
Width: 278
VWidth: 0
GlyphClass: 2
Flags: W
TeX: 554 0
HStem: 0 21G<40 176.718> 534 20G<138.318 276>
VStem: 40 236
AnchorPoint: "bot_acc" 80 -146 basechar 0
AnchorPoint: "dotbelow" 80 -146 basechar 0
AnchorPoint: "ogon_acc" 50 -146 basechar 0
AnchorPoint: "top_accl" 236 700 basechar 0
AnchorPoint: "dotabove" 236 700 basechar 0
LayerCount: 2
Fore
SplineSet
40 0 m 1
 142 554 l 1
 276 554 l 1
 173 0 l 1
 40 0 l 1
EndSplineSet
Validated: 1
EndChar

StartChar: iogonek.sc
Encoding: 349 -1 210
Width: 278
VWidth: 0
GlyphClass: 3
Flags: W
TeX: 554 -251
HStem: -251 107<66.9816 128.662> 534 20G<138.318 276>
VStem: -43 103<-138.514 -73.1005>
AnchorPoint: "bot_acc" 6 -384 basechar 0
AnchorPoint: "dotbelow" 6 -384 basechar 0
AnchorPoint: "ogon_acc" 6 -384 basechar 0
AnchorPoint: "top_accl" 236 700 basechar 0
AnchorPoint: "dotabove" 236 700 basechar 0
LayerCount: 2
Fore
SplineSet
-43 -134 m 0
 -43 -86 -4 -48 51 0 c 1
 40 0 l 1
 142 554 l 1
 276 554 l 1
 173 0 l 1
 82 -23 60 -67 60 -95 c 0
 60 -119 73 -144 98 -144 c 0
 110 -144 126 -144 146 -141 c 1
 128 -244 l 1
 112 -249 96 -251 81 -251 c 0
 11 -251 -43 -205 -43 -134 c 0
EndSplineSet
Validated: 1
Ligature2: "ccmp_lig subtable" i.sc ogonekcomb
EndChar

StartChar: j.sc
Encoding: 350 -1 211
Width: 434
VWidth: 0
GlyphClass: 2
Flags: W
TeX: 554 0
HStem: -9 123<154.054 220.396> 534 20G<301.292 439>
AnchorPoint: "bot_acc" 243 -146 basechar 0
AnchorPoint: "dotbelow" 243 -146 basechar 0
AnchorPoint: "ogon_acc" 108 -146 basechar 0
AnchorPoint: "top_accl" 399 700 basechar 0
AnchorPoint: "dotabove" 399 700 basechar 0
LayerCount: 2
Fore
SplineSet
18 114 m 0
 17 122 19 139 19 154 c 1
 153 154 l 1
 152 137 l 2
 155 121 165 114 183 114 c 0
 211 114 227 133 234 171 c 2
 305 554 l 1
 439 554 l 1
 366 162 l 2
 344 48 262 -9 168 -9 c 0
 80 -9 19 43 18 114 c 0
EndSplineSet
Validated: 33
EndChar

StartChar: k.sc
Encoding: 351 -1 212
Width: 543
VWidth: 0
GlyphClass: 2
Flags: W
TeX: 554 0
HStem: 0 21G<40 176.654 323.077 495> 534 20G<138.318 276 414.5 602>
AnchorPoint: "bot_acc" 222 -146 basechar 0
AnchorPoint: "dotbelow" 222 -146 basechar 0
AnchorPoint: "ogon_acc" 372 -146 basechar 0
AnchorPoint: "top_accl" 379 700 basechar 0
AnchorPoint: "dotabove" 379 700 basechar 0
LayerCount: 2
Fore
SplineSet
40 0 m 1
 142 554 l 1
 276 554 l 1
 239 354 l 1
 434 554 l 1
 602 554 l 1
 321 279 l 1
 495 0 l 1
 335 0 l 1
 211 208 l 1
 173 0 l 1
 40 0 l 1
EndSplineSet
Validated: 1
EndChar

StartChar: l.sc
Encoding: 352 -1 213
Width: 388
VWidth: 0
GlyphClass: 2
Flags: W
TeX: 554 0
HStem: 0 124<196 350> 534 20G<138.318 276>
VStem: 40 332
AnchorPoint: "bot_acc" 168 -146 basechar 0
AnchorPoint: "dotbelow" 168 -146 basechar 0
AnchorPoint: "ogon_acc" 227 -146 basechar 0
AnchorPoint: "top_accl" 236 700 basechar 0
AnchorPoint: "dotabove" 236 700 basechar 0
LayerCount: 2
Fore
SplineSet
40 0 m 1
 142 554 l 1
 276 554 l 1
 196 124 l 1
 372 124 l 1
 350 0 l 1
 40 0 l 1
EndSplineSet
Validated: 1
EndChar

StartChar: lslash.sc
Encoding: 353 -1 214
Width: 419
VWidth: 0
GlyphClass: 2
Flags: W
TeX: 554 0
HStem: 0 121<228 383> 534 20G<171.29 308>
AnchorPoint: "bot_acc" 200 -146 basechar 0
AnchorPoint: "dotbelow" 200 -146 basechar 0
AnchorPoint: "ogon_acc" 260 -146 basechar 0
AnchorPoint: "top_accl" 269 700 basechar 0
AnchorPoint: "dotabove" 269 700 basechar 0
LayerCount: 2
Fore
SplineSet
20 119 m 1
 44 250 l 1
 129 306 l 1
 175 554 l 1
 308 554 l 1
 276 377 l 1
 401 455 l 1
 377 325 l 1
 251 246 l 1
 228 121 l 1
 405 121 l 1
 383 0 l 1
 72 0 l 1
 105 175 l 1
 20 119 l 1
EndSplineSet
Validated: 1
EndChar

StartChar: m.sc
Encoding: 354 -1 215
Width: 761
VWidth: 0
GlyphClass: 2
Flags: W
TeX: 554 0
HStem: 0 21G<40 176.728 299.036 418.386 535 671.682> 534 20G<138.318 314.053 589.533 770>
AnchorPoint: "bot_acc" 327 -146 basechar 0
AnchorPoint: "dotbelow" 327 -146 basechar 0
AnchorPoint: "ogon_acc" 545 -146 basechar 0
AnchorPoint: "top_accl" 484 700 basechar 0
AnchorPoint: "dotabove" 484 700 basechar 0
LayerCount: 2
Fore
SplineSet
40 0 m 1
 142 554 l 1
 310 554 l 1
 386 179 l 1
 601 554 l 1
 770 554 l 1
 668 0 l 1
 535 0 l 1
 596 332 l 1
 407 0 l 1
 303 0 l 1
 236 338 l 1
 173 0 l 1
 40 0 l 1
EndSplineSet
Validated: 1
EndChar

StartChar: n.sc
Encoding: 355 -1 216
Width: 637
VWidth: 0
GlyphClass: 2
Flags: W
TeX: 554 0
HStem: 0 21G<40 176.704 386.054 536.718> 534 20G<138.318 290.807 498.307 636>
AnchorPoint: "bot_acc" 260 -146 basechar 0
AnchorPoint: "dotbelow" 260 -146 basechar 0
AnchorPoint: "ogon_acc" 410 -146 basechar 0
AnchorPoint: "top_accl" 417 700 basechar 0
AnchorPoint: "dotabove" 417 700 basechar 0
LayerCount: 2
Fore
SplineSet
40 0 m 1
 142 554 l 1
 282 554 l 1
 437 202 l 1
 502 554 l 1
 636 554 l 1
 533 0 l 1
 395 0 l 1
 238 351 l 1
 173 0 l 1
 40 0 l 1
EndSplineSet
Validated: 1
EndChar

StartChar: eng.sc
Encoding: 356 -1 217
Width: 637
VWidth: 0
Flags: W
TeX: 554 -246
HStem: -246 123<307.054 373.487> 0 21G<40 176.704> 534 20G<138.318 290.807 498.307 636>
LayerCount: 2
Fore
SplineSet
40 0 m 1
 142 554 l 1
 282 554 l 1
 437 202 l 1
 502 554 l 1
 636 554 l 1
 519 -75 l 2
 497 -189 416 -246 321 -246 c 0
 233 -246 172 -194 171 -123 c 0
 171 -115 172 -98 173 -83 c 1
 307 -83 l 1
 305 -100 l 1
 308 -116 318 -123 336 -123 c 0
 360 -123 381 -100 386 -75 c 2
 398 -6 l 1
 238 351 l 1
 173 0 l 1
 40 0 l 1
EndSplineSet
Validated: 1
EndChar

StartChar: o.sc
Encoding: 357 -1 218
Width: 691
VWidth: 0
GlyphClass: 2
Flags: W
TeX: 554 0
HStem: -9 123<245.643 424.477> 439 124<303.645 479.256>
VStem: 45 135<177.812 324.477> 545 135<230.1 375.805>
AnchorPoint: "bot_acc" 288 -146 basechar 0
AnchorPoint: "dotbelow" 288 -146 basechar 0
AnchorPoint: "ogon_acc" 288 -146 basechar 0
AnchorPoint: "top_accl" 445 700 basechar 0
AnchorPoint: "dotabove" 445 700 basechar 0
LayerCount: 2
Fore
SplineSet
45 227 m 0
 41 406 223 563 417 563 c 0
 568 563 677 464 680 326 c 0
 683 151 512 -9 315 -9 c 0
 159 -9 47 91 45 227 c 0
180 244 m 0
 181 167 245 114 332 114 c 0
 444 114 547 204 545 312 c 0
 544 387 481 439 397 439 c 0
 284 439 178 348 180 244 c 0
EndSplineSet
Validated: 33
EndChar

StartChar: oogonek.sc
Encoding: 358 -1 219
Width: 691
VWidth: 0
GlyphClass: 3
Flags: W
TeX: 554 -251
HStem: -251 107<340.064 401.662> -9 123<245.938 314> 439 124<303.645 479.256>
VStem: 45 135<177.812 324.477> 230 103<-138.514 -73.1015> 545 135<226.748 375.805>
AnchorPoint: "bot_acc" 279 -384 basechar 0
AnchorPoint: "dotbelow" 279 -384 basechar 0
AnchorPoint: "ogon_acc" 279 -384 basechar 0
AnchorPoint: "top_accl" 441 700 basechar 0
AnchorPoint: "dotabove" 441 700 basechar 0
LayerCount: 2
Fore
SplineSet
45 227 m 0
 41 406 223 563 417 563 c 0
 568 563 677 464 680 326 c 0
 682 203 599 88 481 30 c 0
 437 8 381 -19 355 -46 c 0
 339 -63 333 -81 333 -95 c 0
 333 -119 346 -144 371 -144 c 0
 383 -144 399 -144 419 -141 c 1
 401 -244 l 1
 385 -249 369 -251 354 -251 c 0
 285 -251 230 -205 230 -134 c 0
 230 -89 264 -53 314 -9 c 1
 159 -9 47 91 45 227 c 0
180 244 m 0
 181 167 245 114 332 114 c 0
 444 114 547 204 545 312 c 0
 544 387 481 439 397 439 c 0
 284 439 178 348 180 244 c 0
EndSplineSet
Validated: 33
Ligature2: "ccmp_lig subtable" o.sc ogonekcomb
EndChar

StartChar: p.sc
Encoding: 359 -1 220
Width: 484
VWidth: 0
GlyphClass: 2
Flags: W
TeX: 554 0
HStem: 0 21G<40 176.719> 199 123<233 350.586> 430 124<253 366.655>
VStem: 372 134<344.411 422.246>
AnchorPoint: "bot_acc" 210 -146 basechar 0
AnchorPoint: "dotbelow" 210 -146 basechar 0
AnchorPoint: "ogon_acc" 50 -146 basechar 0
AnchorPoint: "top_accl" 366 700 basechar 0
AnchorPoint: "dotabove" 366 700 basechar 0
LayerCount: 2
Fore
SplineSet
40 0 m 1
 142 554 l 1
 295 554 l 2
 374 554 415 546 444 528 c 0
 484 502 505 463 506 413 c 0
 507 355 479 292 435 252 c 0
 387 210 348 199 234 199 c 2
 210 199 l 1
 173 0 l 1
 40 0 l 1
233 322 m 1
 248 322 l 2
 321 322 373 334 372 389 c 0
 371 423 353 430 278 430 c 2
 253 430 l 1
 233 322 l 1
EndSplineSet
Validated: 33
EndChar

StartChar: q.sc
Encoding: 360 -1 221
Width: 691
VWidth: 0
GlyphClass: 2
Flags: W
TeX: 554 -11
HStem: -11 117<599.538 645> -9 123<248.586 381.459> 166 110<210.645 338.05> 439 124<300.947 490.795>
VStem: 556 135<224.13 380.174>
AnchorPoint: "bot_acc" 295 -146 basechar 0
AnchorPoint: "dotbelow" 295 -146 basechar 0
AnchorPoint: "ogon_acc" 295 -146 basechar 0
AnchorPoint: "top_accl" 452 700 basechar 0
AnchorPoint: "dotabove" 452 700 basechar 0
LayerCount: 2
Fore
SplineSet
45 226 m 0x78
 41 404 217 563 418 563 c 0
 579 563 688 468 691 331 c 0
 692 245 661 168 599 110 c 1
 608 107 618 106 627 106 c 0xb8
 638 106 644 107 667 110 c 1
 645 -9 l 1x78
 632 -11 622 -11 615 -11 c 0xb8
 566 -11 539 -3 490 30 c 1
 434 3 382 -9 322 -9 c 0
 164 -9 47 93 45 226 c 0x78
181 270 m 1
 203 274 228 276 261 276 c 0
 336 276 421 252 498 178 c 1
 535 210 557 259 556 311 c 0
 555 388 491 439 400 439 c 0
 295 439 199 372 181 270 c 1
210 165 m 1
 241 130 283 114 338 114 c 0x78
 356 114 369 116 382 119 c 1
 346 145 298 166 241 166 c 0
 229 166 220 166 210 165 c 1
EndSplineSet
Validated: 33
EndChar

StartChar: r.sc
Encoding: 361 -1 222
Width: 512
VWidth: 0
GlyphClass: 2
Flags: W
TeX: 554 0
HStem: 0 21G<40 176.729 295.588 471> 430 124<253 377.425>
VStem: 386 134<330.477 418.542>
AnchorPoint: "bot_acc" 192 -146 basechar 0
AnchorPoint: "dotbelow" 192 -146 basechar 0
AnchorPoint: "ogon_acc" 348 -146 basechar 0
AnchorPoint: "top_accl" 349 700 basechar 0
AnchorPoint: "dotabove" 349 700 basechar 0
LayerCount: 2
Fore
SplineSet
40 0 m 1
 142 554 l 1
 319 554 l 2
 472 554 519 490 520 407 c 0
 522 310 463 231 348 199 c 1
 471 0 l 1
 307 0 l 1
 206 177 l 1
 173 0 l 1
 40 0 l 1
230 303 m 1
 266 303 l 2
 355 303 387 338 386 384 c 0
 385 419 362 430 290 430 c 2
 253 430 l 1
 230 303 l 1
EndSplineSet
Validated: 33
EndChar

StartChar: s.sc
Encoding: 362 -1 223
Width: 441
VWidth: 0
GlyphClass: 2
Flags: W
TeX: 554 0
HStem: -9 123<155.94 264.79> 439 124<223.706 304.589>
VStem: 78 135<364.279 426.925> 285 135<132.945 203.714>
AnchorPoint: "bot_acc" 158 -146 basechar 0
AnchorPoint: "dotbelow" 158 -146 basechar 0
AnchorPoint: "ogon_acc" 130 -146 basechar 0
AnchorPoint: "top_accl" 315 700 basechar 0
AnchorPoint: "dotabove" 315 700 basechar 0
LayerCount: 2
Fore
SplineSet
14 136 m 0
 14 145 15 164 15 179 c 1
 139 179 l 1
 152 162 l 1
 152 150 l 2
 152 126 174 114 206 114 c 0
 249 114 286 140 285 175 c 0
 285 186 281 198 273 204 c 0
 258 215 255 216 183 242 c 0
 111 268 79 310 78 373 c 0
 76 471 174 563 286 563 c 0
 378 563 446 505 447 433 c 0
 447 421 446 404 442 384 c 1
 308 384 l 1
 311 428 300 439 269 439 c 0
 239 439 212 418 213 390 c 0
 213 382 221 373 230 367 c 0
 240 361 244 359 287 345 c 0
 381 313 418 270 420 203 c 0
 422 93 313 -9 190 -9 c 0
 85 -9 15 52 14 136 c 0
EndSplineSet
Validated: 33
EndChar

StartChar: scedilla.sc
Encoding: 363 -1 224
Width: 441
VWidth: 0
GlyphClass: 3
Flags: W
TeX: 554 -256
HStem: -256 64<127.306 214.56> 439 124<223.706 304.589>
VStem: 78 135<364.279 426.925> 220 64<-186.62 -114.093> 285 135<133.939 203.714>
AnchorPoint: "bot_acc" 103 -389 basechar 0
AnchorPoint: "dotbelow" 103 -389 basechar 0
AnchorPoint: "ogon_acc" 103 -389 basechar 0
AnchorPoint: "top_accl" 314 700 basechar 0
AnchorPoint: "dotabove" 314 700 basechar 0
LayerCount: 2
Fore
SplineSet
14 136 m 0
 14 145 15 164 15 179 c 1
 139 179 l 1
 152 162 l 1
 152 150 l 2
 152 126 174 114 206 114 c 0
 249 114 286 140 285 175 c 0
 285 186 281 198 273 204 c 0
 258 215 255 216 183 242 c 0
 111 268 79 310 78 373 c 0
 76 471 174 563 286 563 c 0
 378 563 446 505 447 433 c 0
 447 421 446 404 442 384 c 1
 308 384 l 1
 311 428 300 439 269 439 c 0
 239 439 212 418 213 390 c 0
 213 382 221 373 230 367 c 0
 240 361 244 359 287 345 c 0
 381 313 418 270 420 203 c 0
 421 102 329 7 219 -7 c 1
 193 -46 l 1
 244 -53 284 -97 284 -150 c 0
 284 -209 236 -256 178 -256 c 0
 126 -256 83 -219 73 -170 c 1
 141 -170 l 1
 148 -184 162 -192 178 -192 c 0
 201 -192 220 -174 220 -150 c 0
 220 -127 201 -108 178 -108 c 0
 162 -108 148 -117 141 -130 c 1
 92 -104 l 1
 158 -7 l 1
 71 4 15 61 14 136 c 0
EndSplineSet
Validated: 33
AlternateSubs2: "'aalt' Access All Alternates in Latin lookup 0 subtable" uni0219.sc
Ligature2: "ccmp_lig subtable" s.sc cedillacmb
Substitution2: "locl_ROM subtable" uni0219.sc
EndChar

StartChar: t.sc
Encoding: 364 -1 225
Width: 357
VWidth: 0
GlyphClass: 2
Flags: W
TeX: 554 0
HStem: 0 21G<82 219.721> 430 124<79 162 296 404>
AnchorPoint: "bot_acc" 122 -146 basechar 0
AnchorPoint: "dotbelow" 122 -146 basechar 0
AnchorPoint: "ogon_acc" 93 -146 basechar 0
AnchorPoint: "top_accl" 279 700 basechar 0
AnchorPoint: "dotabove" 279 700 basechar 0
LayerCount: 2
Fore
SplineSet
57 430 m 1
 79 554 l 1
 427 554 l 1
 404 430 l 1
 296 430 l 1
 216 0 l 1
 82 0 l 1
 162 430 l 1
 57 430 l 1
EndSplineSet
Validated: 1
EndChar

StartChar: tcedilla.sc
Encoding: 365 -1 226
Width: 357
VWidth: 0
GlyphClass: 3
Flags: W
TeX: 554 -256
HStem: -256 64<103.358 190.761> 430 124<79 162 296 404>
VStem: 196 64<-186.62 -114.093>
AnchorPoint: "bot_acc" 80 -389 basechar 0
AnchorPoint: "dotbelow" 80 -389 basechar 0
AnchorPoint: "ogon_acc" 80 -389 basechar 0
AnchorPoint: "top_accl" 280 700 basechar 0
AnchorPoint: "dotabove" 280 700 basechar 0
LayerCount: 2
Fore
SplineSet
50 -170 m 1
 117 -170 l 1
 124 -184 138 -192 154 -192 c 0
 177 -192 196 -174 196 -150 c 0
 196 -127 177 -108 154 -108 c 0
 138 -108 124 -117 117 -130 c 1
 69 -104 l 1
 140 0 l 1
 82 0 l 1
 162 430 l 1
 57 430 l 1
 79 554 l 1
 427 554 l 1
 404 430 l 1
 296 430 l 1
 216 0 l 1
 201 0 l 1
 169 -46 l 1
 221 -53 260 -97 260 -150 c 0
 260 -209 213 -256 154 -256 c 0
 102 -256 59 -219 50 -170 c 1
EndSplineSet
Validated: 1
AlternateSubs2: "'aalt' Access All Alternates in Latin lookup 0 subtable" uni021B.sc
Ligature2: "ccmp_lig subtable" t.sc cedillacmb
Substitution2: "locl_ROM subtable" uni021B.sc
EndChar

StartChar: u.sc
Encoding: 366 -1 227
Width: 559
VWidth: 0
GlyphClass: 2
Flags: W
TeX: 554 0
HStem: -9 123<215.149 325.107> 534 20G<138.337 276 420.337 558>
VStem: 72 134<127.324 290.625>
AnchorPoint: "bot_acc" 221 -146 basechar 0
AnchorPoint: "dotbelow" 221 -146 basechar 0
AnchorPoint: "ogon_acc" 221 -146 basechar 0
AnchorPoint: "top_accl" 378 700 basechar 0
AnchorPoint: "dotabove" 378 700 basechar 0
LayerCount: 2
Fore
SplineSet
72 139 m 0
 72 160 74 183 79 210 c 2
 142 554 l 1
 276 554 l 1
 211 204 l 2
 207 183 205 167 206 158 c 0
 206 132 235 114 265 114 c 0
 314 114 348 140 361 210 c 2
 424 554 l 1
 558 554 l 1
 494 204 l 2
 468 64 369 -9 248 -9 c 0
 147 -9 74 55 72 139 c 0
EndSplineSet
Validated: 33
EndChar

StartChar: uogonek.sc
Encoding: 367 -1 228
Width: 559
VWidth: 0
GlyphClass: 3
Flags: W
TeX: 554 -251
HStem: -251 107<269.645 330.748> 534 20G<138.337 276 420.337 558>
VStem: 72 134<127.464 290.625> 159 103<-138.253 -74.7509>
AnchorPoint: "bot_acc" 209 -384 basechar 0
AnchorPoint: "dotbelow" 209 -384 basechar 0
AnchorPoint: "ogon_acc" 209 -384 basechar 0
AnchorPoint: "top_accl" 377 700 basechar 0
AnchorPoint: "dotabove" 377 700 basechar 0
LayerCount: 2
Fore
SplineSet
72 139 m 0xe0
 72 160 74 183 79 210 c 2
 142 554 l 1
 276 554 l 1
 211 204 l 2
 207 183 205 167 206 158 c 0xe0
 206 132 235 114 265 114 c 0
 314 114 348 140 361 210 c 2
 424 554 l 1
 558 554 l 1
 494 204 l 2
 478 120 436 60 379 25 c 0
 326 -7 262 -45 262 -95 c 0
 262 -119 276 -144 301 -144 c 0
 313 -144 329 -144 349 -141 c 1
 330 -244 l 1
 314 -249 299 -251 284 -251 c 0
 214 -251 159 -205 159 -134 c 0xd0
 159 -89 194 -53 243 -9 c 1
 145 -7 74 56 72 139 c 0xe0
EndSplineSet
Validated: 33
Ligature2: "ccmp_lig subtable" u.sc ogonekcomb
EndChar

StartChar: v.sc
Encoding: 368 -1 229
Width: 605
VWidth: 0
GlyphClass: 2
Flags: W
TeX: 554 0
HStem: 0 21G<219.126 339.238> 534 20G<89 233.043 509.511 666>
AnchorPoint: "bot_acc" 248 -146 basechar 0
AnchorPoint: "dotbelow" 248 -146 basechar 0
AnchorPoint: "ogon_acc" 204 -146 basechar 0
AnchorPoint: "top_accl" 404 700 basechar 0
AnchorPoint: "dotabove" 404 700 basechar 0
LayerCount: 2
Fore
SplineSet
89 554 m 1
 229 554 l 1
 305 178 l 1
 521 554 l 1
 666 554 l 1
 327 0 l 1
 224 0 l 1
 89 554 l 1
EndSplineSet
Validated: 1
EndChar

StartChar: w.sc
Encoding: 369 -1 230
Width: 761
VWidth: 0
GlyphClass: 2
Flags: W
TeX: 554 0
HStem: 0 21G<163.256 278.226 435.387 552.108> 534 20G<90 227.818 396.909 505.515 673.667 822>
AnchorPoint: "bot_acc" 326 -146 basechar 0
AnchorPoint: "dotbelow" 326 -146 basechar 0
AnchorPoint: "ogon_acc" 419 -146 basechar 0
AnchorPoint: "top_accl" 483 700 basechar 0
AnchorPoint: "dotabove" 483 700 basechar 0
LayerCount: 2
Fore
SplineSet
90 554 m 1
 226 554 l 1
 256 224 l 1
 406 554 l 1
 504 554 l 1
 529 224 l 1
 683 554 l 1
 822 554 l 1
 542 0 l 1
 437 0 l 1
 412 310 l 1
 269 0 l 1
 166 0 l 1
 90 554 l 1
EndSplineSet
Validated: 1
EndChar

StartChar: x.sc
Encoding: 370 -1 231
Width: 590
VWidth: 0
GlyphClass: 2
Flags: W
TeX: 554 0
HStem: 0 21G<-27 157.497 387.439 554> 534 20G<80 248.857 479.143 660>
AnchorPoint: "bot_acc" 238 -146 basechar 0
AnchorPoint: "dotbelow" 238 -146 basechar 0
AnchorPoint: "ogon_acc" 431 -146 basechar 0
AnchorPoint: "top_accl" 395 700 basechar 0
AnchorPoint: "dotabove" 395 700 basechar 0
LayerCount: 2
Fore
SplineSet
-27 0 m 1
 236 278 l 1
 80 554 l 1
 238 554 l 1
 333 379 l 1
 498 554 l 1
 660 554 l 1
 395 273 l 1
 554 0 l 1
 399 0 l 1
 299 173 l 1
 139 0 l 1
 -27 0 l 1
EndSplineSet
Validated: 1
EndChar

StartChar: y.sc
Encoding: 371 -1 232
Width: 543
VWidth: 0
GlyphClass: 2
Flags: W
TeX: 554 0
HStem: 0 21G<178 315.682> 534 20G<82 232.872 451.727 616>
AnchorPoint: "bot_acc" 218 -146 basechar 0
AnchorPoint: "dotbelow" 218 -146 basechar 0
AnchorPoint: "ogon_acc" 189 -146 basechar 0
AnchorPoint: "top_accl" 375 700 basechar 0
AnchorPoint: "dotabove" 375 700 basechar 0
LayerCount: 2
Fore
SplineSet
82 554 m 1
 226 554 l 1
 304 327 l 1
 466 554 l 1
 616 554 l 1
 349 201 l 1
 312 0 l 1
 178 0 l 1
 217 207 l 1
 82 554 l 1
EndSplineSet
Validated: 1
EndChar

StartChar: z.sc
Encoding: 372 -1 233
Width: 420
VWidth: 0
GlyphClass: 2
Flags: W
TeX: 554 0
HStem: 0 124<178 372> 430 124<100 270>
AnchorPoint: "bot_acc" 150 -146 basechar 0
AnchorPoint: "dotbelow" 150 -146 basechar 0
AnchorPoint: "ogon_acc" 249 -146 basechar 0
AnchorPoint: "top_accl" 307 700 basechar 0
AnchorPoint: "dotabove" 307 700 basechar 0
LayerCount: 2
Fore
SplineSet
-14 0 m 1
 5 105 l 1
 270 430 l 1
 78 430 l 1
 100 554 l 1
 460 554 l 1
 440 443 l 1
 178 124 l 1
 395 124 l 1
 372 0 l 1
 -14 0 l 1
EndSplineSet
Validated: 1
EndChar

StartChar: ohorn.sc
Encoding: 373 -1 234
Width: 740
VWidth: 0
GlyphClass: 2
Flags: W
TeX: 563 -9
HStem: -9 123<263.643 442.477> 439 124<321.645 498.64> 534 20G<687 783>
VStem: 63 135<177.812 324.477> 563 135<230.1 363.437> 688 95<479.75 554>
AnchorPoint: "bot_acc" 302 -146 basechar 0
AnchorPoint: "dotbelow" 302 -146 basechar 0
AnchorPoint: "ogon_acc" 302 -146 basechar 0
AnchorPoint: "top_accl" 459 700 basechar 0
AnchorPoint: "dotabove" 459 700 basechar 0
LayerCount: 2
Fore
SplineSet
63 227 m 0xb8
 59 406 241 563 435 563 c 0xd8
 530 563 608 524 654 461 c 1
 672 484 686 515 688 554 c 1
 783 554 l 1xb4
 773 459 738 401 694 364 c 1
 696 352 698 339 698 326 c 0
 701 151 530 -9 333 -9 c 0
 177 -9 65 91 63 227 c 0xb8
198 244 m 0
 199 167 263 114 350 114 c 0
 462 114 565 204 563 312 c 0
 562 387 499 439 415 439 c 0
 302 439 196 348 198 244 c 0
EndSplineSet
Validated: 33
EndChar

StartChar: uhorn.sc
Encoding: 374 -1 235
Width: 687
VWidth: 0
GlyphClass: 2
Flags: W
TeX: 554 -9
HStem: -9 123<245.149 355.107> 534 20G<168.337 306 450.337 588 642.5 740>
VStem: 102 134<127.324 290.625> 645 95<484.074 554>
AnchorPoint: "bot_acc" 251 -146 basechar 0
AnchorPoint: "dotbelow" 251 -146 basechar 0
AnchorPoint: "ogon_acc" 251 -146 basechar 0
AnchorPoint: "top_accl" 408 700 basechar 0
AnchorPoint: "dotabove" 408 700 basechar 0
LayerCount: 2
Fore
SplineSet
102 139 m 0
 102 160 104 183 109 210 c 2
 172 554 l 1
 306 554 l 1
 241 204 l 2
 237 183 235 167 236 158 c 0
 236 132 265 114 295 114 c 0
 344 114 378 140 391 210 c 2
 454 554 l 1
 588 554 l 1
 563 419 l 1
 602 443 640 485 645 554 c 1
 740 554 l 1
 721 388 630 334 542 309 c 1
 524 204 l 2
 498 64 399 -9 278 -9 c 0
 177 -9 104 55 102 139 c 0
EndSplineSet
Validated: 33
EndChar

StartChar: ae.sc
Encoding: 375 -1 236
Width: 746
VWidth: 0
Flags: W
TeX: 554 0
HStem: 0 124<523 670> 215 123<563 701> 430 124<580 750>
LayerCount: 2
Fore
SplineSet
-16 0 m 1
 487 554 l 1
 773 554 l 1
 750 430 l 1
 580 430 l 1
 563 338 l 1
 724 338 l 1
 701 215 l 1
 540 215 l 1
 523 124 l 1
 693 124 l 1
 670 0 l 1
 367 0 l 1
 392 135 l 1
 262 135 l 1
 149 0 l 1
 -16 0 l 1
367 259 m 1
 415 259 l 1
 428 331 l 1
 367 259 l 1
EndSplineSet
Validated: 1
EndChar

StartChar: oe.sc
Encoding: 376 -1 237
Width: 859
VWidth: 0
Flags: W
TeX: 554 0
HStem: -9 124<248.399 425.275> 0 124<637 784> 215 123<677 815> 430 124<695 864> 439 124<305.301 478.839>
VStem: 52 135<173.705 323.636>
LayerCount: 2
Fore
SplineSet
52 220 m 0xa4
 49 403 215 563 412 563 c 0xac
 481 563 538 544 574 509 c 1
 582 554 l 1
 886 554 l 1
 864 430 l 1
 695 430 l 1
 677 338 l 1
 837 338 l 1
 815 215 l 1
 654 215 l 1
 637 124 l 1
 806 124 l 1
 784 0 l 1
 480 0 l 1x74
 487 41 l 1
 439 9 377 -9 317 -9 c 0
 162 -9 54 87 52 220 c 0xa4
187 241 m 0
 188 167 247 115 331 115 c 0
 445 115 539 204 537 313 c 0
 536 389 478 439 396 439 c 0
 281 439 185 343 187 241 c 0
EndSplineSet
Validated: 33
EndChar

StartChar: thorn.sc
Encoding: 377 -1 238
Width: 484
VWidth: 0
Flags: W
TeX: 554 0
HStem: 0 21G<40 176.6> 100 123<214 332.086> 331 123<257 348.213> 534 20G<138.318 276>
VStem: 353 135<242.948 323.245>
LayerCount: 2
Fore
SplineSet
40 0 m 1
 142 554 l 1
 276 554 l 1
 257 454 l 1
 277 454 l 2
 355 454 397 447 426 428 c 0
 465 403 487 364 488 314 c 0
 489 256 461 192 417 153 c 0
 368 110 330 100 215 100 c 2
 191 100 l 1
 173 0 l 1
 40 0 l 1
214 223 m 1
 229 223 l 2
 303 223 354 234 353 290 c 0
 353 324 335 331 260 331 c 2
 235 331 l 1
 214 223 l 1
EndSplineSet
Validated: 33
EndChar

StartChar: eth.sc
Encoding: 378 -1 239
Width: 626
VWidth: 0
Flags: W
TeX: 554 0
HStem: 0 123<227 372.731> 227 106<59 113 266 362> 431 123<284 424.288>
VStem: 480 135<227.81 379.803>
LayerCount: 2
Fore
SplineSet
39 227 m 1
 59 333 l 1
 132 333 l 1
 173 554 l 1
 316 554 l 2
 534 554 612 471 615 338 c 0
 617 222 560 114 464 54 c 0
 402 16 335 0 221 0 c 2
 71 0 l 1
 113 227 l 1
 39 227 l 1
227 123 m 1
 234 123 l 2
 326 123 381 138 421 177 c 0
 458 211 481 265 480 315 c 0
 478 394 430 431 294 431 c 2
 284 431 l 1
 266 333 l 1
 382 333 l 1
 362 227 l 1
 246 227 l 1
 227 123 l 1
EndSplineSet
Validated: 33
EndChar

StartChar: oslash.sc
Encoding: 379 -1 240
Width: 703
VWidth: 0
GlyphClass: 2
Flags: W
TeX: 619 -61
HStem: -9 123<304.54 442.174> 439 124<319.527 448.062>
VStem: 61 134<181.993 321.548> 562 135<226.301 376.152>
AnchorPoint: "bot_acc" 300 -146 basechar 0
AnchorPoint: "dotbelow" 300 -146 basechar 0
AnchorPoint: "ogon_acc" 300 -146 basechar 0
AnchorPoint: "top_accl" 457 700 basechar 0
AnchorPoint: "dotabove" 457 700 basechar 0
LayerCount: 2
Fore
SplineSet
53 5 m 1
 118 77 l 1
 80 121 62 169 61 225 c 0
 57 401 231 563 426 563 c 0
 469 563 506 556 546 541 c 1
 619 619 l 1
 705 553 l 1
 637 480 l 1
 675 441 695 389 697 326 c 0
 700 161 532 -9 333 -9 c 0
 288 -9 251 -2 208 14 c 1
 138 -61 l 1
 53 5 l 1
195 243 m 0
 196 222 202 203 214 180 c 1
 449 436 l 1
 437 438 425 439 411 439 c 0
 297 439 194 347 195 243 c 0
304 119 m 1
 317 116 331 114 347 114 c 0
 462 114 564 204 562 309 c 0
 561 335 554 359 543 377 c 1
 304 119 l 1
EndSplineSet
Validated: 33
EndChar

StartChar: f_i
Encoding: 129 64257 241
Width: 520
VWidth: 0
GlyphClass: 3
Flags: W
TeX: 739 0
HStem: 0 21G<27 163.695 304 440.718> 433 111<80 107 261 318> 534 20G<403.282 540> 611 128<279.353 359> 634 132<446 554>
LayerCount: 2
Fore
SplineSet
27 0 m 1xd0
 107 433 l 1
 59 433 l 1
 80 544 l 1
 128 544 l 1
 164 682 249 739 344 739 c 0
 353 739 361 739 383 737 c 1
 359 611 l 1
 341 611 l 2
 292 611 267 590 261 544 c 1
 339 544 l 1
 318 433 l 1
 240 433 l 1
 160 0 l 1
 27 0 l 1xd0
304 0 m 1
 407 554 l 1
 540 554 l 1xa0
 437 0 l 1
 304 0 l 1
421 634 m 1x88
 446 766 l 1
 579 766 l 1
 554 634 l 1
 421 634 l 1x88
EndSplineSet
Validated: 1
Ligature2: "liga_PLK subtable" f i
Ligature2: "liga_NLDb subtable" f i
Ligature2: "liga_f_i subtable" f i
EndChar

StartChar: f_l
Encoding: 130 64258 242
Width: 520
VWidth: 0
GlyphClass: 3
Flags: W
TeX: 739 0
HStem: 0 21G<27 163.695 304 440.708> 433 111<80 107 261 318> 611 128<279.353 359>
LayerCount: 2
Fore
SplineSet
27 0 m 1
 107 433 l 1
 59 433 l 1
 80 544 l 1
 128 544 l 1
 164 682 249 739 344 739 c 0
 353 739 361 739 383 737 c 1
 359 611 l 1
 341 611 l 2
 292 611 267 590 261 544 c 1
 339 544 l 1
 318 433 l 1
 240 433 l 1
 160 0 l 1
 27 0 l 1
304 0 m 1
 441 739 l 1
 574 739 l 1
 437 0 l 1
 304 0 l 1
EndSplineSet
Validated: 1
Ligature2: "liga_f_f_l subtable" f l
EndChar

StartChar: f_f
Encoding: 380 64256 243
Width: 562
VWidth: 0
GlyphClass: 3
Flags: W
TeX: 739 0
HStem: 0 21G<27 163.695 304 440.695> 433 111<80 107 261 384 538 595> 611 128<279.353 359 556.353 636>
LayerCount: 2
Fore
SplineSet
27 0 m 1
 107 433 l 1
 59 433 l 1
 80 544 l 1
 128 544 l 1
 164 682 249 739 344 739 c 0
 353 739 361 739 383 737 c 1
 359 611 l 1
 341 611 l 2
 292 611 267 590 261 544 c 1
 405 544 l 1
 441 682 526 739 621 739 c 0
 630 739 638 739 660 737 c 1
 636 611 l 1
 618 611 l 2
 569 611 544 590 538 544 c 1
 616 544 l 1
 595 433 l 1
 517 433 l 1
 437 0 l 1
 304 0 l 1
 384 433 l 1
 240 433 l 1
 160 0 l 1
 27 0 l 1
EndSplineSet
Validated: 1
Ligature2: "liga_f_f_l subtable" f f
EndChar

StartChar: f_f_i
Encoding: 381 64259 244
Width: 797
VWidth: 0
GlyphClass: 3
Flags: W
TeX: 739 0
HStem: 0 21G<27 163.695 304 440.695 581 717.718> 433 111<80 107 261 384 538 595> 534 20G<680.282 817> 611 128<279.353 359 556.353 636> 634 132<723 831>
LayerCount: 2
Fore
SplineSet
27 0 m 1xd0
 107 433 l 1
 59 433 l 1
 80 544 l 1
 128 544 l 1
 164 682 249 739 344 739 c 0
 353 739 361 739 383 737 c 1
 359 611 l 1
 341 611 l 2
 292 611 267 590 261 544 c 1
 405 544 l 1
 441 682 526 739 621 739 c 0
 630 739 638 739 660 737 c 1
 636 611 l 1
 618 611 l 2
 569 611 544 590 538 544 c 1
 616 544 l 1
 595 433 l 1
 517 433 l 1
 437 0 l 1
 304 0 l 1
 384 433 l 1
 240 433 l 1
 160 0 l 1
 27 0 l 1xd0
581 0 m 1
 684 554 l 1
 817 554 l 1xa0
 714 0 l 1
 581 0 l 1
698 634 m 1x88
 723 766 l 1
 856 766 l 1
 831 634 l 1
 698 634 l 1x88
EndSplineSet
Validated: 1
Ligature2: "liga_PLK subtable" f_f i
Ligature2: "liga_NLDb subtable" f_f i
Ligature2: "liga_f_i subtable" f_f i
EndChar

StartChar: f_f_l
Encoding: 382 64260 245
Width: 797
VWidth: 0
GlyphClass: 3
Flags: W
TeX: 739 0
HStem: 0 21G<27 163.695 304 440.695 581 717.708> 433 111<80 107 261 384 538 595> 611 128<279.353 359 556.353 636>
LayerCount: 2
Fore
SplineSet
27 0 m 1
 107 433 l 1
 59 433 l 1
 80 544 l 1
 128 544 l 1
 164 682 249 739 344 739 c 0
 353 739 361 739 383 737 c 1
 359 611 l 1
 341 611 l 2
 292 611 267 590 261 544 c 1
 405 544 l 1
 441 682 526 739 621 739 c 0
 630 739 638 739 660 737 c 1
 636 611 l 1
 618 611 l 2
 569 611 544 590 538 544 c 1
 616 544 l 1
 595 433 l 1
 517 433 l 1
 437 0 l 1
 304 0 l 1
 384 433 l 1
 240 433 l 1
 160 0 l 1
 27 0 l 1
581 0 m 1
 718 739 l 1
 851 739 l 1
 714 0 l 1
 581 0 l 1
EndSplineSet
Validated: 1
Ligature2: "liga_f_f_l subtable" f f l
EndChar

StartChar: f_k
Encoding: 383 -1 246
Width: 860
VWidth: 0
GlyphClass: 3
Flags: W
TeX: 739 0
HStem: 0 21G<27 163.695 304 440.707 615.112 805> 433 111<80 107 261 318> 534 20G<698.759 875> 611 128<279.353 359>
LayerCount: 2
Fore
SplineSet
27 0 m 1xd0
 107 433 l 1
 59 433 l 1
 80 544 l 1
 128 544 l 1
 164 682 249 739 344 739 c 0
 353 739 361 739 383 737 c 1
 359 611 l 1
 341 611 l 2
 292 611 267 590 261 544 c 1
 339 544 l 1
 318 433 l 1
 240 433 l 1
 160 0 l 1
 27 0 l 1xd0
304 0 m 1
 441 739 l 1
 574 739 l 1
 491 293 l 1
 716 554 l 1
 875 554 l 1xb0
 627 283 l 1
 805 0 l 1
 626 0 l 1
 485 259 l 1
 437 0 l 1
 304 0 l 1
EndSplineSet
Validated: 1
Ligature2: "liga_PLK subtable" f k
EndChar

StartChar: hyphendbl
Encoding: 384 11840 247
Width: 420
VWidth: 0
Flags: W
TeX: 554 0
HStem: 22 118<76 331> 436 118<152 407>
LayerCount: 2
Fore
SplineSet
54 22 m 1
 76 140 l 1
 353 140 l 1
 331 22 l 1
 54 22 l 1
130 436 m 1
 152 554 l 1
 429 554 l 1
 407 436 l 1
 130 436 l 1
EndSplineSet
Validated: 1
EndChar

StartChar: died
Encoding: 385 -1 248
Width: 608
VWidth: 0
Flags: W
TeX: 739 0
HStem: 0 21G<205 346.711> 485 138<139 295 458 614> 719 20G<338.207 480>
LayerCount: 2
Fore
SplineSet
114 485 m 1
 139 623 l 1
 320 623 l 1
 342 739 l 1
 480 739 l 1
 458 623 l 1
 639 623 l 1
 614 485 l 1
 433 485 l 1
 343 0 l 1
 205 0 l 1
 295 485 l 1
 114 485 l 1
EndSplineSet
Validated: 1
EndChar

StartChar: dong
Encoding: 386 8363 249
Width: 654
VWidth: 0
Flags: W
TeX: 739 -122
HStem: -122 122<13 559> 100 103<247.259 376.562> 495 104<292.268 439.665> 623 73<439 522 648 686> 719 20G<539.279 656>
VStem: 84 116<249.406 404.582>
LayerCount: 2
Fore
SplineSet
13 0 m 1
 559 0 l 1
 559 -122 l 1
 13 -122 l 1
 13 0 l 1
84 298 m 0
 84 457 219 599 371 599 c 0
 429 599 480 577 506 540 c 1
 522 623 l 1
 426 623 l 1
 439 696 l 1
 535 696 l 1
 543 739 l 1
 656 739 l 1
 648 696 l 1
 699 696 l 1
 686 623 l 1
 635 623 l 1
 540 111 l 1
 436 111 l 1
 448 172 l 1
 394 122 342 100 279 100 c 0
 162 100 84 179 84 298 c 0
200 322 m 0
 200 251 248 203 317 203 c 0
 404 203 483 287 483 378 c 0
 483 447 438 495 370 495 c 0
 278 495 200 416 200 322 c 0
EndSplineSet
Validated: 1
EndChar

StartChar: threequartersemdash
Encoding: 144 -1 250
Width: 750
VWidth: 0
GlyphClass: 3
Flags: W
TeX: 347 0
HStem: 229 118<39 767>
LayerCount: 2
Fore
SplineSet
17 229 m 1
 39 347 l 1
 789 347 l 1
 767 229 l 1
 17 229 l 1
EndSplineSet
Validated: 1
Ligature2: "'dlig' Discretionary Ligatures in Latin lookup 12 subtable" hyphen hyphen hyphen
EndChar

StartChar: emdash.alt
Encoding: 387 -1 251
Width: 667
VWidth: 0
Flags: W
TeX: 347 0
HStem: 229 118<38 683>
LayerCount: 2
Fore
SplineSet
16 229 m 1
 38 347 l 1
 705 347 l 1
 683 229 l 1
 16 229 l 1
EndSplineSet
Validated: 1
EndChar

